<?xml version="1.0" encoding="utf-8"?>
<!-- Generator: Adobe Illustrator 25.4.1, SVG Export Plug-In . SVG Version: 6.00 Build 0)  -->
<svg version="1.1" id="Two_people_talking_on_phone"
	 xmlns="http://www.w3.org/2000/svg" xmlns:xlink="http://www.w3.org/1999/xlink" x="0px" y="0px" viewBox="0 0 1080 1080"
	 style="enable-background:new 0 0 1080 1080;" xml:space="preserve">
<style type="text/css">
	.st0{opacity:0.15;fill:#CDBFDE;}
	.st1{fill:none;}
	.st2{fill:#E2E2E2;stroke:#000000;stroke-linecap:round;stroke-linejoin:round;stroke-miterlimit:10;}
	.st3{clip-path:url(#SVGID_00000048463011753388888270000009490529407558269107_);}
	.st4{fill:#CDBFDE;stroke:#000000;stroke-linecap:round;stroke-linejoin:round;stroke-miterlimit:10;}
	.st5{fill:#FFFFFF;stroke:#000000;stroke-miterlimit:10;}
	.st6{fill:#E2E2E2;stroke:#000000;stroke-miterlimit:10;}
	.st7{fill:#FFFFFF;stroke:#000000;stroke-width:0.5;stroke-miterlimit:10;}
	.st8{fill:none;stroke:#000000;stroke-linecap:round;stroke-linejoin:round;stroke-miterlimit:10;}
	.st9{stroke:#000000;stroke-linecap:round;stroke-linejoin:round;stroke-miterlimit:10;}
	.st10{fill:#3A3A3A;stroke:#000000;stroke-linecap:round;stroke-linejoin:round;stroke-miterlimit:10;}
	.st11{fill:#EEDBEB;stroke:#000000;stroke-linecap:round;stroke-linejoin:round;stroke-miterlimit:10;}
	.st12{fill:#FFFFFF;stroke:#000000;stroke-linecap:round;stroke-linejoin:round;stroke-miterlimit:10;}
	.st13{fill:none;stroke:#565656;stroke-width:2;stroke-linecap:round;stroke-linejoin:round;stroke-miterlimit:10;}
	.st14{stroke:#000000;stroke-miterlimit:10;}
	.st15{fill:#D3D1E9;stroke:#000000;stroke-linecap:round;stroke-linejoin:round;stroke-miterlimit:10;}
	.st16{fill:#303030;stroke:#000000;stroke-linecap:round;stroke-linejoin:round;stroke-miterlimit:10;}
	.st17{clip-path:url(#SVGID_00000106844323569454832860000010949622692253170856_);}
	
		.st18{opacity:0.6;fill:#DCDBDB;stroke:#7B7B7B;stroke-width:0.25;stroke-linecap:round;stroke-linejoin:round;stroke-miterlimit:10;}
	.st19{fill:#262626;stroke:#000000;stroke-linecap:round;stroke-linejoin:round;stroke-miterlimit:10;}
	.st20{fill:#5C58A6;stroke:#000000;stroke-linecap:round;stroke-linejoin:round;stroke-miterlimit:10;}
	.st21{fill:none;stroke:#181818;stroke-linecap:round;stroke-linejoin:round;stroke-miterlimit:10;}
	.st22{fill:#B7B7B7;stroke:#000000;stroke-miterlimit:10;}
	.st23{fill:#DDDBEE;stroke:#000000;stroke-linecap:round;stroke-linejoin:round;stroke-miterlimit:10;}
	.st24{fill:none;stroke:#DDDBEE;stroke-width:2;stroke-linecap:round;stroke-linejoin:round;stroke-miterlimit:10;}
	.st25{fill:#EEEEF7;stroke:#000000;stroke-width:0.5;stroke-linecap:round;stroke-linejoin:round;stroke-miterlimit:10;}
	.st26{fill:#6D6D6D;stroke:#000000;stroke-miterlimit:10;}
	.st27{fill:#CCCCCB;stroke:#000000;stroke-linecap:round;stroke-linejoin:round;stroke-miterlimit:10;}
	.st28{fill:#F4F4F5;stroke:#000000;stroke-linecap:round;stroke-linejoin:round;stroke-miterlimit:10;}
	.st29{fill:#EEDBEB;stroke:#000000;stroke-width:0.5;stroke-linecap:round;stroke-linejoin:round;stroke-miterlimit:10;}
</style>
<g id="Illustration">
	<path id="Shape" class="st0" d="M186.7,270.5c39-34.6,94.4-45.9,146.4-41.3c51.9,4.6,101.4,23.3,149.9,42.6
		c48.4,19.3,97.2,39.4,148.8,46.9c52.2,7.6,105.5,2.1,158.2,5.1c52.7,3,108,16.2,145.1,53.8c46.7,47.4,53.1,120.9,49.4,187.3
		c-3.1,56.3-11.4,112.3-24.8,167.1c-8.3,33.8-19.2,68.4-43.2,93.5c-27.5,28.8-68.6,40.9-108.4,42.6c-72.3,3.1-142-24.1-209.2-50.9
		c-30.2-12-60.8-24.3-86.7-44.1c-25.3-19.4-45.3-45.4-72.4-62.1c-65.4-40-150.8-15.1-225.2-33.6c-16.6-4.1-32.9-10.6-46-21.7
		c-12.5-10.5-21.3-24.7-28.4-39.4c-30.2-62.6-15.6-118-14.3-183C127.1,374.7,140.9,311.3,186.7,270.5z"/>
	<g id="Man">
		<g id="Chat_Bubble">
			<circle class="st1" cx="382.6" cy="328.1" r="147.4"/>
			<path class="st2" d="M464.2,451.1c39.9-26.4,66.2-71.6,66.2-123c0-81.4-66-147.4-147.4-147.4s-147.4,66-147.4,147.4
				s66,147.4,147.4,147.4c15.4,0,30.3-2.4,44.2-6.8l0,0l67.8,6.8C470.8,464.3,465.3,453.8,464.2,451.1z"/>
			<circle class="st1" cx="383" cy="328.1" r="147.4"/>
		</g>
		<g id="Man_00000168112963368109086840000010373057775761377418_">
			<defs>
				<path id="SVGID_1_" d="M463.7,451.1c39.9-26.4,66.2-71.6,66.2-123c0-81.4-66-147.4-147.4-147.4s-147.4,66-147.4,147.4
					s66,147.4,147.4,147.4c15.4,0,30.3-2.4,44.2-6.8l0,0l67.8,6.8C470.3,464.3,464.8,453.8,463.7,451.1z"/>
			</defs>
			<clipPath id="SVGID_00000142867868589194581000000008959549667736933301_">
				<use xlink:href="#SVGID_1_"  style="overflow:visible;"/>
			</clipPath>
			<g id="Curly" style="clip-path:url(#SVGID_00000142867868589194581000000008959549667736933301_);">
				<g id="Shirt_00000124127228191331749230000012993813980017848968_">
					<path class="st4" d="M367.7,369.3c0,0-59.8,9.4-66.6,17.6c-6.7,8.2-11.2,42.2-15.7,60.8c0,0,241.3,149.3,209.7-20.2
						c0,0-6.6-45.1-37-56.9c0,0-46.4-2.6-53.9-2.4S367.7,369.3,367.7,369.3z"/>
					<path id="Neck" class="st5" d="M371.3,351.9c0,0,4.4,13.9,0,20.7c0,0,18.2,30.9,31.1,0c0,0-6.4-6.5-3.6-22.7L371.3,351.9z"/>
					<polygon class="st4" points="367.7,369.3 345.2,373.6 377.8,420.5 388.1,386.5 					"/>
					<polygon class="st4" points="404.2,368.2 388.1,386.5 401.3,420.5 428.2,369.3 					"/>
					<line class="st6" x1="387.6" y1="388.2" x2="387.6" y2="482.4"/>
					<g>
						<circle class="st7" cx="388.3" cy="390.9" r="1.3"/>
						<circle class="st7" cx="390" cy="409.8" r="1.3"/>
						<circle class="st7" cx="390" cy="428.8" r="1.3"/>
						<circle class="st7" cx="390" cy="447.7" r="1.3"/>
						<circle class="st7" cx="390" cy="466.6" r="1.3"/>
					</g>
				</g>
				<g id="Head">
					<path id="Facecut_00000006696024038589223520000001710043917553552563_" class="st5" d="M331.8,269.2
						c-1.1,1.4-2.2,91.8,51,92.8c53.2,1.1,47-110.7,44.8-110.3C425.4,252.1,331.8,269.2,331.8,269.2z"/>
					<g id="Expressions_00000119088538033703655580000014934407360124351405_">
						<path class="st8" d="M395.8,302.2c0,0,5.9-6.2,15.6,0"/>
						<path class="st8" d="M360.3,302.2c0,0,5.9-6.2,15.6,0"/>
						<ellipse class="st9" cx="368.1" cy="316.6" rx="3.6" ry="5.7"/>
						<ellipse class="st9" cx="403.6" cy="316.6" rx="3.6" ry="5.7"/>
					</g>
					<path id="Hair" class="st10" d="M381.5,292.5c-0.5-0.5-0.8-1.2-1-1.9c0.5-0.9,1.8-1.1,2.5-0.4c0.6,0.7,0.8,1.9,1.6,2.2
						c0.5,0.2,1.1-0.1,1.6-0.3c0.5-0.2,1.2-0.1,1.5,0.4c0.1,1,0.4,1.9,0.9,2.8c0.4-0.5,0.8-1,1.3-1.2c0.5-0.2,1.3,0.1,1.4,0.7
						c0,0.3,0,0.6,0,0.9c0.2,0.8,1.3,0.8,2,0.4s1.7-0.6,2.1,0.1c0.2,0.3,0.1,0.8,0.2,1.2c0.1,0.7,0.7,1.3,1.3,1.4
						c0.6,0.1,1.3-0.4,1.5-1c0.1-0.2,0.1-0.5,0.3-0.6c0.4-0.4,1.1,0,1.3,0.5s0.5,1.2,1,1.4c0.6,0.2,1.2-0.4,1.3-1
						c0.1-0.7-0.2-1.4-0.7-1.8c-0.3-0.3-0.7-0.6-0.7-1.1c0-0.7,1-1.2,0.8-1.9c-0.3-0.6-1.4-0.3-1.6-0.9c0.6-0.7,1.5-1,2.4-0.9
						c-0.7-0.5-0.4-2,0.4-2.1c0.6-0.1,1.2,0.5,1.8,0.4c0.7-0.1,1.2-1.1,0.8-1.8c-0.2-0.4-0.6-0.6-0.9-0.9c-0.3-0.3-0.4-0.9-0.2-1.2
						c0.4-0.4,1.1,0.2,1.6-0.1c0.6-0.3,0.3-1.3,0.4-2c0.1-0.8,0.9-1.3,1.7-1.3c0.7,0,1.4,0.4,2,0.7c0.6,0.3,1.3,0.9,1.2,1.6
						c-0.1,0.5-0.5,0.8-0.7,1.2c-0.3,0.4-0.3,1.1,0.1,1.3c0.2,0.1,0.5,0,0.7,0.1c1.2,0.3-0.1,3,1,3.6c1.2,0.5,1.8-2.8,2.9-2.1
						c-0.3,0.6,0.6,1.2,1.1,0.9c0.6-0.3,0.9-1,1.5-1.3c0.7-0.3,1.5,0,1.8,0.7c0.3,0.7,0,1.7-0.6,2.1c-0.4,0.2-0.9,0.3-1,0.8
						c0,0.3,0.2,0.6,0.3,0.9c0.4,0.8,0.1,1.8,0,2.7c-0.1,0.9,0.2,2.1,1,2.2c0.6,0.1,1.2-0.5,1.8-0.6c1.1-0.2,2,1,2.6,2
						c0.1,0.2,0.3,0.5,0.4,0.7c0.3,0.6,0.7,1.3,0.7,2c-0.6,0.3-1.3,0-2,0c-0.7,0-1.5,0.4-1.5,1.2c0.1,0.7,0.8,1,1.4,1.1
						c0.6,0-3.2,1.3-2.7,1.8c0.4,0.4,0.5,1,0.8,1.6c0.2,0.5,0.8,1,1.3,0.8c0.3-0.2,0.4-0.5,0.7-0.8c0.3-0.2,0.6-0.3,1-0.3
						c0.7,0,1.5,0.7,1.2,1.3c-0.1,0.2-0.4,0.4-0.5,0.6c-0.6,1,1.5,2,1,3.1c-0.6-0.1-1.2-0.1-1.7,0.3s4.2,0.1,4.7,0.1
						c-0.6,0.8-2.1-0.1-2.6,0.8c-0.3,0.6,0.2,1.4,0.8,1.5c0.6,0.2,1.3,0.1,1.8,0.4c0.7,0.4,1.1,1.2,1.7,1.8c0.6,0.5,1.8,0.5,1.9-0.4
						c0-0.4-0.3-0.9-0.2-1.3c0.2-0.9,1.3-0.5,2,0c0.6,0.5,1.8,0.9,2,0c0.2-0.8-1-1.8-0.4-2.3c0.6-0.6,1.6,1.2,2.2,0.6
						c0.2-1.2-0.4-2.5-1.4-2.9c0.3-0.3,0.6-0.5,0.9-0.8c-0.9-0.4-1.4-1.5-1.3-2.5c0.8,0.5,1.5,0.9,2.3,1.4c0.5-0.3,0.2-1.1-0.2-1.6
						c-0.4-0.5-0.8-1.1-0.4-1.6c0.4-0.5,1-0.1,1.5,0.3c0.4,0.4,1.2,0.7,1.5,0.1c-0.4-0.6-0.5-1.4-0.2-2.1c0.1-0.3,0.4-0.6,0.3-1
						c-0.1-0.7-1.1-0.6-1.6-1.1c-0.7-0.7,0-2,0.9-2.1c0.9-0.1,1.7,0.6,2.4,1.2c0.3-0.8-0.1-1.9-0.7-2.4c0.5-0.3,1.1-0.5,1.6-0.8
						c0.3-0.9-1.7-1.1-1.5-2.1c0.1-0.6,1-0.5,1.5-0.2c0.5,0.4,1.2,0.8,1.6,0.3c0.3-0.3,0.2-0.9,0.2-1.3s0.3-1.1,0.7-1
						c0.6,0.1,1.1-0.8,0.8-1.4c-0.2-0.7-0.8-1.1-1.3-1.4c-0.4-0.3-0.9-0.6-1.4-0.6c-0.3,0-0.5,0-0.8-0.1c-0.4-0.1-0.6-0.6-0.6-1.1
						c0-0.5,0.1-0.9,0.3-1.4c0.5,0.4,1,0.7,1.5,0.7c0.6-0.1,1-0.9,0.6-1.4c-0.2-0.3-0.6-0.3-0.8-0.5c-0.4-0.2-0.6-0.8-0.5-1.2
						s0.5-0.8,0.9-0.9c-0.3-0.2-0.7-0.3-0.9-0.6c-0.2-0.3-0.3-0.8-0.1-1.1c0.1-0.2,0.3-0.2,0.4-0.4c0.1-0.3-0.2-0.6-0.5-0.7
						s-0.7-0.1-0.8-0.4c-0.3-0.5,0.2-1.1,0.5-1.4c0.4-0.4,0.8-1,0.5-1.4c-0.1-0.1-0.3-0.2-0.4-0.4c-0.1-0.3,0.3-0.6,0.6-0.6
						c0.3,0.1,0.5,0.4,0.8,0.6c0.3,0.2,0.7,0.3,0.9,0c0.2-0.2,0.1-0.5,0.1-0.8c-0.2-0.9-0.3-1.8-0.5-2.7c0-0.1,0-0.3-0.1-0.4
						c-0.4-0.8-1.7,0.3-2.3-0.3c-0.2-0.2-0.2-0.6-0.4-0.9c-0.5-1-2,0.1-2.9-0.5c-0.6-0.4-0.7-1.4-0.4-2c0.3-0.7,1-1,1.7-1.2
						c-0.4-0.1-0.3-0.7-0.1-1.1c0.2-0.3,0.6-0.8,0.4-1.2c-0.1-0.2-0.2-0.3-0.3-0.4c-0.3-0.4-0.3-0.9-0.1-1.3
						c0.3-0.4,0.8-0.5,1.1-0.3c0.2-0.4,0.2-1,0-1.5c-0.6,0.2-1.4-0.4-1.4-1.1c-0.4,0.6-1.5,0.3-1.6-0.4c-0.1-0.4,0-0.8-0.2-1.1
						c-0.3-0.4-0.8-0.1-1.3,0c-0.4,0.1-1.1-0.3-0.8-0.7c-0.1,0.4-0.7,0.3-0.9-0.1s-0.2-0.8-0.4-1.2c-0.1-0.2-0.2-0.3-0.2-0.5
						c-0.1-0.6,0.7-0.9,1.2-1.1c0.5-0.2,1.4-1.3,1.1-1.9c-0.1,0.2-0.3,0.3-0.4,0.5c0.1-0.4,0-0.8-0.2-1.1c-0.3-0.3-0.7-0.3-0.9,0
						c-0.2,0.3-0.2,0.8-0.5,0.8c-0.4,0-0.4-0.8-0.8-1c-0.6,0.7-1.5,1-2.3,0.8c-0.2-0.7,0.5-1.8-0.1-2.2c-0.4-0.3-1,0.1-1.4-0.3
						c-0.4-0.4,0.1-1.1,0.5-1.4c-0.2-0.2-0.4-0.5-0.4-0.8c0.3-0.1,0.6-0.2,0.8-0.5c0.2-0.3,0.2-0.7-0.1-0.9
						c-0.5-0.2-1.1,0.6-1.4,0.1c-0.1-0.1-0.1-0.3-0.1-0.5c0-0.7-0.7-1-1.2-1.3c0.3,0.1,0.7-0.3,0.8-0.6c0.1-0.4,0.1-0.8,0.3-1.2
						c0.2-0.5,0.8-0.6,1.1-1c0.3-0.4,0.3-1.3-0.2-1.2c-0.3,0.5-0.9,0.7-1.4,0.5c-0.3-0.1-0.6-0.4-1-0.3c-0.5,0.2-0.4,1.4-1,1.4
						c-0.5,0-0.6-0.7-1-0.9c-0.3,0.3-0.4,0.8-0.6,1.2c-0.2,0.4-0.6,0.8-1,0.6c-0.6-0.2-0.5-1.1-0.2-1.8c-0.8,0.1-1.5-1-1.2-1.8
						c0.4,0.1,0.8,0,1.1-0.3c-0.3,0-0.5-0.5-0.4-0.8c0.1-0.4,0.4-0.6,0.5-1s0-0.9-0.3-0.9c-0.3,0-0.5,0.2-0.7,0.5
						c-0.2,0.2-0.6,0.4-0.7,0.1c0.3-0.5,0.5-1.1,0.6-1.7c-0.4,0-0.6,0.5-0.8,0.8c-0.3,0.3-0.9,0.3-0.8-0.2c0.3,0,0.4-0.5,0.2-0.8
						c-0.2-0.3-0.5-0.4-0.7-0.5c-0.2-0.2,0-0.6,0.2-0.8c0.2-0.2,0.6-0.3,0.6-0.6c0-0.3-0.2-0.5-0.1-0.8c0.1-0.5,0.9-0.7,0.7-1.1
						c-0.1-0.1-0.6,0.5-0.5,0.4c0.5,0,0.9-0.7,0.7-1.2c-0.2-0.5-0.9-0.7-1.2-0.3c-0.1-0.7-0.5-1.3-1-1.6c-0.4,0.8-1,1.3-1.8,1.6
						c0.5-0.6,0.1-1.6-0.3-2.2c-0.5-0.7-1-1.3-1.7-1.4c-0.7-0.1-1.6,0.7-1.3,1.5c-0.7-0.4-1.5-0.5-2.2-0.4c-0.3-0.8-0.9-1.5-1.6-1.9
						c0.6-0.1,1.2-0.3,1.6-0.8c0.4-0.5,0.4-1.4-0.1-1.7c-0.7-0.4-1.5,0.5-2.2,0.3c-0.1-0.7-0.2-1.3-0.3-2c-0.8,0.2-1.6,0.3-2.4,0.1
						c-0.3-0.7-0.8-1.3-1.4-1.6c0.6-0.1,1.3,0.1,1.9,0c0.6,0,1.3-0.4,1.5-1.1c0.2-0.8-0.9-1.6-1.5-1.1c-0.4-0.9,1.4-1.7,1-2.6
						c-0.3-0.6-1.1-0.3-1.6,0.1c-0.5,0.4-1.1,1-1.6,0.6c-0.4-0.3-0.4-1-0.6-1.5c-0.2-0.5-1.2-0.5-1,0c0.1,0.6,0.3,1.1,0.4,1.7
						c-0.5-0.3-1-0.6-1.6-0.5c-0.5,0.2-0.8,1.2-0.3,1.4c0.1,0.1,0.3,0.1,0.4,0.1c0.7,0.3,0.2,1.6-0.5,1.6c-0.7,0-1.3-0.6-1.7-1.2
						c0.2,0.9-0.6,1.9-1.5,1.8c-0.8-0.1-1.4-1.3-1-2.1c-0.8,0.4-1.7,0.4-2.5,0.2c-0.1-0.3-0.1-0.1,0.2-0.2c-0.3-0.3-0.4-0.8-0.4-1.2
						c0.9,0.1,1.8,0.2,2.6-0.2c0.8-0.3,1.5-1.3,1.4-2.2c-1.1-0.6-1.9-2.1-1.9-3.5c-0.9,0.5-1.7,1.3-2.3,2.3c0-0.8-0.1-1.6-0.1-2.4
						c-0.7,0.6-1.5,1.1-2.4,1.3c0.4-0.9,0.4-2,0-2.8c-1-0.1-1.7,1.7-2.6,1.4c-0.6-0.2-0.7-1.1-0.5-1.8c0.2-0.7,0.5-1.4,0.3-2
						c-0.8-0.1-1.5,1.4-2.1,0.9c-0.5-0.4-0.1-1.3,0.4-1.8c0.5-0.5,0.9-1.5,0.3-1.8c-1.1,1.1-2.8,1.4-4.1,0.7c0.6-0.4,0-1.6-0.8-1.5
						c-0.7,0.1-1.2,0.8-1.7,1.4c-0.5,0.6-1.3,1.1-1.9,0.7c-0.6-0.4-0.6-1.3-1-2c-0.3-0.7-1.5-0.9-1.5-0.1c0,0.8-0.1,1.5-0.1,2.3
						c-0.8-0.2-1.7-0.5-2.5-0.7c-0.6,0.9,0.2,2.1,0.8,3c0.5,0.9,0.4,2.7-0.6,2.6c-0.7-0.1-0.9-1.1-0.9-1.9c-0.4,0.5-0.9,0.9-1.5,1
						c-0.6,0.1-1.3-0.6-1.1-1.2c-0.5,0.6-1.5,0.7-2.1,0.1c0.5-0.7,1-1.6,0.8-2.4s-1.3-1.5-1.7-0.8c-0.4,0.6,0,1.4-0.4,2
						c-0.5,0.7-1.5,0.2-2.1-0.3c0.5,1.3-0.8,3-2.1,2.6c-0.4-0.1-0.8-0.4-1.2-0.4c-1.2,0.1-1.5,2.6-2.7,2.5c-0.8-0.1-1.1-1.3-1.9-1.4
						c-0.2,0.7-0.5,1.4-1,1.8s-1.4,0.3-1.7-0.3c-0.2-0.6,0.1-1.5-0.3-2c-0.3-0.4-1-0.2-1.3,0.2c-0.3,0.5-0.3,1.1-0.3,1.7
						c-0.8-0.4-1.7-0.6-2.6-0.4c-0.5,0.7,1,1.1,1.4,1.9c0.3,0.6-0.2,1.3-0.8,1.4c-0.6,0.1-1.1-0.2-1.6-0.6c0.1,0.5,0,1.1-0.4,1.5
						c-0.3,0.4-1,0.4-1.3,0c-0.4-0.6,0.1-1.7-0.4-2.3c-0.5-0.5-1.3,0.2-1.6,0.8c-0.3,0.6-0.9,1.4-1.5,1.2c-0.6-0.2-0.6-1.1-0.5-1.8
						c-0.8-0.3-1.7,0.4-1.8,1.3c0.9,0.2,1.6,1.2,1.5,2.2c-0.9-0.2-1.7-0.4-2.6-0.6c0.4,1.1,1.1,2,2,2.6c-0.6,0.6-1.4,1-2.2,1.1
						c0.2,0.6,0.5,1.2,0.4,1.8c-0.2,1.5-1.8,1.1-2.6,1.6c0.7,0.4,1.1,2,1.6,2.2c-0.6-0.3-1.1,0.7-1.2,1.4c-0.1,0.7-0.7,1.7-1.2,1.2
						c0-0.7-0.3-1.3-0.8-1.7c-0.3,0.7-1.2,1.1-1.9,0.7c0.4-0.7,0.1-1.7-0.5-2c-0.6-0.3-1.5,0.1-1.7,0.9c-0.1,0.4,0,0.9-0.3,1.2
						c-0.4,0.6-1.4,0.3-2,0.7c-0.6,0.5-0.4,1.5,0.1,2c0.5,0.5,1.2,0.7,1.9,0.8c-0.6,0.1-1.1,0.3-1.7,0.4c0.1,0.3,0.3,0.7,0.4,1
						c1.4-0.1,3.1-0.1,4,1.1c0.2,0.2,0.3,0.4,0.3,0.7c0,0.9-1,1.2-1.7,1c-0.7-0.2-1.6-0.5-2.2-0.1c-0.7,0.5-0.7,1.7-0.7,2.7
						c0,1-0.3,2.3-1.2,2.3c0.1-1.2-1.1-2.3-2.1-2c0.2,1.1,0,2.2-0.5,3.1c-0.5-1.3-2.2-1.5-3-0.5c-0.8,1-0.3,2.9,0.9,3.3
						c-1.2,0.3-2.6,1-2.5,2.4c2.2-0.2,4.4,1.2,5.3,3.4c-1.1,0.2,0.1,2.9-1,3.4c-0.7,0.3-1.2-0.8-1.2-1.6c-0.1-0.8-0.5-1.9-1.2-1.7
						c-0.4,0.2-0.6,0.8-1,1.1c-0.6,0.4-1.4-0.3-2-0.7s-1.8-0.2-1.6,0.6c0.8-0.4,1.6,0.9,1.3,1.8c-0.4,0.9-1.4,1.2-2.3,1.1
						c0.6,0.6,1.2,1.2,1.3,2c0.1,0.8-0.4,1.9-1.2,1.7c-1-0.2-1-1.9-1.8-2.5c-0.8-0.7-2.1,0.3-2.1,1.4c0,1.1,0.9,2.1,1.9,2.4
						c-0.3,1.4-2.4,0.8-3.3,1.8c-0.3,0.3-0.5,0.8-0.6,1.3c-0.5,1.6-1,3.2-1.5,4.7c1.1,0.5,1.9,1.7,1.9,3.1c-1.2-0.1-3.1,0.3-2.8,1.7
						c0.2,1.4,2.6,1.9,2.2,3.3c-1,0.2-2.3,1-1.9,2c0.1,0.4,0.5,0.7,0.8,1c0.5,0.7,0.5,1.9-0.2,2.5c-0.2,0.2-0.5,0.4-0.6,0.8
						c-0.3,1.1,1.8,1.3,1.9,2.5c0.1,0.8-0.9,1.2-1.6,1.3c-0.7,0.1-1.7,0.6-1.5,1.4c0.5,0.5,0.7,1.2,0.7,1.9c-1.1,0.4-2.6,1.5-2,2.6
						c0.4,0.7,1.5,0.8,1.8,1.6c0.1,0.4,0,0.8,0,1.2c0,1.3,1.1,2.5,2.3,2.3c-1.1,0.6-0.9,2.9,0.3,3.2c-0.2,0-0.2-0.5,0-0.5
						c0.2-0.1,0.5,0.1,0.6,0.3c-0.5,1.4,0.6,3.2,1.9,3.1c-1.1,0.6-2.1,1.3-3.2,1.9c0.2,1,0.8,1.8,1.6,2.2c-0.6,0.2-1.1,0.5-1.7,0.7
						c-0.2,0.7,0.4,1.4,0.9,1.8c0.7,0.6,1.5,1.2,2.3,1.4c0.9,0.2,1.9,0,2.4-0.8c0.3-0.6,0.5-1.4,1.1-1.5c0.6-0.1,0.9,0.7,1.5,1
						c0.8,0.4,1.9-0.4,2.4,0.4c0.3,0.5-0.1,1.3-0.6,1.4c-0.5,0.2-1.1-0.1-1.6-0.3c-0.3,0.6-0.2,1.4,0.3,1.8c-0.6,0.5-1.3,1-1.9,1.5
						c0.6,0.9,1.2,1.9,1.8,2.8c-0.6,0-1.2,0.5-1.3,1.1c1.3,0.2,2.7,0.5,3.5,1.6c0.3,0.4,0.5,1,0.8,1.3c0.7,0.8,2.2,0.4,2.5-0.7
						c0.1-0.4,0.1-0.8,0.4-1.1c0.8-0.9,2.2,1.1,3.2,0.5c0.6-0.4,0.4-1.5,0.8-2.2c0.5-0.8,2.3-3.5,2.9-2.8s-0.7-0.6,0,0
						c0.7,0.6,1.9,0.6,2.2-0.3c0.1-0.4,0-1,0.3-1.4c0.7-1.1,2.6,1.2,3.3,0.1c-0.2-0.7,0.7,3.4,1.3,3c0.9-0.6,2.4,1.3,3,0.3
						c0.3-0.5,0-1.1,0.1-1.7c0.4-1.7,3.2,0.2,4.2-1.2c-0.5-1.1-0.5-2.6,0.1-3.7c0.4,0.3,0.9,0.6,1.3,0.9c0.5-1.2,1.1-2.4,1.6-3.6
						c0.1-0.2,0.2-0.4,0.4-0.5c0.2-0.1,0.5,0.1,0.7,0.3c0.8,0.6,1.9,0.6,2.7,0c-0.6,1.3,1.1,2.6,2.3,2.2s2.1-1.6,3.3-2.3
						c-0.2,0.6,0,1.4,0.5,1.6s1.2,0,1.5-0.5c0.4-0.8,0.4-2.2,1.1-2c0.5,0.1,0.8,0.8,1.2,0.6c0.3-0.2,0.3-0.6,0.4-1
						c0.3-0.9,1.4-0.8,2.2-0.6c0.8,0.2,1.9,0,2-0.9c0-0.8-0.9-1.3-1.1-2.1c-0.2-0.8,0.9-1.5,1.5-1c0-0.5,0.1-1,0.1-1.5
						c0.3-0.2,0.6-0.3,0.9-0.5c0.3,0.7,1.1,1.2,1.8,1.1c0.1-1.3,0.7-3.1,1.9-2.7c0.3,0.1,0.6,0.4,0.9,0.4c0.6,0.1,1.1-0.6,1.1-1.3
						c0-0.7-0.4-1.2-0.7-1.8c0.7,0.3,1.4,0.5,2.1,0.3c0.7-0.2,1.3-1.1,1-1.8c-0.1-0.3-0.4-0.6-0.4-0.9c0-0.5,0.6-0.8,1-0.6
						c0.4,0.2,0.7,0.7,0.9,1.1C382,293.9,381.7,292.8,381.5,292.5z"/>
					<path class="st11" d="M377.3,335.3c0,0,8.1,3,23.6,0c0,0-7.3,10.5-11.8,10.5C389.1,345.8,383.7,345.8,377.3,335.3z"/>
					<path id="L_Ear_00000001634993501305504360000014636621248958192288_" class="st12" d="M339.1,314.4c-0.4-0.7-0.8-1.3-1.4-1.8
						c-0.7-0.7-1.8-1.2-2.6-0.7c-0.6,0.5-0.7,1.4-0.6,2.2c0.2,1.7,0.6,3.4,1.4,4.9c0.7,1.4,1.6,2.7,3,3.4c0.1,0.1,0.3,0.1,0.5,0.1
						c0.2,0,0.4-0.2,0.4-0.4"/>
					<path id="R_Ear_00000101092446957979388340000018140170574433964169_" class="st12" d="M422.7,314.4c0.4-0.7,0.9-1.3,1.5-1.8
						c0.8-0.7,2-1.2,2.8-0.7c0.7,0.5,0.7,1.4,0.7,2.2c-0.2,1.7-0.7,3.4-1.5,4.9c-0.7,1.4-1.7,2.7-3.2,3.4c-0.2,0.1-0.3,0.1-0.5,0.1
						c-0.2,0-0.4-0.2-0.4-0.4"/>
					<g id="Mic_00000032606939343265593030000003639993699860947642_">
						<path class="st13" d="M379.8,341.8c-39,3.4-42.4-24.5-42.4-24.5s-1.6,0.9-2.8-0.3"/>
						
							<ellipse transform="matrix(0.9983 -5.883572e-02 5.883572e-02 0.9983 -19.4532 22.9395)" class="st14" cx="379.8" cy="341.8" rx="6" ry="2.5"/>
					</g>
				</g>
			</g>
		</g>
	</g>
	<g id="Chair">
		<path class="st15" d="M710.7,563.5H528.1c-5.4,0-9.8,4.4-9.8,9.8v183h202.1v-183C720.4,567.9,716.1,563.5,710.7,563.5z"/>
		<path class="st15" d="M710.2,581.4c0,0,3,6.8,1.5,10.5"/>
	</g>
	<g id="Window">
		<g id="Frame">
			<rect x="556.7" y="241.2" class="st16" width="446.5" height="275.3"/>
			<rect x="563" y="248.3" class="st12" width="433.9" height="261.1"/>
		</g>
		<g id="Mask">
			<defs>
				<rect id="SVGID_00000181803025866867331840000016887909369747433406_" x="563" y="248.3" width="433.9" height="261.1"/>
			</defs>
			<clipPath id="SVGID_00000029766962725043257160000007480145853737275070_">
				<use xlink:href="#SVGID_00000181803025866867331840000016887909369747433406_"  style="overflow:visible;"/>
			</clipPath>
			<g id="Foliage" style="clip-path:url(#SVGID_00000029766962725043257160000007480145853737275070_);">
				<path class="st18" d="M996.5,282.8c0,5.4,0,10.8,0,16.2c0,17.2,0,34.5,0,51.7c0,6.8,0,13.6,0,20.4c0,2.8,0.5,4.7,0.4,10.2
					c-0.1,3.6-1.3,0.4-3.2,1.1c-1.1,0.4-4.5,3.3-5.5,3c-1.1-0.3-1.3-1.6-1.8-2.7c-0.4-1-2-1.8-2.5-0.8c0.9,1.5,0.5,3.5-0.9,4.6
					c-1.4,1-3.5,0.8-4.6-0.5c0.1,0.7,1.2,0.7,1.6,0.1s0.1-1.4-0.1-2c-2.3,0.4-4.5,1.7-5.9,3.6c0.4-1.5-0.9-3.2-2.5-3.2
					c1.3,1.6-1.4,4.1-2.9,2.8c-0.7-0.6-0.9-1.6-1.4-2.3c-0.5-0.7-1.8-1.2-2.2-0.4c0.3,1.4,0.2,2.9-0.3,4.3c-1.1-1.1-2.5-1.8-4-2.2
					c-0.7,1-0.7,2.4,0,3.4c-1.1,0-2.2-0.1-3.2-0.1c1.3,2.6,3,4.9,5.1,6.9c1.4,1.3,3.1,2.6,3.6,4.5s-1.1,4.4-3,3.7
					c1,2.1-1.3,4.9-3.6,4.3c0-0.9-0.7-1.7-1.6-1.9c-0.1,2-2.5,3.6-4.4,2.8c0.2-1.4,0.5-2.8,0.7-4.3c-0.8,1.3-2.1,2.3-3.5,2.7
					c-0.2-1.7-0.4-3.3-0.7-5c-0.8,0.4-1.3,1.2-1.3,2.1c-0.6-0.3-1.3-0.5-1.9-0.8c0.8-1.5,1.2-3.2,1-4.9c-1.6,0.1-2.9,1.7-2.7,3.3
					c-1.8-0.4-2.5-3.4-4.2-2.9c-1.1,0.3-1.3,1.8-0.8,2.9c0.5,1,1.3,1.9,1.5,3c0.2,1.1-0.9,2.5-1.9,2c0.7,1.1,1.5,2.1,2.2,3.2
					c-1.3-0.7-3.1-0.4-4.1,0.6c2.4,2.3,4.7,4.8,5.6,8c0.7,2.3,0.2,5.4-2,6.4c-0.3-1.3-0.9-2.6-1.8-3.6c-0.2,0.7-0.5,1.5-0.7,2.2
					c0.3-2.5-3-4.6-5.1-3.1c-1.6,0.9-3.2,1.8-4.8,2.7c1.1,0.6,2.2,1.1,3.2,1.7c-1.2,0.6-0.7,2.6,0.2,3.7s1.9,2.5,1.2,3.7
					c-0.3,0.6-1,0.9-1.2,1.5c-0.2,0.9,0.6,1.6,1.3,2.3c0.6,0.7,0.8,2.1-0.1,2.2c1.5,0.2,3.1,0.8,3.7,2.2c0.6,1.4-0.5,3.4-2,3
					c-0.2,1,0.5,2,1.5,2.3c-0.5,1.6-1,3.2-1.5,4.7c-2-0.6-3.9-1.5-5.6-2.8c1.1,1.3-1.6,2.9-3,1.9s-1.8-2.9-2.9-4.2
					c-0.6,1-1.3,2-1.9,3c0.4-1.6-0.9-3.4-2.5-3.6c0,1.2-0.1,2.3-0.1,3.5c-1.9-1.2-4.4-1.3-6.4-0.3c-0.3,1.1-1.7,1.9-2.8,1.6
					c0.6,1.3,1.9,2.3,2.7,3.5s0.8,3.2-0.5,3.9c-0.9,0-1.9-0.1-2.8-0.1c-0.3,1-1.8,0.7-2.1,1.7c-0.4,1.4-1.1,2.8-2.4,3.3
					s-3.1-0.9-2.5-2.2c-0.7,1-2.1,1.1-3.2,0.6c-1.1-0.5-1.8-1.4-2.5-2.4c0.1,1.5,0.1,3.2-0.9,4.3s-3.4,0.7-3.4-0.8
					c0-0.5,0.3-1,0-1.4c-0.6-1.1-2.1,0.7-3.3,0.8c-1.3,0-1.6-1.7-1.7-3s-1.5-2.8-2.4-1.9c-0.3,0.3-0.3,0.7-0.4,1.1
					c-0.2,1.2-0.5,2.5-1.3,3.5s-2.3,1.4-3.4,0.7c0.6-1.5,3.1-3.3,1.6-4.1c-1.5,0.8-3.2-0.9-3.7-2.5c-0.5-1.6-0.5-3.5-1.6-4.8
					s-4-0.9-3.7,0.8c2.2,2.3,1.3,6.8-1.7,8c0.2,2.6,2.7,4.2,4.7,5.8c2.3,1.7,5.5,6.1,1.1,5.8c-1.5-0.1-5.5-7.4-6-2.3
					c-0.1,1.1,0.2,2.3-0.1,3.4c-1-0.2-1.8-1.2-1.7-2.2c-1.4-0.8-3.4,0.9-2.8,2.4c0.5,1.2,2,1.7,3,2.4c1.1,0.8,1.5,2.8,0.2,3.2
					c-0.4,0.1-0.8,0-1.2,0.1c-1.4,0.3-1,2.4-0.2,3.6c0.8,1.2,1.5,3.1,0.2,3.7c-1.1,0.1-2.1,0.1-3.1,0.3c0.2,0.7-0.2,2.7,0.1,3.5
					c-3.8-1-5.8,1.1-7.2,4.4c-0.9,2.2-4,4.5-5.4,2.5c-0.4-1.8-2-3.4-3.9-3.7c-0.1,1.2-0.2,2.5-0.9,3.5c-0.7,1-2.2,1.5-3.2,0.7
					c-0.9-0.8-0.7-2.3-1-3.5s-2.2-2.1-2.6-0.9c1.5,2.8-1.5,6.7-4.7,6c-0.2-2.1-1-4.1-2.4-5.6c-1.6,1.3-2.5,3.5-2.2,5.5
					c-4.4,0.3-8.9-2.1-11.1-5.9c-0.8,2.2-2.5,4.1-4.6,5.2c-0.4-1-0.7-2-1.1-3c-1.5,0.9-2.7,2.2-3.4,3.8c-1-1-1.9-2-2.9-3
					c-1,2.7-2.2,4.7-3.7,7.1c-0.4,0.6-0.8,1.3-1.5,1.6c-1.3,0.5-2.6-0.8-3-2.1c-0.5-1.3-0.6-2.8-1.5-3.8c-1.6,1.4-3.1,2.7-4.7,4.1
					c-1,0.9-2.4,1.8-3.5,1.1c-1.2-0.7-0.9-2.6-0.8-4c0.1-1.4-1.1-3.4-2.3-2.6c-0.4,0.2-0.6,0.6-0.8,0.9c-0.7,1.3-1.4,2.6-2.1,3.9
					c-1.2,0.5-2.3-1.2-2.1-2.5s1-2.5,0.8-3.8c-1.4,0.1-2.9,0.1-4.2-0.6c-1.3-0.7-2-2.4-1.2-3.6c0.7-0.9,2.1-2.3,1-2.7
					c-0.8,0-1.7-0.1-2.5-0.1c0.2-1.8-0.1-3.6-0.7-5.3c-1.4,0.3-2.2,1.8-3.1,3c-0.9,1.2-2.7,2.1-3.7,1c0.2-1.7,0.4-3.4,0.6-5.1
					c-1.2,0.1-1.8,1.3-2.6,2.2c-0.8,0.9-2.4,1.3-3,0.3c-0.9-1.7,2.8-3,2.2-4.8c-0.3-0.8-1.2-1.1-1.8-1.7c-0.9-0.9-0.8-2.4-0.2-3.4
					c0.6-1.1,1.7-1.8,2.7-2.5c-0.5-0.5-1-1.1-1.6-1.6c-0.9-1.2,1.1-2.4,2.6-2.5c5.8-0.2,0.7-3.4,2.5-5.9c1.4-1.9,5.8-1.9,7.7-3.5
					c0.2-0.2,0.4-0.4,0.6-0.6c1.9-1.6,6.8-6.6,5.6-8.8c1.3-0.8,1.8-2.6,1.1-4c-0.7-1.4-2.4-2.1-3.9-1.5c-1,0.4-1.9,1.3-3,1.5
					c-0.4,0.1-0.9,0-1.3,0.2c-1.3,0.7,0,3.1-1.1,4.1c-1.4,1.3-3.8-2-5.3-0.8c0,2-0.2,3.9-0.6,5.8c-1.2-0.4-0.5-0.6-1.6-1
					c-0.7,1.2-2.3,1.8-3.6,1.4c-0.1-1.4-0.1-2.8-0.2-4.1c-1.7,0.4-3.3,1.5-5,1.9c-1.7,0.4-4-0.3-4.3-2.1c-0.8,2.6-1.7,5.2-2.7,7.7
					c0.2-2.1-2.6-3.8-4.4-2.6c-0.6,0.4-1,1-1.7,1.2c-1.8,0.5-2.7-2.1-2.8-4c-0.9-1-2.2,0.6-3.5,0.8c-1.4,0.2-2.5-1.6-2.1-3
					c0.4-1.4,1.6-2.3,2.8-3.2c-1.3-1.7-2.1-3.9-2.2-6c-0.7,2.2-4.6,1.9-5-0.4c-1.2,1-2.3,2.1-3.5,3.1c0.1-3.8,0.3-7.6,0.4-11.5
					c-0.7,1.3-1.5,2.6-2.8,3.2c-1.3,0.6-3.2,0.1-3.5-1.4c-0.1-0.7,0.2-1.5-0.3-2.1c-0.5-0.7-1.7-0.3-2.2,0.3c-0.6,0.6-0.9,1.5-1.5,2
					c-2.3,2-6.5-1-8.6,1.2c0.3,2.4-0.4,6-2.9,5.7c-1.3-0.2-2.3-1.5-3.6-1.2c-1.6,0.4-1.5,2.6-1.4,4.3s-1.6,3.8-2.7,2.6
					c-0.2-0.2-0.3-0.5-0.5-0.8c-0.9-1.1-2.8-0.3-3.2,1.1c-0.4,1.2,0.1,2.8,0.6,3.9c-2.8,1.7-1.2,3.9-3,6.6c-1.2,1.8-4.3,2.3-5.3,0.4
					c-0.6-1.2-0.2-2.9-1.3-3.7c-1.6-1.2-3.3,1.2-3.9,3.1c-0.6,1.9-2.8,4.1-4.1,2.6c-0.5-2.8-1.1-5.6-1.6-8.3
					c-0.5,2.1-2.3,3.8-4.3,4.2c0.6-2.6,0.4-5.3-0.6-7.8c-1,1.5-3.3,1.9-4.7,0.9c1.4-1.4,1.4-4,0-5.4c-2.4,3.2-8.7,1.5-9-2.6
					c-0.3,1.4-0.7,2.8-1,4.2c-2.8-0.3-5.1-2.8-5.3-5.5c-0.1,2.2-1.9,4.3-4.1,4.7c-0.2-3.1-1.8-6-4.2-7.9c-1.6,0.9-3.4,1.9-5.2,1.8
					s-3.7-1.9-3.2-3.7c0.7-2.5,5-4.2,3.4-6.2c-2.4,0.8-5.2-1.7-4.8-4.2c0.5-2.5,4-3.8,6-2.2c0.9,0.7,1.4,1.8,2.3,2.6
					c2.4,1.9,6.6-0.6,6.1-3.6c1.3,1.4,2.8,2.8,4.6,3.3s4.2-0.4,4.5-2.3c0.6-3.3-4.3-4.2-7.5-3.7c0.8-1.9,1.6-3.8,2.4-5.7
					c-1.8-0.5-3.4-1.9-4.1-3.6c1.8-0.4,3.5-1.2,4.9-2.4c-1.7-0.6-3.4-1.1-5.1-1.7c2.8-2.6,6.4-4.4,10.2-4.9
					c-1.8-0.9-2.6-3.4-1.6-5.2c1.5,2.8,5.6,3.7,8.2,1.9c-2.7-1.3-4.6-4-5.1-6.9c2.4-0.4,4.7-1.6,6.4-3.4c-1.4-1-2-2.9-1.5-4.6
					c-1.9,0.3-3.9-0.1-5.5-1.1c3.4-1.6,6.7-3.1,10.1-4.7c-1.6,1.6,1.6,3.8,3.7,2.9c2-0.8,3.8-2.8,6-2.6c-0.9,3.5,3.2,7.2,6.6,6
					c-0.4-1.5-0.7-2.9-1.1-4.4c2.8,0.1,4.3,3,5.8,5.4s4.4,4.7,6.6,3.2c0.2-1,0.3-2.1,0.5-3.1c3.1,1.1,6.7-2,6.2-5.2
					c1.7,0.6,3.4,1.1,5.1,1.7c1.5-3,3.1-5.9,4.6-8.9c-1.4,0.2-2.8,0.5-4.2,0.7c0.3-1.7,0.5-3.6-0.4-5.1c-0.9-1.5-3.4-2.1-4.3-0.6
					c-0.1-1.7-0.3-3.5-0.4-5.2c-1.8,1-3.6,1.9-5.4,2.9c-0.3-1.1-0.5-2.2-0.8-3.3c-1,2.4-5.5,0.5-4.5-1.8c-2.1-0.1-4.2-0.1-6.2-0.2
					c0-1.3-0.1-2.6-0.1-3.9c1.7-0.1,3.4-0.3,5.1-0.4c-1.3-2.1,0.9-4.8,3.3-5.2c2.4-0.3,4.7,1,6.7,2.2c0.9-0.9,1.3-2.2,1.1-3.5
					c1.5,0.9,3.7-0.9,3.3-2.6c2.1,0.3,4.2,0.5,6.2,0.8c-1.5,3,2.3,7,5.4,5.7c-1.5-0.4-1.2-3,0.2-3.7c1.4-0.7,3.1-0.2,4.6,0.4
					c1.5,0.5,3.2,1.1,4.6,0.4c-0.7-1.1-1.5-2.4-1.4-3.7c0.1-1.3,1.4-2.7,2.7-2.2c0.6-2.4-1.6-5-4.1-4.8c0.6-1.9,0.6-4,0-5.9
					c-1.6,0.8-2.9,2.2-3.6,3.8c-0.5-1-0.9-1.9-1.4-2.9c-2.3,1.9-6.4-1.2-5.2-3.9c-1.9,0.8-3.8,1.7-5.6,2.5c0-1.4,0-2.7,0-4.1
					c-1.3,0.5-2.8,0.6-4.1,0.3c-0.2-1.3,0.1-2.6,0.7-3.7c-1.1-0.2-2.2-0.4-3.3-0.6c-0.4-1.2-0.2-2.5,0.5-3.6c2.8,1,5.6,1.5,8.6,1.7
					c-0.2-1.5,0.2-3.1,1.1-4.3c1.1,1.6,3.3,2.4,5.2,1.7c-2-2.6-0.7-7,2.3-8.1c-2,0-4-0.1-6-0.1c0.5-1.5,1-3,1.5-4.5
					c-1.9,0.8-3.8,1.7-5.7,2.5c-0.1-1.4-0.2-2.7-0.2-4.1c-1.7,0.6-3.5,1.1-5.2,1.7c-0.3-1.1-0.1-2.2,0.5-3.1c-1.3,0.8-3.1,0.4-4-0.8
					c1.1-1.1,1.8-2.5,1.9-4.1c-1.5-0.4-3.1-0.8-4.6-1.2c-0.3-1.4,1.5-2.7,2.8-2.1c0.7-1,0.8-0.3,1.6-1.2c0.4-0.5,0.2-1.1,0.1-1.7
					c-0.2-1.8,1.7-3.6,3.5-3.3c-0.3-0.7-3.2-1.7-3.7-1.2c-0.5,0.5-1,1.2-1.8,1.1c-1.2-0.1-1.2-2.1-2.4-2.6c-1.5-0.6-2.9,2.1-4.3,1.3
					c-0.7-0.4-0.7-1.5-1.2-2.2c-0.7-1.1-2.4-0.9-3.6-0.4c-1.2,0.5-2.3,1.3-3.6,1.3c-1.3-0.1-2.5-1.7-1.6-2.6c-1.5-0.2-3-1.1-3.8-2.5
					c0.9-0.5,1-1.8,0.6-2.7c-0.4-0.9-1.3-1.6-2.1-2.2c0.8,0.4,1.6-0.9,1.2-1.7c-0.4-0.8-1.3-1.2-2-1.9s-1-1.9-0.2-2.4
					c0.6,0.9,2-0.4,1.6-1.4c-0.4-1-1.4-1.4-2.2-2.1c-1.7-1.5-1.8-4.1-1.9-6.3c0.8-0.6,1.7,0.7,2.6,0.9c0.8,0.2,1.6-0.6,1.8-1.5
					s-0.1-1.7-0.4-2.5c0.1-1.1,2-0.7,2.5,0.4s0.4,2.4,1.4,3.1c0.7-0.9,1.6-1.7,2.6-2.1c1.4,1-1,3.3-0.1,4.7c0.7,1.2,2.5,0.4,3.6-0.4
					c1.1-0.8,3.2-1.2,3.5,0.2c0.1,0.4-0.1,0.9-0.1,1.4c0,1.4,2,2.4,3.1,1.5c0.8-0.7,1.1-2.1,2.1-2.4c1.7-0.6,3.8,2.1,4.9,0.7
					c-1.1-2.9-2.6-5.6-4.3-8.2c1.2-0.1,2.4-0.1,3.6-0.2c-0.2-1.2-0.4-2.4,0-3.5s1.5-2.1,2.6-2c0.2-0.8,0.3-1.7,0.5-2.5
					c0.5-0.1,1-0.3,1.5-0.4h233.3h55.3l-0.4,49.7"/>
				<path class="st18" d="M1076.2,120.3c0,8.3,0,16.6,0,24.9c0,26.6,0,53.1,0,79.7c0,10.5,0,21,0,31.5c0,4.3,0.5,7.3,0.4,15.7
					c-0.1,5.5-1.3,0.6-3.2,1.7c-1.1,0.7-4.6,5.1-5.6,4.6c-1.1-0.4-1.4-2.5-1.8-4.1c-0.5-1.6-2.1-2.8-2.6-1.3c0.9,2.2,0.5,5.5-0.9,7
					c-1.4,1.6-3.6,1.2-4.7-0.7c0.1,1.1,1.3,1,1.6,0.1c0.3-0.9,0.1-2.1-0.1-3.1c-2.4,0.6-4.6,2.6-6,5.5c0.4-2.3-0.9-4.9-2.5-4.9
					c1.3,2.4-1.5,6.4-3,4.3c-0.7-0.9-0.9-2.4-1.4-3.5s-1.8-1.8-2.3-0.6c0.3,2.2,0.2,4.5-0.4,6.6c-1.1-1.6-2.5-2.8-4-3.4
					c-0.7,1.5-0.8,3.7,0,5.2c-1.1,0-2.2-0.1-3.3-0.1c1.3,4,3.1,7.6,5.2,10.6c1.5,2,3.2,4,3.7,6.9c0.5,2.9-1.2,6.7-3,5.7
					c1,3.3-1.3,7.5-3.6,6.7c0-1.3-0.7-2.6-1.6-2.9c-0.1,3.1-2.6,5.5-4.5,4.3c0.3-2.2,0.5-4.4,0.8-6.6c-0.8,2-2.1,3.5-3.6,4.2
					c-0.2-2.6-0.5-5.1-0.7-7.7c-0.8,0.6-1.3,1.9-1.3,3.2c-0.6-0.4-1.3-0.8-1.9-1.3c0.8-2.3,1.2-4.9,1-7.5c-1.6,0.2-2.9,2.6-2.7,5
					c-1.8-0.6-2.6-5.2-4.3-4.5c-1.1,0.5-1.3,2.8-0.8,4.4c0.5,1.6,1.3,3,1.5,4.7c0.2,1.7-0.9,3.9-1.9,3.1c0.7,1.6,1.5,3.2,2.2,4.9
					c-1.3-1.1-3.1-0.7-4.2,0.9c2.5,3.5,4.8,7.4,5.8,12.3c0.7,3.6,0.3,8.4-2,9.9c-0.3-2-0.9-3.9-1.8-5.5c-0.2,1.1-0.5,2.3-0.7,3.4
					c0.3-3.8-3.1-7-5.2-4.8c-1.6,1.4-3.3,2.7-4.9,4.1c1.1,0.9,2.2,1.8,3.3,2.6c-1.3,1-0.7,3.9,0.2,5.6c0.9,1.7,2,3.9,1.2,5.8
					c-0.3,0.9-1,1.4-1.2,2.4c-0.2,1.4,0.7,2.5,1.3,3.5c0.6,1,0.8,3.2-0.2,3.4c1.5,0.3,3.2,1.2,3.8,3.3s-0.6,5.2-2,4.6
					c-0.2,1.5,0.5,3.1,1.5,3.5c-0.5,2.4-1,4.9-1.5,7.3c-2.1-0.9-4-2.4-5.7-4.3c1.1,2.1-1.6,4.5-3,3c-1.4-1.5-1.9-4.4-2.9-6.5
					c-0.7,1.6-1.3,3.1-2,4.7c0.4-2.4-0.9-5.2-2.5-5.5c0,1.8-0.1,3.6-0.1,5.4c-1.9-1.8-4.5-2-6.5-0.4c-0.4,1.8-1.7,2.9-2.9,2.4
					c0.7,2,1.9,3.5,2.7,5.4c0.8,1.9,0.8,5-0.5,6c-1-0.1-1.9-0.1-2.9-0.2c-0.3,1.6-1.9,1.1-2.2,2.7c-0.4,2.1-1.1,4.4-2.5,5.1
					c-1.4,0.7-3.2-1.4-2.6-3.4c-0.7,1.5-2.1,1.7-3.2,0.9c-1.1-0.8-1.9-2.2-2.6-3.6c0.1,2.3,0.1,4.9-1,6.6c-1.1,1.7-3.5,1-3.5-1.3
					c0-0.7,0.3-1.5,0-2.1c-0.6-1.7-2.1,1.1-3.4,1.2c-1.3,0-1.6-2.6-1.8-4.6s-1.5-4.3-2.4-2.9c-0.3,0.4-0.4,1.1-0.4,1.8
					c-0.2,1.9-0.5,3.9-1.3,5.4c-0.8,1.5-2.4,2.2-3.4,1.1c0.6-2.4,3.1-5.1,1.7-6.4c-1.6,1.2-3.3-1.4-3.8-3.9
					c-0.5-2.5-0.5-5.4-1.6-7.4s-4-1.4-3.8,1.2c2.3,3.6,1.3,10.5-1.7,12.4c0.2,4,2.7,6.5,4.8,8.9c2.3,2.6,5.6,9.3,1.1,9
					c-1.5-0.1-5.6-11.4-6.2-3.5c-0.1,1.7,0.3,3.5-0.1,5.2c-1-0.3-1.8-1.8-1.7-3.3c-1.4-1.2-3.5,1.4-2.9,3.7c0.5,1.9,2,2.6,3.1,3.8
					s1.5,4.4,0.2,4.9c-0.4,0.1-0.8,0-1.2,0.1c-1.4,0.5-1,3.8-0.2,5.6c0.8,1.8,1.6,4.8,0.2,5.8c-1.1,0.1-2.1,0.1-3.2,0.5
					c0.2,1.1-0.2,4.1,0.1,5.5c-3.8-1.5-5.9,1.6-7.4,6.8c-1,3.5-4.1,6.9-5.5,3.9c-0.4-2.8-2-5.2-3.9-5.7c-0.1,1.9-0.2,3.9-0.9,5.4
					c-0.7,1.5-2.3,2.3-3.2,1.1c-1-1.2-0.7-3.5-1.1-5.3c-0.3-1.8-2.2-3.2-2.6-1.4c1.5,4.4-1.6,10.4-4.7,9.3c-0.2-3.2-1-6.3-2.4-8.7
					c-1.7,2-2.6,5.4-2.3,8.5c-4.5,0.5-9.1-3.2-11.3-9.1c-0.9,3.4-2.6,6.3-4.7,8c-0.4-1.5-0.7-3-1.1-4.5c-1.5,1.3-2.8,3.4-3.5,5.9
					c-1-1.5-2-3.1-2.9-4.6c-1,4.1-2.3,7.3-3.8,11c-0.4,1-0.8,2-1.6,2.4c-1.3,0.7-2.6-1.3-3.1-3.3c-0.5-2-0.6-4.3-1.5-5.9
					c-1.6,2.1-3.2,4.2-4.7,6.3c-1,1.3-2.4,2.8-3.6,1.7c-1.3-1.1-0.9-3.9-0.9-6.1c0.1-2.2-1.1-5.2-2.4-4c-0.4,0.3-0.6,0.9-0.8,1.5
					c-0.7,2-1.4,4-2.1,6c-1.2,0.8-2.3-1.8-2.1-3.8c0.2-2,1-3.9,0.8-5.9c-1.5,0.1-3,0.2-4.3-0.9s-2.1-3.7-1.2-5.5
					c0.7-1.4,2.1-3.5,1.1-4.2c-0.9-0.1-1.7-0.1-2.6-0.2c0.2-2.8-0.1-5.6-0.8-8.2c-1.5,0.5-2.2,2.8-3.2,4.6c-0.9,1.8-2.8,3.2-3.8,1.6
					c0.2-2.6,0.4-5.2,0.6-7.9c-1.2,0.2-1.9,2-2.7,3.3c-0.8,1.3-2.5,2.1-3,0.5c-0.9-2.6,2.9-4.6,2.3-7.4c-0.3-1.2-1.3-1.7-1.9-2.6
					c-0.9-1.3-0.8-3.7-0.2-5.3s1.7-2.8,2.7-3.9c-0.5-0.8-1.1-1.7-1.6-2.5c-0.9-1.8,1.1-3.8,2.6-3.8c5.9-0.3,0.7-5.2,2.5-9.1
					c1.4-3,5.9-2.9,7.8-5.4c0.2-0.3,0.4-0.6,0.6-0.8c1.9-2.5,7-10.2,5.7-13.6c1.3-1.2,1.8-4.1,1.2-6.2c-0.7-2.1-2.5-3.2-3.9-2.4
					c-1.1,0.6-1.9,2-3,2.3c-0.5,0.1-0.9,0-1.3,0.3c-1.3,1.1,0,4.8-1.1,6.3c-1.5,2-3.9-3.1-5.4-1.2c0,3-0.2,6-0.6,8.9
					c-1.2-0.6-0.5-1-1.7-1.6c-0.7,1.9-2.3,2.8-3.6,2.2c-0.1-2.1-0.1-4.2-0.2-6.4c-1.8,0.6-3.3,2.3-5.1,2.9c-1.8,0.6-4.1-0.5-4.4-3.2
					c-0.8,4.1-1.7,8.1-2.8,11.9c0.2-3.3-2.6-5.9-4.4-4c-0.6,0.6-1.1,1.5-1.7,1.8c-1.8,0.8-2.8-3.2-2.8-6.1c-0.9-1.5-2.3,1-3.6,1.3
					c-1.4,0.3-2.5-2.4-2.1-4.6s1.6-3.6,2.8-4.9c-1.3-2.7-2.1-5.9-2.2-9.3c-0.7,3.3-4.7,2.9-5.1-0.6c-1.2,1.6-2.3,3.2-3.5,4.8
					c0.1-5.9,0.3-11.8,0.4-17.7c-0.7,1.9-1.5,4-2.9,4.9c-1.3,0.9-3.3,0.1-3.6-2.1c-0.1-1.1,0.2-2.4-0.3-3.2c-0.5-1-1.7-0.5-2.3,0.4
					s-0.9,2.3-1.6,3.1c-2.3,3-6.6-1.6-8.8,1.8c0.3,3.8-0.4,9.2-2.9,8.7c-1.3-0.2-2.4-2.2-3.6-1.8c-1.6,0.6-1.5,4.1-1.4,6.6
					s-1.6,5.9-2.8,4c-0.2-0.3-0.3-0.8-0.5-1.2c-0.9-1.7-2.9-0.4-3.3,1.6c-0.4,1.9,0.1,4.3,0.7,6c-2.9,2.6-1.2,6.1-3,10.2
					c-1.2,2.7-4.4,3.5-5.4,0.6c-0.6-1.8-0.3-4.5-1.4-5.7c-1.6-1.8-3.4,1.9-4,4.8c-0.6,2.9-2.9,6.3-4.2,4c-0.5-4.3-1.1-8.6-1.6-12.9
					c-0.5,3.2-2.3,5.8-4.4,6.5c0.6-4,0.4-8.2-0.6-12c-1,2.3-3.3,2.9-4.8,1.3c1.4-2.2,1.4-6.2,0-8.4c-2.5,5-8.8,2.2-9.2-4
					c-0.3,2.2-0.7,4.3-1,6.5c-2.8-0.5-5.2-4.3-5.4-8.5c-0.1,3.5-1.9,6.6-4.2,7.2c-0.2-4.7-1.8-9.3-4.3-12.2
					c-1.6,1.4-3.4,2.9-5.3,2.7c-1.9-0.2-3.8-2.9-3.3-5.6c0.7-3.8,5.1-6.5,3.5-9.5c-2.5,1.2-5.3-2.6-4.9-6.5s4-5.9,6.1-3.4
					c0.9,1.1,1.5,2.8,2.4,3.9c2.4,3,6.7-0.9,6.2-5.5c1.4,2.1,2.8,4.3,4.7,5.1c1.9,0.7,4.3-0.7,4.6-3.6c0.6-5-4.4-6.5-7.7-5.8
					c0.8-2.9,1.6-5.9,2.4-8.8c-1.9-0.8-3.4-2.9-4.2-5.6c1.9-0.6,3.6-1.9,5-3.8c-1.7-0.9-3.4-1.8-5.2-2.6c2.8-4.1,6.5-6.8,10.4-7.6
					c-1.9-1.3-2.7-5.3-1.6-8c1.5,4.3,5.7,5.8,8.3,2.9c-2.7-2-4.7-6.1-5.2-10.6c2.5-0.6,4.8-2.5,6.5-5.3c-1.4-1.6-2-4.5-1.6-7.1
					c-1.9,0.4-3.9-0.2-5.6-1.7c3.4-2.4,6.8-4.8,10.3-7.2c-1.6,2.4,1.7,5.8,3.7,4.5c2.1-1.3,3.8-4.3,6.1-3.9
					c-0.9,5.5,3.2,11.1,6.7,9.3c-0.4-2.3-0.7-4.5-1.1-6.8c2.8,0.1,4.4,4.6,5.9,8.3c1.5,3.6,4.4,7.2,6.8,4.9c0.2-1.6,0.3-3.2,0.5-4.8
					c3.1,1.7,6.9-3.1,6.3-8c1.7,0.9,3.5,1.7,5.2,2.6c1.6-4.6,3.1-9.2,4.7-13.7c-1.4,0.4-2.9,0.7-4.3,1.1c0.3-2.7,0.5-5.6-0.4-7.9
					c-0.9-2.3-3.5-3.2-4.4-0.9c-0.1-2.7-0.3-5.4-0.4-8c-1.8,1.5-3.7,3-5.5,4.5c-0.3-1.7-0.6-3.4-0.8-5.1c-1,3.7-5.6,0.8-4.6-2.8
					c-2.1-0.1-4.2-0.2-6.4-0.3c0-2-0.1-4-0.1-6c1.7-0.2,3.5-0.4,5.2-0.6c-1.3-3.2,0.9-7.5,3.3-7.9s4.8,1.5,6.9,3.4
					c0.9-1.4,1.3-3.4,1.2-5.4c1.6,1.3,3.8-1.3,3.3-4c2.1,0.4,4.2,0.8,6.4,1.2c-1.5,4.7,2.3,10.8,5.5,8.7c-1.6-0.7-1.3-4.6,0.2-5.7
					s3.2-0.3,4.7,0.6s3.2,1.7,4.7,0.7c-0.7-1.7-1.5-3.6-1.4-5.7c0.1-2.1,1.5-4.1,2.7-3.3c0.6-3.7-1.7-7.7-4.2-7.3
					c0.6-2.9,0.6-6.1,0-9c-1.6,1.3-2.9,3.4-3.7,5.8c-0.5-1.5-0.9-2.9-1.4-4.4c-2.3,2.9-6.5-1.9-5.3-6c-1.9,1.3-3.8,2.6-5.7,3.9
					c0-2.1,0-4.2,0-6.2c-1.3,0.8-2.8,1-4.2,0.5c-0.2-2,0.1-4,0.7-5.7c-1.1-0.3-2.2-0.6-3.4-0.9c-0.4-1.8-0.2-3.9,0.5-5.5
					c2.8,1.5,5.8,2.4,8.7,2.6c-0.2-2.3,0.2-4.7,1.1-6.6c1.1,2.5,3.4,3.6,5.3,2.6c-2-4-0.8-10.7,2.4-12.5c-2.1-0.1-4.1-0.1-6.2-0.2
					c0.5-2.3,1-4.6,1.6-6.9c-1.9,1.3-3.9,2.6-5.8,3.9c-0.1-2.1-0.2-4.2-0.2-6.3c-1.8,0.9-3.5,1.7-5.3,2.6c-0.3-1.6-0.1-3.4,0.5-4.8
					c-1.3,1.2-3.2,0.7-4.1-1.2c1.1-1.6,1.9-3.9,1.9-6.3c-1.6-0.6-3.1-1.3-4.7-1.9c-0.3-2.2,1.5-4.2,2.8-3.2c0.7-1.5,0.8-0.4,1.6-1.8
					c0.4-0.7,0.2-1.7,0.1-2.7c-0.2-2.8,1.7-5.5,3.6-5.1c-0.3-1-3.3-2.6-3.8-1.8c-0.5,0.8-1.1,1.8-1.8,1.7c-1.2-0.2-1.3-3.3-2.4-4
					c-1.5-0.9-3,3.2-4.4,2.1c-0.8-0.6-0.8-2.3-1.2-3.3c-0.8-1.6-2.4-1.5-3.6-0.6s-2.4,2.1-3.7,2c-1.3-0.1-2.6-2.6-1.7-4.1
					c-1.6-0.3-3-1.7-3.9-3.8c0.9-0.8,1.1-2.7,0.6-4.2c-0.4-1.4-1.3-2.4-2.1-3.3c0.8,0.7,1.6-1.4,1.2-2.7s-1.4-1.9-2-2.9
					c-0.7-1-1-2.9-0.2-3.7c0.6,1.3,2-0.6,1.6-2.1s-1.5-2.2-2.2-3.3c-1.7-2.3-1.9-6.2-1.9-9.7c0.8-0.9,1.7,1.1,2.7,1.4
					c0.9,0.3,1.7-0.9,1.8-2.3c0.2-1.3-0.1-2.6-0.4-3.9c0.1-1.8,2.1-1,2.5,0.6c0.5,1.6,0.5,3.8,1.4,4.7c0.7-1.4,1.6-2.6,2.7-3.3
					c1.4,1.5-1,5-0.1,7.3c0.7,1.8,2.5,0.6,3.7-0.6c1.2-1.2,3.2-1.8,3.5,0.3c0.1,0.7-0.1,1.4-0.1,2.1c0,2.2,2,3.7,3.2,2.3
					c0.8-1.1,1.1-3.2,2.1-3.7c1.7-0.9,3.9,3.3,5,1.1c-1.1-4.4-2.6-8.7-4.4-12.6c1.2-0.1,2.4-0.2,3.7-0.2c-0.2-1.8-0.4-3.7,0-5.4
					s1.5-3.3,2.7-3c0.2-1.3,0.3-2.6,0.5-3.9c0.5-0.2,1-0.5,1.5-0.7l237.7,0l56.4,0l-0.4,76.6"/>
				<path class="st18" d="M1012.2,214.5c0,4.1,0,8.1,0,12.2c0,13,0,26,0,39c0,5.1,0,10.3,0,15.4c0,2.1,0.3,3.6,0.2,7.7
					c0,2.7-0.8,0.3-1.9,0.8c-0.7,0.3-2.7,2.5-3.4,2.3c-0.6-0.2-0.8-1.2-1.1-2c-0.3-0.8-1.2-1.4-1.5-0.6c0.5,1.1,0.3,2.7-0.5,3.4
					s-2.1,0.6-2.8-0.4c0,0.5,0.7,0.5,0.9,0c0.2-0.5,0.1-1-0.1-1.5c-1.4,0.3-2.7,1.3-3.6,2.7c0.2-1.1-0.6-2.4-1.5-2.4
					c0.8,1.2-0.9,3.1-1.8,2.1c-0.4-0.5-0.5-1.2-0.8-1.7s-1.1-0.9-1.4-0.3c0.2,1.1,0.1,2.2-0.2,3.2c-0.7-0.8-1.5-1.4-2.4-1.6
					c-0.4,0.7-0.5,1.8,0,2.6c-0.7,0-1.3,0-2-0.1c0.8,1.9,1.8,3.7,3.1,5.2c0.9,1,1.9,1.9,2.2,3.4c0.3,1.4-0.7,3.3-1.8,2.8
					c0.6,1.6-0.8,3.7-2.2,3.3c0-0.7-0.4-1.3-0.9-1.4c-0.1,1.5-1.5,2.7-2.7,2.1c0.2-1.1,0.3-2.1,0.5-3.2c-0.5,1-1.3,1.7-2.1,2.1
					c-0.1-1.3-0.3-2.5-0.4-3.8c-0.5,0.3-0.8,0.9-0.8,1.6c-0.4-0.2-0.8-0.4-1.1-0.6c0.5-1.1,0.7-2.4,0.6-3.7c-1,0.1-1.7,1.3-1.6,2.5
					c-1.1-0.3-1.5-2.6-2.6-2.2c-0.7,0.2-0.8,1.4-0.5,2.2c0.3,0.8,0.8,1.4,0.9,2.3s-0.5,1.9-1.1,1.5c0.4,0.8,0.9,1.6,1.3,2.4
					c-0.8-0.5-1.9-0.3-2.5,0.4c1.5,1.7,2.9,3.6,3.4,6c0.4,1.8,0.1,4.1-1.2,4.8c-0.2-1-0.5-1.9-1.1-2.7c-0.1,0.6-0.3,1.1-0.4,1.7
					c0.2-1.9-1.8-3.4-3.1-2.4c-1,0.7-1.9,1.3-2.9,2c0.7,0.4,1.3,0.9,2,1.3c-0.8,0.5-0.4,1.9,0.1,2.8c0.5,0.8,1.2,1.9,0.7,2.8
					c-0.2,0.4-0.6,0.7-0.7,1.2c-0.1,0.7,0.4,1.2,0.8,1.7s0.5,1.6-0.1,1.7c0.9,0.1,1.9,0.6,2.3,1.6s-0.3,2.5-1.2,2.2
					c-0.1,0.7,0.3,1.5,0.9,1.7c-0.3,1.2-0.6,2.4-0.9,3.6c-1.2-0.4-2.4-1.2-3.4-2.1c0.7,1-1,2.2-1.8,1.5s-1.1-2.2-1.7-3.2
					c-0.4,0.8-0.8,1.5-1.2,2.3c0.2-1.2-0.5-2.5-1.5-2.7c0,0.9-0.1,1.8-0.1,2.6c-1.1-0.9-2.7-1-3.9-0.2c-0.2,0.9-1,1.4-1.7,1.2
					c0.4,1,1.1,1.7,1.6,2.7s0.5,2.4-0.3,2.9c-0.6,0-1.1-0.1-1.7-0.1c-0.2,0.8-1.1,0.5-1.3,1.3c-0.2,1-0.6,2.1-1.5,2.5
					c-0.8,0.4-1.9-0.7-1.5-1.6c-0.4,0.7-1.3,0.8-1.9,0.5s-1.1-1.1-1.5-1.8c0,1.1,0.1,2.4-0.6,3.2s-2.1,0.5-2.1-0.6
					c0-0.4,0.2-0.7,0-1c-0.4-0.8-1.2,0.6-2,0.6c-0.8,0-1-1.3-1.1-2.2c-0.1-0.9-0.9-2.1-1.4-1.4c-0.2,0.2-0.2,0.6-0.2,0.9
					c-0.1,0.9-0.3,1.9-0.8,2.6s-1.4,1.1-2.1,0.5c0.4-1.2,1.9-2.5,1-3.1c-0.9,0.6-2-0.7-2.3-1.9s-0.3-2.7-1-3.6s-2.4-0.7-2.3,0.6
					c1.4,1.7,0.8,5.1-1,6.1c0.1,1.9,1.6,3.2,2.9,4.3c1.4,1.3,3.3,4.6,0.7,4.4c-0.9-0.1-3.3-5.6-3.7-1.7c-0.1,0.8,0.2,1.7-0.1,2.5
					c-0.6-0.1-1.1-0.9-1-1.6c-0.8-0.6-2.1,0.7-1.7,1.8c0.3,0.9,1.2,1.3,1.8,1.8s0.9,2.1,0.1,2.4c-0.2,0.1-0.5,0-0.7,0
					c-0.9,0.2-0.6,1.8-0.1,2.7c0.5,0.9,0.9,2.4,0.1,2.8c-0.7,0.1-1.3,0-1.9,0.3c0.1,0.5-0.1,2,0.1,2.7c-2.3-0.7-3.5,0.8-4.4,3.3
					c-0.6,1.7-2.4,3.4-3.3,1.9c-0.2-1.4-1.2-2.5-2.3-2.8c-0.1,0.9-0.1,1.9-0.6,2.6c-0.4,0.7-1.4,1.1-1.9,0.5
					c-0.6-0.6-0.4-1.7-0.6-2.6c-0.2-0.9-1.3-1.6-1.6-0.7c0.9,2.1-0.9,5.1-2.8,4.6c-0.1-1.6-0.6-3.1-1.4-4.3c-1,1-1.5,2.6-1.3,4.2
					c-2.7,0.3-5.4-1.6-6.7-4.5c-0.5,1.7-1.5,3.1-2.8,3.9c-0.2-0.7-0.4-1.5-0.7-2.2c-0.9,0.6-1.7,1.7-2.1,2.9
					c-0.6-0.7-1.2-1.5-1.7-2.2c-0.6,2-1.4,3.5-2.2,5.4c-0.2,0.5-0.5,1-0.9,1.2c-0.8,0.3-1.6-0.6-1.8-1.6s-0.3-2.1-0.9-2.9
					c-0.9,1-1.9,2-2.8,3.1c-0.6,0.7-1.5,1.4-2.1,0.8c-0.7-0.6-0.6-1.9-0.5-3c0.1-1.1-0.7-2.5-1.4-2c-0.2,0.2-0.3,0.4-0.5,0.7
					c-0.4,1-0.8,2-1.3,2.9c-0.7,0.4-1.4-0.9-1.2-1.8c0.1-1,0.6-1.9,0.5-2.9c-0.9,0.1-1.8,0.1-2.5-0.4c-0.8-0.5-1.2-1.8-0.7-2.7
					c0.4-0.7,1.3-1.7,0.6-2.1c-0.5,0-1-0.1-1.5-0.1c0.1-1.4-0.1-2.7-0.4-4c-0.9,0.2-1.3,1.4-1.9,2.2c-0.5,0.9-1.6,1.6-2.3,0.8
					c0.1-1.3,0.2-2.6,0.4-3.9c-0.7,0.1-1.1,1-1.6,1.6c-0.5,0.6-1.5,1-1.8,0.2c-0.6-1.3,1.7-2.3,1.3-3.6c-0.2-0.6-0.8-0.8-1.1-1.3
					c-0.5-0.7-0.5-1.8-0.1-2.6s1-1.4,1.6-1.9c-0.3-0.4-0.6-0.8-0.9-1.2c-0.5-0.9,0.7-1.8,1.6-1.9c3.5-0.2,0.4-2.6,1.5-4.5
					c0.8-1.5,3.5-1.4,4.6-2.6c0.1-0.1,0.3-0.3,0.4-0.4c1.2-1.2,4.1-5,3.4-6.6c0.8-0.6,1.1-2,0.7-3c-0.4-1-1.5-1.6-2.3-1.2
					c-0.6,0.3-1.1,1-1.8,1.1c-0.3,0-0.6,0-0.8,0.1c-0.8,0.5,0,2.3-0.7,3.1c-0.9,1-2.3-1.5-3.2-0.6c0,1.5-0.1,2.9-0.4,4.4
					c-0.7-0.3-0.3-0.5-1-0.8c-0.4,0.9-1.4,1.4-2.2,1.1c0-1-0.1-2.1-0.1-3.1c-1.1,0.3-2,1.1-3,1.4s-2.4-0.2-2.6-1.6
					c-0.5,2-1,3.9-1.7,5.8c0.1-1.6-1.6-2.9-2.6-2c-0.4,0.3-0.6,0.7-1,0.9c-1.1,0.4-1.7-1.6-1.7-3c-0.5-0.7-1.3,0.5-2.1,0.6
					c-0.9,0.2-1.5-1.2-1.3-2.2c0.2-1,1-1.8,1.7-2.4c-0.8-1.3-1.3-2.9-1.3-4.5c-0.4,1.6-2.8,1.4-3-0.3c-0.7,0.8-1.4,1.6-2.1,2.3
					c0.1-2.9,0.2-5.8,0.2-8.6c-0.4,0.9-0.9,1.9-1.7,2.4c-0.8,0.5-2,0-2.1-1c-0.1-0.5,0.1-1.2-0.2-1.6c-0.3-0.5-1-0.3-1.4,0.2
					c-0.4,0.5-0.5,1.1-0.9,1.5c-1.4,1.5-3.9-0.8-5.2,0.9c0.2,1.8-0.3,4.5-1.7,4.3c-0.8-0.1-1.4-1.1-2.2-0.9c-1,0.3-0.9,2-0.8,3.2
					s-1,2.9-1.7,2c-0.1-0.2-0.2-0.4-0.3-0.6c-0.5-0.8-1.7-0.2-2,0.8c-0.2,0.9,0,2.1,0.4,2.9c-1.7,1.3-0.7,3-1.8,5
					c-0.7,1.3-2.6,1.7-3.2,0.3c-0.4-0.9-0.2-2.2-0.8-2.8c-1-0.9-2,0.9-2.4,2.4c-0.4,1.4-1.7,3.1-2.5,1.9c-0.3-2.1-0.6-4.2-1-6.3
					c-0.3,1.6-1.4,2.9-2.6,3.2c0.3-1.9,0.2-4-0.4-5.9c-0.6,1.1-2,1.4-2.9,0.7c0.8-1.1,0.8-3,0-4.1c-1.5,2.4-5.3,1.1-5.5-1.9
					c-0.2,1.1-0.4,2.1-0.6,3.2c-1.7-0.2-3.1-2.1-3.2-4.2c0,1.7-1.1,3.2-2.5,3.5c-0.1-2.3-1.1-4.5-2.5-6c-1,0.7-2,1.4-3.2,1.3
					c-1.1-0.1-2.3-1.4-2-2.8c0.4-1.9,3-3.2,2.1-4.7c-1.5,0.6-3.2-1.3-2.9-3.2c0.3-1.9,2.4-2.9,3.6-1.7c0.5,0.5,0.9,1.4,1.4,1.9
					c1.4,1.4,4-0.4,3.7-2.7c0.8,1,1.7,2.1,2.8,2.5c1.1,0.4,2.5-0.3,2.8-1.8c0.4-2.5-2.6-3.2-4.6-2.8c0.5-1.4,1-2.9,1.4-4.3
					c-1.1-0.4-2-1.4-2.5-2.7c1.1-0.3,2.2-0.9,3-1.8c-1-0.4-2-0.9-3.1-1.3c1.7-2,3.9-3.3,6.2-3.7c-1.1-0.6-1.6-2.6-1-3.9
					c0.9,2.1,3.4,2.8,4.9,1.4c-1.6-1-2.8-3-3.1-5.2c1.5-0.3,2.9-1.2,3.9-2.6c-0.8-0.8-1.2-2.2-0.9-3.5c-1.1,0.2-2.3-0.1-3.3-0.9
					c2-1.2,4.1-2.3,6.1-3.5c-0.9,1.2,1,2.8,2.2,2.2s2.3-2.1,3.6-1.9c-0.5,2.7,1.9,5.4,4,4.6c-0.2-1.1-0.4-2.2-0.7-3.3
					c1.7,0.1,2.6,2.3,3.5,4c0.9,1.8,2.6,3.5,4,2.4c0.1-0.8,0.2-1.6,0.3-2.4c1.9,0.8,4.1-1.5,3.7-3.9c1,0.4,2.1,0.8,3.1,1.3
					c0.9-2.2,1.9-4.5,2.8-6.7c-0.8,0.2-1.7,0.3-2.5,0.5c0.2-1.3,0.3-2.7-0.3-3.9c-0.5-1.1-2.1-1.6-2.6-0.4c-0.1-1.3-0.2-2.6-0.3-3.9
					c-1.1,0.7-2.2,1.5-3.3,2.2c-0.2-0.8-0.3-1.7-0.5-2.5c-0.6,1.8-3.3,0.4-2.7-1.4c-1.3,0-2.5-0.1-3.8-0.1c0-1,0-1.9-0.1-2.9
					c1-0.1,2.1-0.2,3.1-0.3c-0.8-1.5,0.5-3.7,2-3.9c1.5-0.2,2.8,0.7,4.1,1.7c0.5-0.7,0.8-1.7,0.7-2.6c0.9,0.7,2.3-0.7,2-1.9
					c1.3,0.2,2.5,0.4,3.8,0.6c-0.9,2.3,1.4,5.3,3.3,4.3c-0.9-0.3-0.7-2.2,0.1-2.8c0.9-0.5,1.9-0.1,2.8,0.3s1.9,0.8,2.8,0.3
					c-0.4-0.8-0.9-1.8-0.8-2.8s0.9-2,1.6-1.6c0.4-1.8-1-3.8-2.5-3.6c0.3-1.4,0.3-3,0-4.4c-1,0.6-1.7,1.6-2.2,2.9
					c-0.3-0.7-0.6-1.4-0.8-2.2c-1.4,1.4-3.9-0.9-3.1-3c-1.1,0.6-2.3,1.3-3.4,1.9c0-1,0-2,0-3.1c-0.8,0.4-1.7,0.5-2.5,0.3
					c-0.1-1,0-2,0.4-2.8c-0.7-0.2-1.3-0.3-2-0.5c-0.2-0.9-0.1-1.9,0.3-2.7c1.7,0.7,3.4,1.2,5.2,1.3c-0.1-1.1,0.1-2.3,0.7-3.3
					c0.7,1.2,2,1.8,3.1,1.3c-1.2-2-0.4-5.2,1.4-6.1c-1.2,0-2.4-0.1-3.7-0.1c0.3-1.1,0.6-2.3,0.9-3.4c-1.2,0.6-2.3,1.3-3.5,1.9
					c0-1-0.1-2.1-0.1-3.1c-1.1,0.4-2.1,0.8-3.2,1.3c-0.2-0.8,0-1.7,0.3-2.4c-0.8,0.6-1.9,0.3-2.4-0.6c0.7-0.8,1.1-1.9,1.2-3.1
					c-0.9-0.3-1.9-0.6-2.8-0.9c-0.2-1.1,0.9-2.1,1.7-1.6c0.4-0.7,0.5-0.2,1-0.9c0.2-0.3,0.1-0.9,0.1-1.3c-0.1-1.4,1-2.7,2.1-2.5
					c-0.2-0.5-2-1.3-2.3-0.9c-0.3,0.4-0.6,0.9-1.1,0.8c-0.7-0.1-0.7-1.6-1.4-1.9c-0.9-0.4-1.8,1.6-2.6,1c-0.4-0.3-0.4-1.1-0.7-1.6
					c-0.5-0.8-1.4-0.7-2.2-0.3s-1.4,1-2.2,1c-0.8,0-1.5-1.3-1-2c-0.9-0.2-1.8-0.9-2.3-1.8c0.5-0.4,0.6-1.3,0.4-2
					c-0.3-0.7-0.8-1.2-1.3-1.6c0.5,0.3,1-0.7,0.7-1.3c-0.3-0.6-0.8-0.9-1.2-1.4c-0.4-0.5-0.6-1.4-0.1-1.8c0.3,0.7,1.2-0.3,1-1
					c-0.2-0.7-0.9-1.1-1.3-1.6c-1-1.1-1.1-3.1-1.1-4.8c0.5-0.4,1,0.5,1.6,0.7c0.5,0.1,1-0.5,1.1-1.1c0.1-0.6-0.1-1.3-0.2-1.9
					c0.1-0.9,1.2-0.5,1.5,0.3c0.3,0.8,0.3,1.8,0.8,2.3c0.4-0.7,1-1.2,1.6-1.6c0.8,0.7-0.6,2.5-0.1,3.6c0.4,0.9,1.5,0.3,2.2-0.3
					c0.7-0.6,1.9-0.9,2.1,0.1c0.1,0.3,0,0.7,0,1c0,1.1,1.2,1.8,1.9,1.1c0.5-0.5,0.6-1.5,1.3-1.8c1-0.4,2.3,1.6,3,0.5
					c-0.7-2.2-1.5-4.2-2.6-6.2c0.7,0,1.5-0.1,2.2-0.1c-0.1-0.9-0.2-1.8,0-2.7s0.9-1.6,1.6-1.5c0.1-0.6,0.2-1.3,0.3-1.9
					c0.3-0.1,0.6-0.2,0.9-0.3l141.4,0l33.5,0l-0.2,37.5"/>
			</g>
		</g>
		<rect x="697.9" y="248.3" class="st16" width="2.5" height="261.1"/>
		<rect x="853.7" y="248.3" class="st16" width="2.5" height="261.1"/>
	</g>
	<g id="Lady">
		<g id="Body">
			<path id="R_Hand" class="st5" d="M686.4,597.3c0,0,12.3,56.9,10.6,67s-11,59.1-14.3,64.1s-15.2,2.5-16.9,0s8.4-46.4,8.4-54
				s4.7-44.7-8.6-66.7L686.4,597.3z"/>
			<path class="st19" d="M588.9,572.8c0,0-52.2-87.9-5-130.9c47.2-43,91.3,67.2,81.7,95.4c-9.7,28.1-19.8,39.4-33.8,47
				C617.7,591.8,590.4,572.2,588.9,572.8z"/>
			<path id="Shirt" class="st20" d="M597.5,557.2c0,0-50,4-57.5,32.8s-4.4,46.2,14.7,68.7c19.1,22.5,11.6,79.9,11.6,79.9
				s92.7,5.1,90.2,0s-2.5-53.7,5.1-71.4c7.5-17.7,7.6-55.7,7.6-55.7s24.5-13.8,20.2-25.6c-4.2-11.8-54.5-28-54.5-28L597.5,557.2z"/>
			<g id="Neck_00000019645571553956434930000006507792809633988273_">
				<path class="st21" d="M615.6,554.5c0,0,0.1,3.4-0.6,4.1"/>
				<path id="Neck_00000168095991277893243140000010054514369103077254_" class="st5" d="M606.8,533c0,0-2.5,17.7-9.3,24.2
					c0,0,15.5,17.7,34.3,1.1c0,0-5.6,5.9-13.2-29.2L606.8,533z"/>
			</g>
		</g>
		<g id="Face">
			<path id="Facecut" class="st5" d="M569.3,499.1c0,0,1,40.3,31.5,52.1c4.4,1.7,9.4,1.1,13.3-1.6c12.4-8.7,39.3-32.2,32.5-66.7
				c-6.6-33.3-60-20.9-79.7-5.9C560.2,482,569.3,499.1,569.3,499.1z"/>
			<path id="Hair_00000067942988635265939340000013356978136330525356_" class="st10" d="M541.9,542.4c1.3,16.4,4.4,32.5,8.5,47.3
				c1.5,5.5,3.3,11.1,6.5,15.9c4,5.9,6.1-2.9,7.1-5.5c0.2-0.6,0.5-1.3,1.1-1.6c1-0.6,2.2,0,3.1,0.7c1.9,1.6,3.1,4,4.7,5.5
				c2.3-2.1,2.7-5.5,4.3-7.7c-0.6,1,2.6,3.9,3.2,4.3c3.2-3.8,4.6-9.9,5.1-14.9c1.9,1.2,3.5,2.9,4.7,4.8c-1.4-2.4-0.3-10-0.7-13.1
				c-0.7-4.7-1.8-9.4-3.1-14c-2.6-9.3-6.1-18.4-8.8-27.8c-5.1-17.7-9.2-39.9-3.5-57.9c4.5,1.8,9.7,5.8,14.2,8.5
				c5.8,3.5,11.8,6.6,18.1,8.9c10.2,3.8,21.3,5.6,32.1,4c0.2,0,0.5,0.1,0.5,0.4c3.7,20.2,9.2,40.6,8,61.2
				c-1.2,19.8-5.3,28.8-3.2,48.7c2.4-5,10.3,1.6,12.7-3.4c1.9,1.7,3.2,3.9,3.9,6.3c1.3-3.2,2.7-6.5,4-9.7c1.9,4.1,3.7,8.2,5.6,12.4
				c-0.9-1.9,3.8-11.3,4.5-13.6c1.5-5,2.8-10,4.1-15.1c2.4-10.1,4.3-20.4,5.6-30.7c2.7-21.1,2.9-42.5,0.8-63.7
				c-3-29.6-12.8-66.2-42.7-79.4c-31.5-13.9-63.5,6.9-80.6,33.2C543.7,473.6,539.2,508.7,541.9,542.4z"/>
			<path class="st21" d="M619.6,477.1c0,0,16.5,13.2,27.7,12.7"/>
			<g id="Expressions">
				<path class="st21" d="M579.9,498.2c0,0,4.9-3.2,9,1.3"/>
				<path class="st21" d="M608.6,503.7c0,0,4.9-3.2,9,1.3"/>
				<ellipse class="st14" cx="585.4" cy="509" rx="2.2" ry="4.7"/>
				<ellipse class="st14" cx="611.4" cy="513.1" rx="2.2" ry="4.7"/>
				<path class="st21" d="M595.8,513.1c0,0-0.4,8.7-1.6,12.9c-1.2,4.2,5.9,0,5.9,0"/>
				<circle class="st11" cx="598.7" cy="536.9" r="2.6"/>
			</g>
		</g>
		<g id="L_Hand_00000183954820214061122180000013467397083319991449_">
			<path id="L_Hand" class="st5" d="M523.4,708.7c-5.2-16.9-6.4-52.9,23.1-125.4c0,0,13.8-26.9,13.5-62.9c-0.2-24.3,8.7-8.8,9.9,0.9
				c0.1,1.2,3.1-3.7,3.3-2.6c0.4,3.4-2.3,12.2-2.3,12.2s-4.1,26.7-7.1,44.6c-1.2,7-1.4,14.2-0.7,21.3c2.4,23.3,4.9,81.7-22.8,116.1
				C535.1,719.5,526,717.1,523.4,708.7z"/>
			<path class="st21" d="M534.2,702.8c0,0-1.9,5.3-3.8,6.8"/>
		</g>
	</g>
	<g id="Table_00000127025757564743215310000004557110498639522490_">
		<path id="Table" class="st22" d="M865,756.3H280.6V737c0-6.4,5.2-11.6,11.6-11.6h561.3c6.4,0,11.6,5.2,11.6,11.6V756.3z"/>
		<path class="st22" d="M849.9,734c0,0,6,5.2,3.4,10.1"/>
	</g>
	<g id="Coffee_00000153700986782240029560000007496062154593512843_">
		<rect x="757.6" y="668.1" class="st12" width="30.1" height="5.1"/>
		<rect x="752.8" y="673.2" class="st12" width="39.6" height="7.2"/>
		<polygon class="st23" points="786.1,725.4 761.7,725.4 754.5,680.5 790.8,680.5 		"/>
		<polygon class="st12" points="787.7,716.9 758.4,717.1 756.1,697.4 789.8,697.4 		"/>
		<path class="st23" d="M784.5,703.8c0,0-0.4,6.5-0.9,8.8"/>
		<g id="Steam_00000057150254675321254870000001066205543476525440_">
			<path class="st24" d="M769.5,662.3c-3.6-4.6-3.7-11.7-0.3-16.4c1.4-1.9,3.2-3.4,4.5-5.3c2.9-4.4,2.4-10.8-1.1-14.7"/>
			<path class="st24" d="M782.1,656.7c-2.8-2.9-2.9-8-0.1-10.9c1.3-1.3,3-2.2,4.1-3.8c1.5-2.2,1.2-5.2,0.8-7.9"/>
		</g>
	</g>
	<g id="Laptop">
		<g>
			<path class="st6" d="M710.6,720.1H540.4l-3-106.2c0-3.6,3-6.6,6.6-6.6h162.9c3.7,0,6.7,3,6.7,6.7L710.6,720.1z"/>
			<ellipse class="st12" cx="625.5" cy="666.1" rx="3.3" ry="6.2"/>
			<path class="st2" d="M630.3,669.2c0,0-0.4,5.1-4.2,5.8"/>
		</g>
		<rect x="540.4" y="719.9" class="st5" width="170" height="5.6"/>
	</g>
	<g id="PenStand_00000101077741715694461330000002287568992345756563_">
		<g id="Scissors">
			
				<rect x="424.2" y="660.5" transform="matrix(0.9798 0.1998 -0.1998 0.9798 144.7204 -71.303)" class="st25" width="2.9" height="41.7"/>
			<g>
				
					<rect x="420.4" y="661" transform="matrix(0.9903 -0.139 0.139 0.9903 -90.6765 65.2498)" class="st25" width="2.9" height="41.7"/>
				<g>
					<ellipse class="st25" cx="419.1" cy="661.4" rx="4" ry="5.7"/>
					<ellipse class="st25" cx="419.1" cy="661.4" rx="2.7" ry="3.9"/>
				</g>
				<g>
					<ellipse class="st25" cx="429.6" cy="661.4" rx="4" ry="5.7"/>
					<ellipse class="st25" cx="429.6" cy="661.4" rx="2.7" ry="3.9"/>
				</g>
			</g>
		</g>
		<rect id="Pen_00000016764700985633447750000006439291409364220324_" x="440.5" y="661.4" class="st25" width="3.1" height="52"/>
		
			<rect id="Pen" x="437.7" y="657.6" transform="matrix(0.9957 -9.282358e-02 9.282358e-02 0.9957 -61.5586 43.7197)" class="st25" width="3.1" height="52"/>
		<path id="Scale" class="st25" d="M440.5,718.1c-0.5-1.4,5.6-58.6,5.6-58.6l11.2,1.3l-6.7,57.2H440.5z"/>
		<path id="Stand" class="st26" d="M451.4,724.9H424c-2.7,0-4.9-1.9-5.1-4.4l-2.7-42.3c-0.2-2.7,2.1-4.9,5.1-4.9h32.5
			c2.9,0,5.2,2.2,5.1,4.9l-2.4,42.3C456.4,722.9,454.1,724.9,451.4,724.9z"/>
		<path class="st26" d="M451.6,709.8c0,0-0.2,8.4-1.3,9.6"/>
	</g>
	<g id="Cactus">
		<g id="Plant">
			<path class="st27" d="M327.1,659c-1.2-1.3-1.9-2.9-2.6-4.5c-0.5-1.2-1-2.3-1.5-3.5c-0.4-0.9-0.8-1.8-1.5-2.5s-1.7-1.1-2.6-0.9
				c-1.1,0.3-1.7,1.6-2,2.7c-0.1,0.5-0.2,1.1-0.2,1.6c0.1,0.9,0.5,1.7,0.9,2.5c1.5,2.7,3.3,5.2,5.5,7.4c0.7,0.7,1.5,1.4,2.4,1.9
				c1.3,0.8,2.7,1.4,4.2,1.8c0.6,0.2,1.2,0.3,1.7,0c0.3-0.2,0.6-0.4,0.8-0.8c0.9-1.3,0.9-3,0.1-4.4c-0.2-0.3-0.5-0.5-0.9-0.4
				c0,0.3,0,0.1,0.1,0.4C329.9,661.1,328.1,660.1,327.1,659z"/>
			<path class="st27" d="M341.6,671.9c-3.6-3.5-5.3-8.7-5.6-13.7c-0.3-5,0.6-10.1,1.5-15c0.6-3.1,1.1-6.2,0.4-9.3
				c-0.1-0.5-0.3-1.1-0.7-1.5c-0.8-0.7-2.2-0.4-2.9,0.4c-0.7,0.8-1,1.9-1.2,3c-1.9,9.1-2.6,18.5-2,27.8c0.2,3.1,0.6,6.4,2.3,9
				c1.8,2.8,4.7,4.6,7.8,5.8c1.3,0.5,2.6,0.9,4,0.8c2-0.2,5.2-3,2.7-4.8c-0.6-0.4-1.9,0-2.6-0.1
				C343.9,673.8,342.6,672.8,341.6,671.9z"/>
			<path class="st27" d="M346.5,663.3c-0.1-8.9-0.2-17.8-0.3-26.7c-0.1-5.6-0.1-11.6,2-16.3c0.8-1.7,2.2-3.3,3.4-2.5
				c0.6,0.4,1,1.2,1.3,2.1c1.5,3.8,1.9,8.3,2.3,12.7c1.3,15.2,2.6,30.6,1.6,45.8c-0.2,3.2-0.6,6.5-2,8.9
				C347.4,699.9,346.5,667.9,346.5,663.3z"/>
			<path class="st27" d="M366.1,648.8c-0.4-6-0.9-12-1.5-18c-0.2-2.3-0.5-4.6,0.3-6.8c0.4-1,1.2-2,2.2-1.8c1,0.2,1.5,1.4,1.7,2.5
				c2.3,11,4.2,22.2,3.4,33.4c-0.1,1.6-0.3,3.3-1,4.8c-0.7,1.5-1.8,2.8-3,4c-1.5,1.4-3.2,2.6-4.9,3.6c-2.6,1.4-7.1,2.7-8.8-0.8
				c-1.3-2.9,1.9-3.9,4-4.8C365.6,661.8,366.6,656,366.1,648.8z"/>
			<path class="st8" d="M347.7,625.3c0,0.4,0.3,0.8,0.6,1"/>
			<path class="st8" d="M351.6,622.4c-0.3,0.4-0.5,1-0.4,1.5"/>
			<path class="st8" d="M352.5,628.6c-0.1,0.5-0.2,1.1-0.3,1.6"/>
			<path class="st8" d="M349.8,634c0.2,0,0.4,0,0.6,0"/>
			<path class="st8" d="M349.4,641.6c0.3,0.1,0.5,0.2,0.8,0.3"/>
			<path class="st8" d="M354.1,638.6c-0.1,0.6-0.2,1.1-0.3,1.7"/>
			<path class="st8" d="M350.8,648.7c0.1,0.2,0.3,0.3,0.4,0.5C351.1,649,350.9,648.9,350.8,648.7"/>
			<path class="st8" d="M349.4,655.7c0.3,0.2,0.5,0.4,0.8,0.6"/>
			<path class="st8" d="M354.5,654.1c-0.2,0.1-0.3,0.4-0.2,0.6"/>
			<path class="st8" d="M350.8,662.8c-0.2,0.2-0.3,0.6-0.2,0.8"/>
			<path class="st8" d="M350.2,671.3c0.4,0,0.8,0,1.2,0.1C351,671.3,350.6,671.3,350.2,671.3"/>
			<path class="st8" d="M354.7,673.1c-0.1,0.9-0.3,1.8-0.4,2.7"/>
			<path class="st8" d="M357.2,669.2c0.1,0.1,0.3,0.3,0.4,0.4"/>
			<path class="st8" d="M364.4,663.2c0.1,0,0.3,0,0.4,0"/>
			<path class="st8" d="M369,652.2c0.5-0.1,1-0.3,1.4-0.4"/>
			<path class="st8" d="M366.9,642.1c0-0.7-0.2-1.4-0.3-2.1"/>
			<path class="st8" d="M366.4,632.9c-0.3-0.4-0.2-1,0.1-1.3"/>
			<path class="st8" d="M369.4,632c0.3-0.3,0.5-0.6,0.8-0.9C370,631.4,369.7,631.7,369.4,632"/>
			<path class="st8" d="M333.2,638.8c-0.2-0.2-0.4-0.4-0.6-0.6"/>
			<path class="st8" d="M336.7,639.6c-0.1-0.6,0.6-1.2,1.2-1.2"/>
			<path class="st8" d="M333.4,647c0,0.6,0,1.2,0,1.9"/>
			<path class="st8" d="M333.6,657c0.3,0.4,0.5,0.8,0.8,1.3"/>
			<path class="st8" d="M336.5,666.3c0.3-0.1,0.6-0.3,0.8-0.4"/>
			<path class="st8" d="M333.8,669.2c-0.3,0.1-0.6,0.5-0.6,0.8"/>
			<path class="st8" d="M339.4,673.5c-0.4,0.3-0.6,0.8-0.6,1.3"/>
			<path class="st8" d="M344.4,675c0.2,0.1,0.4,0.1,0.6,0.2"/>
			<path class="st8" d="M317.9,652.2c-0.6-0.1-1.1-0.3-1.7-0.4"/>
			<path class="st8" d="M320,649.7c0-0.8,0-1.5,0-2.3"/>
			<path class="st8" d="M322.9,653.7c0.4-0.5,1.1-0.9,1.8-1"/>
			<path class="st8" d="M323.7,658c0.4-0.1,0.8-0.1,1.2-0.2"/>
			<path class="st8" d="M321.8,660.5c-0.3,0.2-0.7,0.4-1,0.6"/>
		</g>
		<g id="Pot">
			<polygon class="st28" points="369.5,725 334.7,725 324.9,680.6 378.5,680.6 			"/>
			<line class="st28" x1="326.9" y1="689.7" x2="376.6" y2="689.7"/>
			<path class="st28" d="M366.2,708.3c0,0-1.9,9.6-2.9,11.1"/>
		</g>
	</g>
	<path id="Mobile" class="st29" d="M578.1,547.9l-2.4,0.5c-0.4,0.1-0.9-0.2-1-0.6l-10.4-49.2c-0.1-0.4,0.2-0.9,0.6-1l2.4-0.5
		c0.4-0.1,0.9,0.2,1,0.6l10.4,49.2C578.8,547.4,578.5,547.9,578.1,547.9z"/>
</g>
</svg>
