<?xml version="1.0" encoding="UTF-8"?>
<!-- Generator: Adobe Illustrator 16.0.0, SVG Export Plug-In . SVG Version: 6.00 Build 0)  -->
<svg width="720px" height="350.29px" enable-background="new 0 0 720 350.287" version="1.1" viewBox="0 0 720 350.29" xml:space="preserve" xmlns="http://www.w3.org/2000/svg">

	
		<polygon points="153.64 257.54 262.18 69.536 302.2 138.83 233.85 257.22" fill="#666"/>
		<polyline points="248.93 257.54 330.31 257.22 438.86 69.202 398.91 0 247.69 257.54" fill="#515151"/>
		
			<g fill="#8062AA">
				<path d="m458.24 191.59c32.157 0 58.236 26.07 58.236 58.228 0 2.381-0.185 4.713-0.465 7.018l54.834-0.223-112.33-194.57-112.88 195.5 54.906-0.232c-0.314-2.459-0.537-4.947-0.537-7.492 0-32.159 26.079-58.229 58.237-58.229z"/>
				<path d="m458.24 308.06"/>
			</g>
		
	
	<g enable-background="new    "><g fill="#666">
		<path d="m51.424 318.26c0.941 1.072 1.581 2.111 1.921 3.116 0.339 1.007 0.509 2.634 0.509 4.881v12.778c0 1.07 0.202 1.835 0.607 2.293 0.405 0.456 1.157 0.73 2.254 0.823 1.098 0.091 1.999 0.516 2.705 1.273s1.059 1.686 1.059 2.783c0 1.149-0.399 2.116-1.196 2.9s-1.81 1.176-3.038 1.176c-1.751 0-3.437-0.464-5.057-1.392-1.621-0.928-3.031-2.437-4.233-4.527-0.758-1.358-1.137-2.939-1.137-4.742v-14.15c0-1.123-0.183-1.895-0.549-2.313s-1.15-0.699-2.352-0.843-2.124-0.568-2.763-1.274c-0.641-0.705-0.96-1.633-0.96-2.783 0-1.176 0.32-2.116 0.96-2.822 0.64-0.705 1.568-1.13 2.783-1.273 1.215-0.144 1.953-0.385 2.215-0.726 0.444-0.522 0.667-1.332 0.667-2.43v-13.405c0-2.875 1.044-5.363 3.136-7.468 2.09-2.103 4.507-3.155 7.251-3.155 1.254 0 2.279 0.393 3.077 1.176 0.797 0.784 1.196 1.751 1.196 2.901 0 1.071-0.353 1.986-1.059 2.743-0.706 0.759-1.621 1.189-2.744 1.294-1.124 0.104-1.83 0.34-2.117 0.705-0.47 0.549-0.706 1.359-0.706 2.431v12.778c0 1.803-0.176 3.194-0.529 4.175-0.351 0.98-0.985 2.006-1.9 3.077z"/>
		<path d="m110.5 303.6c0.966-0.915 1.96-1.372 2.979-1.372 1.149 0 2.097 0.411 2.842 1.234s1.117 2.189 1.117 4.097v5.174c0 1.935-0.373 3.306-1.117 4.115-0.745 0.811-1.719 1.216-2.92 1.216-1.098 0-2.025-0.313-2.783-0.941-0.549-0.47-0.98-1.431-1.293-2.881-0.314-1.45-1.072-2.528-2.274-3.233-2.116-1.255-4.821-1.882-8.114-1.882-3.789 0-6.827 1.111-9.113 3.332-2.287 2.222-3.43 5.03-3.43 8.428 0 3.136 1.098 5.611 3.292 7.428 2.195 1.816 5.84 2.724 10.936 2.724 3.345 0 6.076-0.339 8.192-1.019 1.254-0.418 2.443-1.13 3.567-2.137 1.123-1.005 2.143-1.509 3.058-1.509 1.097 0 2.044 0.405 2.842 1.215 0.796 0.811 1.195 1.764 1.195 2.861 0 1.777-1.215 3.463-3.646 5.057-3.606 2.378-8.885 3.567-15.835 3.567-6.246 0-11.106-1.294-14.582-3.881-4.704-3.475-7.056-8.231-7.056-14.268 0-5.723 1.907-10.459 5.723-14.209 3.815-3.75 8.793-5.625 14.934-5.625 2.221 0 4.285 0.209 6.193 0.627 1.908 0.419 3.672 1.046 5.293 1.882z"/>
		<path d="m153.38 337.74v-1.882c-2.013 1.072-4.233 1.876-6.664 2.411s-4.639 0.804-6.625 0.804c-4.312 0-7.814-1.144-10.505-3.43-2.692-2.287-4.037-4.814-4.037-7.585 0-3.371 1.718-6.5 5.154-9.388s8.186-4.331 14.248-4.331c2.43 0 5.239 0.261 8.428 0.783v-1.92c0-1.202-0.517-2.182-1.548-2.94-1.033-0.758-2.999-1.137-5.899-1.137-2.378 0-5.462 0.471-9.25 1.411-1.411 0.34-2.509 0.51-3.292 0.51-1.072 0-1.979-0.385-2.724-1.156s-1.117-1.757-1.117-2.959c0-0.68 0.13-1.268 0.392-1.765 0.261-0.496 0.627-0.895 1.098-1.195s1.45-0.659 2.94-1.078c1.985-0.549 4.011-0.985 6.076-1.313 2.064-0.327 3.933-0.49 5.605-0.49 4.991 0 8.865 1.078 11.622 3.233 2.757 2.156 4.135 5.103 4.135 8.839v16.542h1.372c1.934 0 3.312 0.372 4.135 1.117 0.823 0.744 1.235 1.718 1.235 2.92 0 1.176-0.412 2.136-1.235 2.881s-2.202 1.117-4.135 1.117h-9.409zm0-14.386c-3.214-0.627-6.181-0.94-8.898-0.94-3.267 0-6.076 0.798-8.427 2.391-1.464 1.02-2.195 2.052-2.195 3.097 0 0.759 0.353 1.372 1.059 1.843 1.306 0.862 3.096 1.293 5.37 1.293 1.934 0 4.122-0.378 6.566-1.137 2.443-0.757 4.618-1.789 6.526-3.097v-3.45z"/>
		<path d="m194.38 327.98 8.663-17.796c-2.143 0-3.515-0.183-4.116-0.549-1.307-0.81-1.96-1.973-1.96-3.488 0-1.176 0.412-2.137 1.235-2.881 0.823-0.745 2.201-1.117 4.135-1.117h11.015c1.933 0 3.312 0.372 4.135 1.117 0.823 0.744 1.234 1.718 1.234 2.92 0 1.176-0.411 2.136-1.234 2.881s-2.202 1.117-4.135 1.117h-1.333l-13.444 27.556h-8.389l-13.444-27.556h-1.137c-1.934 0-3.313-0.372-4.135-1.117-0.823-0.745-1.235-1.718-1.235-2.92 0-1.176 0.412-2.137 1.235-2.881 0.823-0.745 2.201-1.117 4.135-1.117h10.779c1.907 0 3.273 0.372 4.096 1.117 0.823 0.744 1.234 1.718 1.234 2.92 0 1.489-0.627 2.626-1.881 3.41-0.627 0.392-2.025 0.588-4.194 0.588l8.741 17.796z"/>
		<path d="m262.66 324.02h-32.965c0.836 2.091 2.319 3.776 4.449 5.057 2.129 1.28 5.01 1.92 8.643 1.92 2.979 0 6.938-0.64 11.876-1.92 2.039-0.522 3.45-0.784 4.233-0.784 1.071 0 1.973 0.379 2.705 1.137 0.731 0.758 1.098 1.712 1.098 2.861 0 1.045-0.392 1.934-1.176 2.665-1.045 0.967-3.593 1.889-7.644 2.764s-7.944 1.313-11.681 1.313c-6.429 0-11.57-1.816-15.424-5.449-3.855-3.632-5.782-8.1-5.782-13.405 0-5.645 2.083-10.236 6.252-13.777 4.168-3.541 8.97-5.312 14.405-5.312 3.266 0 6.265 0.575 8.996 1.725 2.73 1.15 4.763 2.391 6.095 3.724 1.881 1.935 3.436 4.325 4.665 7.173 0.836 1.986 1.254 4.286 1.254 6.899v3.409zm-8.898-8.036c-1.229-2.299-2.836-4.018-4.821-5.154-1.986-1.137-4.351-1.705-7.095-1.705-2.718 0-5.07 0.568-7.056 1.705s-3.606 2.855-4.86 5.154h23.832z"/>
		<path d="m289 302.15v5.017c3.371-2.43 6.03-4.05 7.977-4.86 1.946-0.81 3.769-1.215 5.468-1.215 2.612 0 5.147 0.967 7.604 2.9 1.672 1.308 2.509 2.64 2.509 3.998 0 1.15-0.399 2.124-1.196 2.921s-1.758 1.195-2.881 1.195c-0.993 0-2.038-0.496-3.136-1.489s-2.078-1.49-2.94-1.49c-1.124 0-2.802 0.706-5.037 2.117s-5.024 3.527-8.369 6.35v12.112h11.445c1.934 0 3.313 0.372 4.136 1.117 0.823 0.744 1.234 1.718 1.234 2.92 0 1.176-0.412 2.136-1.234 2.881-0.823 0.745-2.202 1.117-4.136 1.117h-24.263c-1.934 0-3.313-0.372-4.135-1.117-0.823-0.745-1.235-1.718-1.235-2.92 0-1.176 0.412-2.137 1.235-2.881 0.823-0.745 2.201-1.117 4.135-1.117h4.782v-19.521h-2.9c-1.934 0-3.312-0.372-4.135-1.117s-1.235-1.718-1.235-2.92c0-1.176 0.412-2.137 1.235-2.881 0.823-0.745 2.201-1.117 4.135-1.117h10.937z"/>
		<path d="m330.7 302.15v2.704c1.463-1.254 3.077-2.195 4.841-2.822s3.678-0.94 5.743-0.94c4.756 0 8.519 1.477 11.289 4.43 2.195 2.352 3.293 5.436 3.293 9.25v14.935c1.698 0 2.953 0.372 3.763 1.117 0.81 0.744 1.215 1.718 1.215 2.92 0 1.176-0.412 2.136-1.235 2.881s-2.202 1.117-4.135 1.117h-7.251c-1.934 0-3.313-0.372-4.135-1.117-0.823-0.745-1.235-1.718-1.235-2.92 0-1.176 0.405-2.137 1.215-2.881 0.81-0.745 2.064-1.117 3.763-1.117v-15.17c0-1.75-0.47-3.03-1.411-3.841-1.229-1.045-3.071-1.568-5.527-1.568-1.855 0-3.482 0.359-4.88 1.078s-3.169 2.241-5.312 4.566v14.935c2.064 0 3.397 0.195 3.998 0.588 1.28 0.784 1.921 1.934 1.921 3.449 0 1.176-0.412 2.136-1.235 2.881s-2.202 1.117-4.135 1.117h-9.133c-1.934 0-3.312-0.372-4.135-1.117s-1.235-1.718-1.235-2.92c0-1.463 0.627-2.6 1.881-3.41 0.627-0.393 1.973-0.588 4.038-0.588v-19.521c-1.699 0-2.954-0.379-3.763-1.137-0.81-0.758-1.215-1.725-1.215-2.9s0.412-2.137 1.234-2.881c0.823-0.745 2.201-1.117 4.136-1.117h7.642z"/>
		<path d="m394.24 337.74v-1.882c-2.013 1.072-4.233 1.876-6.663 2.411-2.431 0.535-4.639 0.804-6.625 0.804-4.312 0-7.813-1.144-10.505-3.43-2.691-2.287-4.036-4.814-4.036-7.585 0-3.371 1.718-6.5 5.153-9.388 3.437-2.888 8.186-4.331 14.249-4.331 2.43 0 5.238 0.261 8.427 0.783v-1.92c0-1.202-0.516-2.182-1.548-2.94-1.033-0.758-2.999-1.137-5.899-1.137-2.378 0-5.462 0.471-9.251 1.411-1.41 0.34-2.508 0.51-3.292 0.51-1.072 0-1.979-0.385-2.725-1.156-0.744-0.771-1.117-1.757-1.117-2.959 0-0.68 0.131-1.268 0.393-1.765 0.261-0.496 0.627-0.895 1.098-1.195 0.47-0.3 1.45-0.659 2.939-1.078 1.985-0.549 4.011-0.985 6.075-1.313s3.933-0.49 5.605-0.49c4.991 0 8.865 1.078 11.622 3.233 2.757 2.156 4.136 5.103 4.136 8.839v16.542h1.371c1.934 0 3.313 0.372 4.136 1.117 0.823 0.744 1.234 1.718 1.234 2.92 0 1.176-0.411 2.136-1.234 2.881s-2.202 1.117-4.136 1.117h-9.407zm0-14.386c-3.214-0.627-6.18-0.94-8.897-0.94-3.267 0-6.075 0.798-8.428 2.391-1.464 1.02-2.194 2.052-2.194 3.097 0 0.759 0.353 1.372 1.058 1.843 1.307 0.862 3.097 1.293 5.37 1.293 1.934 0 4.122-0.378 6.565-1.137 2.443-0.757 4.619-1.789 6.526-3.097v-3.45z"/>
		<path d="m441.24 307.52c0 1.516-0.536 2.782-1.607 3.802s-2.548 1.528-4.429 1.528c-1.882 0-3.358-0.509-4.43-1.528s-1.606-2.286-1.606-3.802 0.535-2.783 1.606-3.803c1.071-1.019 2.548-1.528 4.43-1.528 1.881 0 3.357 0.51 4.429 1.528 1.071 1.02 1.607 2.288 1.607 3.803zm0.078 26.301c0 1.516-0.535 2.783-1.606 3.803-1.072 1.019-2.548 1.528-4.43 1.528-1.881 0-3.358-0.51-4.429-1.528-1.072-1.02-1.607-2.287-1.607-3.803 0-1.515 0.535-2.783 1.607-3.802 1.07-1.02 2.548-1.529 4.429-1.529 1.882 0 3.357 0.51 4.43 1.529 1.071 1.019 1.606 2.288 1.606 3.802z"/></g><g fill="#8062AA">
	
	
		<path d="m481.36 310.19v16.11c0 1.725 0.353 2.861 1.059 3.41 1.097 0.862 3.057 1.293 5.879 1.293 4.103 0 7.892-0.875 11.367-2.626 1.333-0.679 2.378-1.02 3.136-1.02 1.045 0 1.953 0.393 2.725 1.177 0.771 0.783 1.156 1.737 1.156 2.861 0 1.045-0.418 1.946-1.254 2.704-1.281 1.229-3.81 2.358-7.585 3.391-3.776 1.032-6.958 1.549-9.545 1.549-4.991 0-8.734-1.078-11.229-3.234-2.496-2.155-3.743-4.802-3.743-7.938v-17.678h-2.901c-1.934 0-3.312-0.372-4.135-1.117s-1.235-1.718-1.235-2.92c0-1.176 0.412-2.137 1.235-2.881 0.823-0.745 2.201-1.117 4.135-1.117h2.901v-7.252c0-1.934 0.372-3.312 1.116-4.135 0.745-0.823 1.719-1.235 2.921-1.235 1.176 0 2.136 0.412 2.881 1.235s1.117 2.201 1.117 4.135v7.252h14.855c1.934 0 3.313 0.372 4.136 1.117 0.823 0.744 1.234 1.718 1.234 2.92 0 1.176-0.411 2.136-1.234 2.881s-2.202 1.117-4.136 1.117h-14.856z"/>
		<path d="m551.68 324.02h-32.965c0.836 2.091 2.318 3.776 4.448 5.057s5.011 1.92 8.644 1.92c2.979 0 6.938-0.64 11.877-1.92 2.038-0.522 3.449-0.784 4.233-0.784 1.07 0 1.973 0.379 2.704 1.137s1.098 1.712 1.098 2.861c0 1.045-0.392 1.934-1.176 2.665-1.046 0.967-3.594 1.889-7.644 2.764-4.051 0.875-7.944 1.313-11.681 1.313-6.429 0-11.57-1.816-15.425-5.449-3.854-3.632-5.781-8.1-5.781-13.405 0-5.645 2.084-10.236 6.252-13.777s8.97-5.312 14.405-5.312c3.266 0 6.265 0.575 8.996 1.725 2.729 1.15 4.762 2.391 6.095 3.724 1.882 1.935 3.436 4.325 4.664 7.173 0.836 1.986 1.255 4.286 1.255 6.899v3.409zm-8.899-8.036c-1.229-2.299-2.835-4.018-4.82-5.154-1.986-1.137-4.352-1.705-7.095-1.705-2.719 0-5.07 0.568-7.056 1.705s-3.606 2.855-4.86 5.154h23.831z"/>
		<path d="m592.21 303.6c0.967-0.915 1.96-1.372 2.979-1.372 1.15 0 2.098 0.411 2.842 1.234 0.745 0.823 1.117 2.189 1.117 4.097v5.174c0 1.935-0.372 3.306-1.117 4.115-0.744 0.811-1.718 1.216-2.92 1.216-1.098 0-2.025-0.313-2.783-0.941-0.549-0.47-0.979-1.431-1.293-2.881s-1.072-2.528-2.273-3.233c-2.117-1.255-4.821-1.882-8.114-1.882-3.789 0-6.827 1.111-9.113 3.332-2.287 2.222-3.43 5.03-3.43 8.428 0 3.136 1.098 5.611 3.293 7.428 2.194 1.816 5.84 2.724 10.936 2.724 3.345 0 6.076-0.339 8.192-1.019 1.254-0.418 2.443-1.13 3.567-2.137 1.123-1.005 2.142-1.509 3.057-1.509 1.098 0 2.045 0.405 2.842 1.215 0.797 0.811 1.196 1.764 1.196 2.861 0 1.777-1.216 3.463-3.646 5.057-3.606 2.378-8.885 3.567-15.836 3.567-6.246 0-11.106-1.294-14.581-3.881-4.704-3.475-7.056-8.231-7.056-14.268 0-5.723 1.907-10.459 5.723-14.209 3.814-3.75 8.793-5.625 14.934-5.625 2.222 0 4.286 0.209 6.193 0.627 1.906 0.419 3.67 1.046 5.291 1.882z"/>
		<path d="m619.57 286.9v17.129c1.672-0.992 3.364-1.73 5.075-2.214 1.712-0.483 3.443-0.726 5.194-0.726 2.77 0 5.238 0.471 7.408 1.411 2.169 0.94 3.965 2.424 5.39 4.449 1.424 2.025 2.136 4.579 2.136 7.663v15.091c2.039 0 3.371 0.195 3.998 0.588 1.255 0.811 1.882 1.96 1.882 3.449 0 1.176-0.405 2.136-1.215 2.881-0.811 0.745-2.183 1.117-4.116 1.117h-9.172c-1.908 0-3.273-0.372-4.096-1.117s-1.235-1.718-1.235-2.92c0-1.463 0.627-2.6 1.882-3.41 0.652-0.418 1.985-0.614 3.998-0.588v-14.542c0-2.064-0.471-3.515-1.411-4.352-1.229-1.123-3.045-1.686-5.448-1.686-1.777 0-3.352 0.347-4.724 1.039s-3.221 2.188-5.546 4.488v15.052c2.063 0 3.396 0.195 3.998 0.588 1.279 0.811 1.92 1.96 1.92 3.449 0 1.176-0.411 2.136-1.234 2.881s-2.202 1.117-4.135 1.117h-9.134c-1.934 0-3.312-0.372-4.135-1.117s-1.235-1.718-1.235-2.92c0-1.463 0.641-2.6 1.921-3.41 0.627-0.418 1.96-0.614 3.998-0.588v-34.767h-1.372c-1.934 0-3.312-0.372-4.135-1.117-0.823-0.744-1.234-1.718-1.234-2.92 0-1.176 0.411-2.136 1.234-2.881s2.201-1.117 4.135-1.117h9.408z"/>
	
	
		</g><path d="m674.2 318.26c-0.915-1.07-1.548-2.109-1.9-3.116-0.354-1.005-0.529-2.384-0.529-4.135v-12.778c0-1.071-0.203-1.836-0.607-2.293-0.405-0.457-1.156-0.738-2.254-0.843s-1.999-0.535-2.705-1.294c-0.705-0.757-1.058-1.672-1.058-2.743 0-1.15 0.397-2.117 1.195-2.901 0.797-0.783 1.809-1.176 3.037-1.176 1.751 0 3.437 0.465 5.057 1.392 1.62 0.928 3.031 2.438 4.233 4.527 0.758 1.359 1.137 2.927 1.137 4.704v13.405c0 1.124 0.183 1.901 0.549 2.332 0.365 0.432 1.149 0.712 2.352 0.843s2.123 0.549 2.764 1.254c0.64 0.706 0.96 1.646 0.96 2.822 0 1.15-0.32 2.078-0.96 2.783-0.641 0.706-1.567 1.131-2.783 1.274-1.215 0.144-1.953 0.386-2.215 0.725-0.444 0.523-0.666 1.333-0.666 2.431v14.15c0 2.9-1.045 5.402-3.136 7.506s-4.508 3.155-7.251 3.155c-1.255 0-2.28-0.392-3.077-1.176-0.798-0.784-1.195-1.751-1.195-2.9 0-1.072 0.353-1.986 1.058-2.744 0.706-0.758 1.62-1.189 2.744-1.293 1.123-0.105 1.829-0.34 2.116-0.706 0.471-0.549 0.706-1.359 0.706-2.43v-12.778c0-2.247 0.163-3.867 0.49-4.861 0.325-0.993 0.971-2.039 1.938-3.136z" fill="#666"/>
	</g>

</svg>
