<?xml version="1.0" encoding="utf-8"?>
<!-- Generator: Adobe Illustrator 25.4.1, SVG Export Plug-In . SVG Version: 6.00 Build 0)  -->
<svg version="1.1" id="Business_people_shaking_hands_00000155133533981435017630000001744532269153779901_"
	 xmlns="http://www.w3.org/2000/svg" xmlns:xlink="http://www.w3.org/1999/xlink" x="0px" y="0px" viewBox="0 0 1080 1080"
	 style="enable-background:new 0 0 1080 1080;" xml:space="preserve">
<style type="text/css">
	.st0{opacity:0.15;clip-path:url(#SVGID_00000138571832777377567380000003112073890113676163_);fill:#CDBFDE;}
	.st1{clip-path:url(#SVGID_00000138571832777377567380000003112073890113676163_);}
	.st2{fill:#D8D9D8;stroke:#010101;stroke-miterlimit:10;}
	.st3{fill:#B7B7B8;stroke:#010101;stroke-miterlimit:10;}
	.st4{fill:#F3F3F3;stroke:#010101;stroke-miterlimit:10;}
	.st5{fill:#FFFFFF;stroke:#010101;stroke-miterlimit:10;}
	.st6{fill:#FFFFFF;stroke:#B8B6DB;stroke-width:2;stroke-linecap:round;stroke-linejoin:round;stroke-miterlimit:10;}
	.st7{fill:none;stroke:#B8B6DB;stroke-linecap:round;stroke-linejoin:round;stroke-miterlimit:10;}
	.st8{fill:none;stroke:#303030;stroke-linecap:round;stroke-linejoin:round;stroke-miterlimit:10;}
	.st9{fill:none;stroke:#010101;stroke-linecap:round;stroke-linejoin:round;stroke-miterlimit:10;}
	.st10{fill:#FFFFFF;stroke:#010101;stroke-linecap:round;stroke-linejoin:round;stroke-miterlimit:10;}
	.st11{fill:#E0E1E0;stroke:#010101;stroke-miterlimit:10;}
	.st12{fill:#595A5A;stroke:#010101;stroke-miterlimit:10;}
	.st13{fill:#FFFFFF;stroke:#010101;stroke-width:0.5;stroke-miterlimit:10;}
	.st14{fill:#FFFFFF;stroke:#010101;stroke-width:0.5;stroke-linecap:round;stroke-linejoin:round;stroke-miterlimit:10;}
	.st15{fill:#EEDBEB;stroke:#000000;stroke-width:0.5;stroke-linecap:round;stroke-linejoin:round;stroke-miterlimit:10;}
	.st16{fill:none;stroke:#000000;stroke-width:0.5;stroke-linecap:round;stroke-linejoin:round;stroke-miterlimit:10;}
	.st17{fill:none;stroke:#010101;stroke-width:0.5;stroke-linecap:round;stroke-linejoin:round;stroke-miterlimit:10;}
	.st18{fill:#FFFFFF;stroke:#000000;stroke-linecap:round;stroke-linejoin:round;stroke-miterlimit:10;}
	.st19{fill:#5C58A6;stroke:#000000;stroke-linecap:round;stroke-linejoin:round;stroke-miterlimit:10;}
	.st20{fill:#FFFFFF;stroke:#000000;stroke-miterlimit:10;}
	.st21{fill:#8986C1;stroke:#000000;stroke-linecap:round;stroke-linejoin:round;stroke-miterlimit:10;}
	.st22{fill:none;stroke:#000000;stroke-linecap:round;stroke-linejoin:round;stroke-miterlimit:10;}
	.st23{stroke:#000000;stroke-linecap:round;stroke-linejoin:round;stroke-miterlimit:10;}
	.st24{fill:#EEDBEB;stroke:#000000;stroke-linecap:round;stroke-linejoin:round;stroke-miterlimit:10;}
	.st25{fill:#3A3A3A;stroke:#000000;stroke-linecap:round;stroke-linejoin:round;stroke-miterlimit:10;}
	.st26{fill:#F7F2F8;stroke:#000000;stroke-linecap:round;stroke-linejoin:round;stroke-miterlimit:10;}
	.st27{fill:#5A5A81;stroke:#000000;stroke-linecap:round;stroke-linejoin:round;stroke-miterlimit:10;}
	.st28{fill:#E2E2E2;stroke:#000000;stroke-miterlimit:10;}
	.st29{fill:#CFCFCE;stroke:#000000;stroke-linecap:round;stroke-linejoin:round;stroke-miterlimit:10;}
	.st30{fill:#5C58A6;stroke:#000000;stroke-width:0.25;stroke-linecap:round;stroke-linejoin:round;stroke-miterlimit:10;}
	.st31{fill:#9A9A9A;stroke:#000000;stroke-width:0.5;stroke-linecap:round;stroke-linejoin:round;stroke-miterlimit:10;}
	.st32{fill:#E2E0F0;stroke:#000000;stroke-width:0.5;stroke-linecap:round;stroke-linejoin:round;stroke-miterlimit:10;}
	.st33{fill:#5A5A81;stroke:#000000;stroke-width:0.5;stroke-linecap:round;stroke-linejoin:round;stroke-miterlimit:10;}
	.st34{fill:#F5F5FA;stroke:#000000;stroke-width:0.2;stroke-miterlimit:10;}
	.st35{fill:#E2E0F0;stroke:#7B7B7B;stroke-width:0.5;stroke-linecap:round;stroke-linejoin:round;stroke-miterlimit:10;}
	.st36{fill:none;stroke:#000000;stroke-linecap:round;stroke-miterlimit:10;}
</style>
<g id="Illustration_00000018923073605798882370000010994746741017388202_">
	<defs>
		<path id="SVGID_1_" d="M506.9,158.7c0,0-317.7,31.1-303.4,199.5c14.2,168.4-81.9,159.3-31.3,287.9s254.6,192.7,388,167.4
			c133.4-25.3,366.1-6.2,379.7-106c13.6-99.9,35.6-545.4,28.8-548.7C962,155.4,546.8,125,546.8,125L506.9,158.7z"/>
	</defs>
	<clipPath id="SVGID_00000052074880997104377270000005266206589007821448_">
		<use xlink:href="#SVGID_1_"  style="overflow:visible;"/>
	</clipPath>
	
		<path id="Shape" style="opacity:0.15;clip-path:url(#SVGID_00000052074880997104377270000005266206589007821448_);fill:#CDBFDE;" d="
		M250.6,594.1c43.6,31.5,106.3,17.2,154.4,41.1c20.2,10,36.7,26.2,54.9,39.6c66.1,48.6,163.8,56.3,229.7,7.4
		c30.4-22.6,52.3-54.9,82.2-78.1c26.2-20.3,57.9-33.1,82.5-55.2c28.4-25.6,45.2-62,54.3-99.2c17.8-73.2,7.2-153-29.1-219.1
		c-26.8-48.8-76.3-93.3-131.4-85.5c-25.6,3.6-48.2,18-72.6,26.2c-67.7,22.7-151-0.9-206.6,43.9c-27.5,22.2-41.4,56.5-59,87.1
		c-13.6,23.7-31.2,46.7-56.3,57.5c-12.5,5.4-26.1,7.4-39,11.7c-34,11.3-78,43-98.1,72.7C187.9,486.2,210.2,564.9,250.6,594.1z"/>
	<g id="Illustration" style="clip-path:url(#SVGID_00000052074880997104377270000005266206589007821448_);">
		<g id="White_Board">
			<g id="Stand">
				
					<rect x="513.7" y="615.4" transform="matrix(0.9923 0.1239 -0.1239 0.9923 91.5289 -58.8114)" class="st2" width="9.8" height="182.3"/>
				
					<rect x="552.6" y="629.8" transform="matrix(-1 -1.224647e-16 1.224647e-16 -1 1119.067 1386.2264)" class="st3" width="13.9" height="126.7"/>
				
					<rect x="601.8" y="615.4" transform="matrix(-0.9923 0.1239 -0.1239 -0.9923 1296.332 1332.4016)" class="st2" width="9.8" height="182.3"/>
			</g>
			<g>
				<g>
					<path class="st4" d="M691.9,622H423.1c-2.1,0-3.8-1.7-3.8-3.8v-322c0-2.1,1.7-3.8,3.8-3.8h268.8c2.1,0,3.8,1.7,3.8,3.8v322
						C695.6,620.4,694,622,691.9,622z"/>
					<path class="st5" d="M675.3,615.5H439.7c-8.2,0-14.8-6.6-14.8-14.8V313.9c0-8.2,6.6-14.8,14.8-14.8h235.6
						c8.2,0,14.8,6.6,14.8,14.8v286.7C690.1,608.8,683.5,615.5,675.3,615.5z"/>
				</g>
				<g id="Pie_Chart_00000147188469638117693840000016341646101590849432_">
					<path class="st6" d="M456.1,379.1c-2.9,18.4,6.3,38.3,21.4,46.4c4.7,2.5,9.9,4,15,4.5c14.5,1.4,29.7-4.8,39-17.3
						c9.3-12.5,11.8-31.3,5.1-45.8c-2.4-5.1-5.8-9.6-9.9-13.2C503.3,332.9,461.5,343.8,456.1,379.1z"/>
					<path class="st6" d="M545.7,391.4c-0.1,0.1-0.3,0.2-0.5,0.3c-1.4,0.8-3,0.7-4.6,0.6c-14.3-0.9-28.6-1.7-42.9-2.6
						c-0.6,0-1.2-0.1-1.6-0.5c-0.3-0.4-0.4-0.9-0.4-1.5c-0.5-8.7-0.7-17.5-0.7-26.2c0-6.2-1.5-14.1,0.5-20
						c3.5-10.7,26.8-0.1,32.7,4.1c11.9,8.5,20,24.9,19.8,39.7C547.9,387.6,547.4,390.1,545.7,391.4z"/>
					<g id="Lines_00000057863326893135356280000010374863208554065580_">
						<path class="st7" d="M494.5,348.8c4.5-3.6,9-7.2,13.5-10.8"/>
						<path class="st7" d="M494.6,353.3c6.8-4.1,13.2-8.8,19.3-13.9"/>
						<path class="st7" d="M495.6,356.3c7.6-5.3,15.1-10.6,22.7-15.9"/>
						<path class="st7" d="M495.2,360.7c9.5-5.2,18.7-11.2,27.3-17.8"/>
						<path class="st7" d="M495.4,365.5c10.9-6.5,21.6-13.2,32.2-20"/>
						<path class="st7" d="M496.1,369.4c12-6.1,23.7-12.9,34.8-20.6"/>
						<path class="st7" d="M495.7,374.1c13.3-6.7,26.1-14.3,38.4-22.9"/>
						<path class="st7" d="M495.4,378.9c11.3-6.1,22.5-12.1,33.8-18.2c2.8-1.5,5.7-3.1,8-5.3"/>
						<path class="st7" d="M495.1,384.4c15.5-7.9,30.6-16.5,45.4-25.6"/>
						<path class="st7" d="M496.6,388.7c15.8-6.9,31-15.4,45.2-25.3"/>
						<path class="st7" d="M503,389.9c14.7-6.1,28.7-13.7,41.9-22.6"/>
						<path class="st7" d="M509.3,391c12.5-5.2,24.5-11.9,35.6-19.8"/>
						<path class="st7" d="M516.8,391.4c10.1-4.7,19.8-10.2,29-16.6"/>
						<path class="st7" d="M524.7,391.3c0.9-0.9,2.1-1.5,3.3-2.1c6.5-3.2,12.6-7.1,18.4-11.5"/>
						<path class="st7" d="M529.7,391.7c6-3,11.8-6.7,17.1-10.9c0,0.2-0.2,0.4-0.4,0.4"/>
						<path class="st7" d="M536.2,392.4c3.8-2.2,7.6-4.6,11.2-7.2"/>
					</g>
					<g>
						<path class="st8" d="M522.8,361.4c-0.2-1.8,0.7-3.5,1.7-5c2.9-4.4,6.2-8.5,10.5-11.5c4.3-3,9.5-4.8,14.7-4.2
							c2.8,0.3,5.4,1.3,8.1,2.3"/>
						<g>
							<path class="st8" d="M564.3,335.2c-2.3,3,0.1,7.8-2.2,10.8c-0.6-2-0.8-4.2-0.5-6.3c0.1-0.8,0.2-1.7,0.8-2.4
								c0.5-0.7,1.5-1,2.2-0.6c0.7,0.4,1,1.3,0.8,2.1s-0.7,1.5-1.2,2.1c-0.5-1,1.2-2.2,2-1.3c0.6,0.6,0.5,1.8,1.3,2.1
								c1.4,0.5,2.1-2.8,3.4-2.2c0.8,0.3,0.8,1.9,1.6,2c0.9,0.1,1.2-1.5,2.1-1.6c0.6-0.1,1.2,0.5,1.8,0.7c0.9,0.2,1.8-0.6,2-1.4
								c0.2-0.9-0.1-1.8-0.4-2.7c-1.1,1.3-1.3,3.2-0.7,4.8c2-1,3.4-3.4,3.2-5.6c0,1.7,0,3.4,0,5.2c1.5-0.3,2.8-1.2,3.7-2.4
								c0.4,1.7,1.1,3.6,2.8,4"/>
							<path class="st8" d="M597.4,338.9c0.7-1.3-0.2-3.2-1.7-3.4c-1,1.1-1.5,2.7-1.4,4.1c0,0.3,0.1,0.7,0.3,1
								c0.5,0.7,1.7,0.4,2.3-0.2c0.6-0.6,0.9-1.5,1.4-2.1c0.2,1,0.6,2,1.2,2.8c0.8-0.9,1.6-1.7,2.5-2.6c0.4,0.4,0.6,1.1,0.5,1.7
								c0.7,0,1.5,0.1,2.2,0.1c0.3,0,0.6,0,0.9,0c1.5-0.3,2.4-2.4,1.3-3.6c-1.7,0.3-3.1,2.1-2.8,3.9c1.7-0.8,3.2-1.7,4.6-2.9
								c0.1,1,0.3,1.9,0.4,2.9c0.3-1.4,2.7-1.6,3.1-0.2c0.4-0.4,0.9-0.7,1.3-1.1c0.2,0.7,0.9,1.3,1.7,1.3s1.4-0.7,1.5-1.4
								c1.3,0.4,2.7-1,2.3-2.3c0.8,2.4,1.4,4.9,1.7,7.4c0.2,1.4,0.1,3.3-1.3,3.8c-0.7-0.8-0.4-2.1,0-3.1c1-2.4,2.3-4.7,3.7-6.8
								c0.2-0.2,0.4-0.5,0.6-0.4s-0.1,0.6-0.2,0.3"/>
							<path class="st8" d="M566.5,350c-1-0.2-2-0.4-3-0.1c-1,0.3-1.9,1-2,2c-0.1,1,0.8,2.1,1.8,1.9c0.6-0.1,1-0.5,1.4-0.9
								c1-1,2-2,3-3c0.3,1.4,0.6,2.7,0.9,4.1c0.5-1.1,1.7-2.4,2.7-1.7c0.4,0.2,0.6,0.7,1,1c1.2,0.9,2.8-0.6,3.5-2
								c-0.3,1.3,1.3,2.4,2.6,2s1.9-1.8,2-3.1c-1.2,0.2-2,1.6-1.6,2.8c1.8,0.1,3.6-0.9,4.4-2.5c0,0.7,0.1,1.4,0.1,2.2
								c0.8-0.4,1.7-0.5,2.6-0.4c0.6,0.1,1.3,0.4,1.9,0.4c0.7,0,1.4-0.3,1.5-1c0.7,1.6,3.3,1.9,4.3,0.5"/>
							<path class="st8" d="M601,353.8c0.5-0.7,0.9-1.6,0.8-2.4s-1.2-1.6-1.9-1c-0.3,0.2-0.4,0.6-0.5,0.9c-0.3,0.8-0.5,1.7-0.3,2.5
								c0.2,0.8,0.9,1.6,1.8,1.5c1.6-0.2,2.3-3.2,3.8-2.5c0.6,0.3,0.8,1.2,1.5,1.3c0.7,0.2,1.2-0.6,1.8-1c1.1-0.8,2.8-0.4,3.4,0.8
								c0.5-0.6,1-1.2,1.5-1.9c0.4,1.6,2.2,2.4,3.8,2.4c2.1,0,4.3-1.8,3.9-3.9c-0.1-0.5-0.4-1-0.8-1.2c-0.7-0.4-1.6,0.2-2,0.9
								c-0.4,0.7-0.3,1.6-0.3,2.4c0,0.6,0.1,1.3,0.4,1.9c0.9,1.5,3.3,1.4,4.5,0.1c1.2-1.2,1.6-3.1,1.9-4.8c-0.5,1.9,0.1,4.2,1.6,5.5
								"/>
							<path class="st8" d="M632.6,347.5c-0.2-1-0.2-2.4,0.8-2.9c0.7-0.4,1.6,0.1,2,0.8c0.4,0.7,0.4,1.5,0.4,2.3
								c-0.2,1.9-0.8,3.8-1.8,5.5c0.5-0.1,1.1,0.3,1.1,0.8c0.9,0.5,1.4,3.6,0.6,4.2c-1-0.7-0.2-2.7,1.1-2.5"/>
							<path class="st8" d="M564.5,363c0,3,0,6,0,9"/>
							<path class="st8" d="M568.1,367.4c-1,1.2-0.3,3.4,1.2,3.8c1.5,0.4,3.2-1,3.1-2.6c-0.2-1.6-2.2-2.6-3.6-1.8
								c0.9-1,2.3-1.5,3.7-1.3c1.3,0.3,2.5,1.4,2.8,2.7c0.2,0.8,0.6,2,1.4,1.7c0.3-0.1,0.5-0.5,0.6-0.8c0.3-0.9,0.6-1.8,0.4-2.7
								c-0.2-0.9-0.9-1.8-1.8-1.8c-0.9-0.1-1.8,0.9-1.5,1.8c2.1-1.7,4.3-3.4,6.4-5.1c-0.3,5-0.1,10.1,0.6,15.1c1.2-2.4,2-5,2.3-7.7
								c0.4,0.8,0.8,1.6,1.3,2.3c0.7-1.1,2-1.8,3.3-1.7c0.4,0,0.8,0.1,1.2,0c0.7-0.3,1-1.3,1.7-1.2c0.3,0,0.6,0.3,0.9,0.5
								c0.9,0.6,2.3,0.2,2.8-0.8c0.2,0.4,0.4,0.8,0.7,1.3"/>
							<path class="st8" d="M601.9,368.8c2-0.7,1.8-4.4-0.3-4.8c-0.7,1.4-1,2.9-1.1,4.4c0,1.1,0.5,2.5,1.6,2.5
								c0.5,0,0.9-0.4,1.3-0.7c1.3-1.2,2.7-2.4,4-3.7c0.8,1,1.7,2,3,2.4c1.2,0.4,2.8-0.3,3-1.6c0.5,0.7,1,1.4,1.8,1.6
								c0.8,0.3,1.9-0.2,1.8-1.1c0.4,2,3.3,2.9,4.7,1.5c1.4-1.4,0.6-4.3-1.4-4.7c-1.7,1.6-0.8,4.9,1.3,5.8c2.2,0.9,4.9-0.5,5.7-2.7
								c0.6,2.5,4.7,3.1,6,0.9c1.5,1.1,3.4,2.1,5.3,2c1.9,0,3.9-1.2,4.3-3.1c-0.5-1.3-2.1-1.9-3.3-1.3c-1.2,0.6-1.6,2.4-0.8,3.5
								c2.1,0.3,4.3-0.5,5.6-2.2c0.2,1.4,2.1,1.8,3.5,1.8c1.7,0,3.3,0,5,0.1c3.3,0,6.8,0,9.6-1.7c2.8-1.7,4.5-5.7,2.6-8.4
								c-0.6-0.9-1.6-1.5-2.5-2c-3.1-1.7-6.8-2.6-10.2-1.4c-3.3,1.2-5.8,4.9-4.9,8.3"/>
						</g>
					</g>
					<g>
						<path class="st8" d="M494.1,403.9c0.6,8.1,0.6,16.5-1.9,24.2c-2.5,7.8-7.8,14.9-15.4,18.1"/>
						<path class="st8" d="M442.5,451.9c0.3-0.5-0.5-1-1.1-0.8s-0.9,0.7-1.2,1.2c-0.6,1.2-1.2,2.8-0.1,3.6c0.9-1.1,1.6-2.3,2.3-3.5
							c0.1,0.9,0.6,1.7,1.3,2.3c0.5-0.3,0.8-0.8,1-1.3c1,0.3,1.7,1.3,1.5,2.2c0.6-0.6,1.1-1.2,1.7-1.8c-0.1,0.9,0.8,1.7,1.8,1.7
							c1,0,1.9-0.9,1.8-1.8c1.1,1.1,3.3,1,4.2-0.2s0.2-3.1-1.3-3.6c-1,1.7-0.8,3.9,0.5,5.5c2.9-0.2,5.2-2.9,4.7-5.5
							c-0.4,1.8,0.2,3.7,1.5,5.1c1-0.7,1.9-1.7,2.6-2.7c0.7,1,1.4,2,2.1,3c0.2-1.2,2.2-1,3.5-0.6c1.3,0.4,3.4,0.1,3.1-1.1
							c2.2,1.7,6.3,0.7,7.2-1.9c0.9,4.1,1.8,8.1,2.7,12.2c0.3,1.5,0.7,3.1,0.1,4.6c-0.6,1.5-2.5,2.6-4,2c-0.9-0.4-1.5-1.2-1.8-2.1
							c-1.2-2.9-0.2-6.4,2.3-8.5"/>
						<path class="st8" d="M487,454.8c0.6-1.6,0.7-3.4,0.3-5.1c-0.9,1.1-1.9,2.3-1.7,3.6s2.2,2.4,3.2,1.4c0.5-0.5,0.5-1.2,1.1-1.6
							c1-0.6,2.1,0.5,2.7,1.4c-0.8-0.9,0.7-2.2,2-2.1c1.3,0.1,2.4,0.9,3.7,1.1c2.5,0.3,4.8-2.3,3.9-4.4c-0.1-0.1-0.1-0.3-0.3-0.4
							c-0.2-0.1-0.4-0.1-0.6,0c-1.7,0.4-2.4,2.5-1.4,3.8c1,1.3,3.1,1.6,4.6,0.8s2.3-2.4,2.3-3.9c0.7,0.8,0.4,1.9,0.5,2.9
							c0.1,1,1.1,2.1,2.1,1.6c0.9-0.4,0.9-2,2-2c0.1,1,1.3,1.9,2.5,1.7c1.2-0.2,2-1.2,2.1-2.2c1.5,1.9,5.2,1.8,6.6-0.2
							c1,1.4,3.4,1.4,4.9,0.5c1.5-0.9,2.4-2.4,3.3-3.9c-1,1.2-2,3-0.9,4.1c1.2,1.2,3.4,0.3,4.6-0.9c2.6-2.4,3.8-6.1,2.5-9.2
							c-0.3-0.7-0.7-1.4-1.4-1.9c-1.6-1-3.9-0.4-5.2,0.9c-1.3,1.3-1.8,3-2.3,4.7"/>
						<path class="st8" d="M445.2,467.8c0-0.8,0-1.5,0-2.3c-2.1,0.5-3.1,3.2-1.6,4.5s4.8-0.2,4.1-2.1c0.9,0.9,1.8,1.7,2.7,2.6
							c0.5-1.2,1.4-2.2,2.5-3c0.3,0.9,0.8,1.8,1.6,2.5c0.2-0.6,0.5-1.2,0.7-1.8c0.8,0.6,1.7,1.3,2.5,1.9c0.9-0.7,1.6-1.6,1.9-2.7
							c0.6,1.9,4.6,1.4,4.6-0.6c0.7,1.3,2.5,2,4,1.5c1.5-0.4,2.5-1.9,2.2-3.3c-1.8-0.3-3.4,1.8-2.8,3.3c0.6,1.6,2.8,2.3,4.6,1.9
							c1.8-0.4,3.2-1.8,3.9-3.3c0.8,1.2,1.6,2.5,2.4,3.7c0.7-2.6,5.5-3.3,6.9-0.9c0.8-1,1.7-1.9,2.5-2.9c0.4,1,1.8,1.6,2.9,1.3
							c1.1-0.4,1.8-1.6,1.4-2.6c0.1,1.3,1.4,2.4,2.8,2.4c1.4,0.1,2.8-0.9,3.1-2.2c3,5.2,1.7,12.2-3,16.2c-1.9-1.8-2.5-4.5-1.7-6.8
							c0.9-2.3,3.2-4.1,5.9-4.5c0.2,0.7,0.4,1.3,0.6,2c0-1.1,0.9-2.1,2.1-2.3c1.2-0.2,2.4,0.5,2.8,1.5c0.4-0.6,0.9-1.3,1.3-1.9
							c0.7,0.3,1.4,0.6,2.1,0.9c0.7-0.6,1.4-1.2,2.1-1.8"/>
						<path class="st8" d="M520.1,466.9c1.4-0.9,2.2-2.4,2.2-4c0-0.8-0.7-1.8-1.5-1.6c-0.3,0.1-0.5,0.3-0.7,0.6
							c-1.3,1.7-1.8,3.8-1.2,5.8c0.1,0.3,0.2,0.6,0.4,0.9c0.7,0.6,2,0.1,2.6-0.6s1.1-1.6,2-2c0.5,0.5,1.1,1.1,1.6,1.6
							c-0.5-0.4,0.3-1.1,1-1c0.7,0.1,1.2,0.6,1.9,0.6c0.4,0,0.8-0.1,1.2-0.2c1.6-0.4,3.4-0.1,5-0.5c1.6-0.4,3.2-1.9,2.5-3.3
							c-1.8,0.7-2.8,2.7-2.1,4.4c1.6-0.8,2.9-2.1,3.6-3.6c1.5,2.8-1,6.6-4.4,6.9"/>
						<path class="st8" d="M449.2,483c0.6-0.4-0.1-1.3-0.8-1.1c-0.7,0.1-1.1,0.7-1.4,1.3c-0.8,1.7-1.3,4,0.2,5.2
							c1.1-1,2.1-1.9,3.2-2.9c0.8,0.8,1.2,1.9,1.3,2.9c0.4-1.1,1-2.2,1.8-3.1c1,0.9,1.6,2.2,1.6,3.4c0.9-1,1.6-2.1,2.1-3.3
							c0.6,0.9,1.2,1.8,1.8,2.7c-0.4-1.3,1.7-2.2,3.2-2c1.5,0.2,3.1,0.9,4.5,0.3c1.3-0.6,1.7-2.3,0.8-3.3c-1.5-0.9-3.6,1.2-2.8,2.7
							s3.3,1.7,4.8,0.8s2.3-2.6,2.6-4.2c-0.6,1.7-0.1,3.7,1.3,5c1.3-0.8,2.4-1.8,3.3-3c1.4,1.9,5.4,0.9,5.6-1.4
							c1.2,1.7,4.7,1.1,5.2-0.9c0.3,1.1,1.7,1.9,2.9,1.6c1.2-0.4,1.7-2,0.7-2.8c-0.6,1.1-1.3,2.2-1.3,3.4s1.1,2.5,2.5,2.4
							c1.3-0.1,2.1-1.2,2.9-2.1c0.8-0.9,2.4-1.5,3.3-0.7c0.7,0.7,0.5,2.3,1.5,2.5c0.6-2,4.3-2.5,5.5-0.7"/>
					</g>
				</g>
				<g id="Sheet_00000025417043272375730760000001547345363941754022_">
					<g>
						<path class="st9" d="M565.6,458.9c0,0.9,0,1.9,0.6,2.6c0.6,0.7,1.6,0.8,2.5,0.8c21,1.3,42.1,2.6,63.1,1.5
							c11.2-0.6,22.6-1.8,33.7,0.4c1.7-22.5,1.5-45.1-0.5-67.6c-23.4,1.2-46.9,1.1-70.3-0.4c-6.1-0.4-17.8-3.2-25.1,0.1
							c-2.6,1.2-2.5,7.3-2.2,9.9c0.6,4.8,0.2,9.3-0.1,14.1C566.5,433.2,565.9,446.1,565.6,458.9z"/>
						<path class="st9" d="M587.5,395.5c-0.1,22-0.3,45.7-0.3,67.7"/>
						<path class="st9" d="M607.8,397.4c-0.2,21.9-0.4,44.9-0.6,66.8"/>
						<path class="st9" d="M626.5,397.7c-0.6,22-1.1,44.2-1.7,66.3"/>
						<line class="st10" x1="646.2" y1="397.4" x2="646.2" y2="463.1"/>
						<path class="st9" d="M567.3,419.7c32.6-1,66.5-1.2,99.2-0.5"/>
						<path class="st9" d="M566.1,443.4c32.9-2,67.6-2.7,100.6-2.2"/>
					</g>
					<path class="st9" d="M571.1,408.1c0.2-0.1,0.1-0.4-0.1-0.5c-0.2-0.1-0.4,0-0.6,0.2c-0.5,0.5-0.4,1.5,0.3,1.8
						c0.7,0.3,1.6-0.2,1.6-0.9c0.6,0.6,1,1.3,1.2,2.1c0.9-1.2,2.6-1.7,4-1.2c0.7,0.5,1.6,0.8,2.4,0.4c0.8-0.3,1.2-1.5,0.6-2.1
						c-0.7,0.7-1,1.9-0.7,2.9c0.9-0.3,1.6-0.9,2.1-1.7c0.3,0.4,0.5,0.8,0.8,1.2c0.4-0.3,0.7-0.7,0.9-1.2c0.2,0.2,0.4,0.5,0.6,0.7
						c0.5,0,0.8-0.7,0.5-1"/>
					<path class="st9" d="M591.6,408.1c0.2-0.1,0.1-0.4-0.1-0.5s-0.4,0-0.6,0.2c-0.5,0.5-0.4,1.5,0.3,1.8c0.7,0.3,1.6-0.2,1.6-0.9
						c0.6,0.6,1,1.3,1.2,2.1c0.9-1.2,2.6-1.7,4-1.2c0.7,0.5,1.6,0.8,2.4,0.4c0.8-0.3,1.2-1.5,0.6-2.1c-0.7,0.7-1,1.9-0.7,2.9
						c0.9-0.3,1.6-0.9,2.1-1.7c0.3,0.4,0.5,0.8,0.8,1.2c0.4-0.3,0.7-0.7,0.9-1.2c0.2,0.2,0.4,0.5,0.6,0.7c0.5,0,0.8-0.7,0.5-1"/>
					<path class="st9" d="M612.3,408.1c0.1-0.1,0.1-0.4-0.1-0.5s-0.3,0-0.5,0.2c-0.4,0.5-0.3,1.5,0.2,1.8c0.5,0.3,1.2-0.2,1.3-0.9
						c0.5,0.6,0.8,1.3,1,2.1c0.7-1.2,2.1-1.7,3.2-1.2c0.6,0.5,1.3,0.8,1.9,0.4c0.6-0.3,0.9-1.5,0.5-2.1c-0.6,0.7-0.8,1.9-0.6,2.9
						c0.7-0.3,1.3-0.9,1.7-1.7c0.2,0.4,0.4,0.8,0.6,1.2c0.3-0.3,0.6-0.7,0.7-1.2c0.2,0.2,0.3,0.5,0.5,0.7c0.4,0,0.7-0.7,0.4-1"/>
					<path class="st9" d="M631.1,408.1c0.1-0.1,0.1-0.4-0.1-0.5s-0.3,0-0.5,0.2c-0.4,0.5-0.3,1.5,0.2,1.8s1.2-0.2,1.3-0.9
						c0.5,0.6,0.8,1.3,1,2.1c0.7-1.2,2.1-1.7,3.2-1.2c0.6,0.5,1.3,0.8,1.9,0.4c0.6-0.3,0.9-1.5,0.5-2.1c-0.6,0.7-0.8,1.9-0.6,2.9
						c0.7-0.3,1.3-0.9,1.7-1.7c0.2,0.4,0.4,0.8,0.6,1.2c0.3-0.3,0.6-0.7,0.7-1.2c0.2,0.2,0.3,0.5,0.5,0.7c0.4,0,0.7-0.7,0.4-1"/>
					<path class="st9" d="M651.4,408.1c0.1-0.1,0.1-0.4-0.1-0.5c-0.2-0.1-0.3,0-0.5,0.2c-0.4,0.5-0.3,1.5,0.2,1.8
						c0.5,0.3,1.2-0.2,1.3-0.9c0.5,0.6,0.8,1.3,1,2.1c0.7-1.2,2.1-1.7,3.2-1.2c0.6,0.5,1.3,0.8,1.9,0.4c0.6-0.3,0.9-1.5,0.5-2.1
						c-0.6,0.7-0.8,1.9-0.6,2.9c0.7-0.3,1.3-0.9,1.7-1.7c0.2,0.4,0.4,0.8,0.6,1.2c0.3-0.3,0.6-0.7,0.7-1.2c0.2,0.2,0.3,0.5,0.5,0.7
						c0.4,0,0.7-0.7,0.4-1"/>
					<g>
						<path class="st9" d="M573.1,430.1c-0.3-0.6-0.6-1.2-0.9-1.9c-0.5,0.5-0.9,1-1,1.6c0,0.6,0.7,1.3,1.2,1
							c0.6-0.3,0.7-1.3,1.3-1.2c0.3,0.1,0.4,0.3,0.6,0.5c0.5,0.5,1.5,0.4,2-0.2c0,0.6,0.8,0.9,1.4,0.6c0.5-0.3,0.8-0.8,1.1-1.3
							c0.4,0.5,1,0.8,1.7,0.7c0.6-0.1,1.2-0.7,1-1.3c-0.3,0-0.7-0.1-1-0.1c-0.4,0.8-0.7,1.7-0.6,2.6"/>
						<path class="st9" d="M572.2,435.2c0.4-0.6,0-1.5-0.7-1.7c-0.4,0.8-0.4,1.7-0.2,2.5c0.1,0.2,0.1,0.4,0.3,0.5
							c0.5,0.4,1.1-0.3,1.4-0.8c0.2-0.6,0.7-1.3,1.3-1.2c0.4,0.1,0.6,0.6,1,0.8c1,0.4,2-1.4,3-0.9c0.2,0.1,0.3,0.3,0.5,0.3
							c0.5,0.1,0.8-0.5,1.2-0.7c0.6-0.4,1.5,0.1,1.4,0.8c0.5,0,0.9-0.7,0.6-1.2"/>
					</g>
					<path class="st9" d="M569.5,454.2c0.2-0.8,0.1-1.7-0.3-2.4c-0.9,0.3-0.9,1.8-0.1,2.2s2-0.1,2.3-0.9c0.4-0.1,0.4,0.7,0.7,1
						c0.6,0.4,1-1,1.7-1c0.5,0,0.7,0.7,1.3,0.8c0.8,0.1,1.2-1.3,2-1.1c0.3,0.1,0.5,0.6,0.9,0.6c0.4,0,0.7-0.7,1.1-0.6
						c0.2,0,0.3,0.2,0.4,0.4c0.5,0.6,1.7,0.3,1.9-0.4"/>
					<path class="st6" d="M592.8,429.3c0.9,0.9,1.7,2,2.2,3.2c2.1-2.1,4.3-4,6.6-5.9"/>
					<path class="st6" d="M614.5,429.6c1.3,0.9,3.2,0.6,4.1-0.7c1.3-2-0.6-5-3-4.5C613.2,424.9,612.6,428.2,614.5,429.6z"/>
					<g>
						<path class="st6" d="M630.9,447.6c0.2,0.2,0.3,0.5,0.5,0.7c1.5,2,3.4,3.8,5.6,5.2"/>
						<path class="st6" d="M635.8,446.6c-1.2,3-2.8,5.9-4.7,8.6"/>
					</g>
					<path class="st6" d="M611.9,452c0.6,1,1.2,1.9,1.9,2.9c1.7-1.7,3.4-3.3,5.1-5"/>
					<path class="st6" d="M654.3,428.9c0.4,0.7,0.8,1.4,1.2,2c0.1,0.2,0.2,0.4,0.4,0.4c0.2,0,0.3-0.1,0.5-0.2
						c1.9-1.6,3.7-3.2,5.5-4.9"/>
				</g>
			</g>
			<g>
				<path class="st3" d="M495.9,622h-18.6c-1.6,0-2.8-1.3-2.8-2.8v-4.9c0-1.6,1.3-2.8,2.8-2.8h18.6c1.6,0,2.8,1.3,2.8,2.8v4.9
					C498.7,620.8,497.5,622,495.9,622z"/>
			</g>
			<g>
				<path class="st3" d="M633.1,622h-18.6c-1.6,0-2.8-1.3-2.8-2.8v-4.9c0-1.6,1.3-2.8,2.8-2.8h18.6c1.6,0,2.8,1.3,2.8,2.8v4.9
					C635.9,620.8,634.6,622,633.1,622z"/>
			</g>
			<path class="st3" d="M646.5,630.2H467.8c-1.2,0-2.1-0.9-2.1-2.1v-4c0-1.2,0.9-2.1,2.1-2.1h178.6c1.2,0,2.1,0.9,2.1,2.1v4
				C648.6,629.3,647.7,630.2,646.5,630.2z"/>
			<g id="Duster">
				<path class="st11" d="M582.9,622h-48.8v-9.3c0-2.2,1.8-4,4-4h40.2c2.6,0,4.6,2.1,4.6,4.6V622z"/>
				<rect x="534.1" y="618.7" class="st12" width="48.8" height="3.4"/>
			</g>
			<g id="Marker">
				<path class="st13" d="M580.1,608.7h-36.9c-0.4,0-0.8-0.4-0.8-0.8v-1.5c0-0.4,0.4-0.8,0.8-0.8h36.9c0.4,0,0.8,0.4,0.8,0.8v1.5
					C580.9,608.4,580.6,608.7,580.1,608.7z"/>
				<path class="st14" d="M570,605.7c0,0-1.2,1,0,3.1"/>
				<line class="st10" x1="567.3" y1="607.2" x2="574.5" y2="607.2"/>
			</g>
			<g id="Stickies">
				<g>
					<polygon class="st15" points="554.7,513.3 531.5,513.3 528.8,495.6 554.7,493.8 					"/>
					<path class="st16" d="M533.7,502.4c0.2-0.5-0.7-0.9-0.9-0.4c0.6,0,1.3,0.4,1.6,0.9c0.6-0.6,1.4-1.1,2.2-1.5
						c0.1,0.5,0.1,1,0.2,1.5c2.6,0.1,5.3-0.8,7.3-2.5c-0.4,0.7,0.6,1.6,1.4,1.4s1.4-0.9,1.8-1.6c1.2,0.6,2.7,0.7,4,0.5"/>
					<path class="st16" d="M536.3,508.6c1.3-0.4,2.4-1.2,3.3-2.2c0.3,0.3,0.6,0.6,0.9,0.9c2.7-0.3,5.4-0.6,8.1-0.9"/>
				</g>
				<g>
					<polygon class="st15" points="627.9,523.1 604.7,523.1 602,505.4 627.9,503.5 					"/>
					<path class="st16" d="M610.1,511.5c-0.4-0.4-0.7-0.8-1.1-1.2c-0.6-0.1-1.3,0.6-1.1,1.2c2.6-0.1,5.2-0.2,7.8-0.4
						c2.6-0.1,5.5-0.4,7.3-2.2c-0.4,0.6-0.1,1.6,0.6,1.8c0.7,0.3,1.6-0.2,1.7-0.9"/>
					<path class="st16" d="M612.1,518.1c-0.2-0.8-1.4-1.1-2-0.5c-0.5,0.6,0,1.8,0.8,1.8c0.7-1.6,2.8-2,4.6-1.8
						c1.8,0.2,3.6,0.7,5.2,0"/>
				</g>
				<g>
					<rect x="568" y="540" class="st15" width="25.8" height="17"/>
					<path class="st16" d="M575.5,548c0.6-0.6,0.7-1.5,0.3-2.2c-1.1,1.6-1.3,3.7-0.6,5.5c1.1-1.2,2-2.6,2.6-4
						c0.9,0.4,1.5,1.2,1.8,2.1c2.3-1.7,5.6-1.8,8.1-0.4c0.4-0.4,0.7-1.1,0.7-1.7c-1,0.4-1.8,1.3-2.2,2.3"/>
				</g>
				<g>
					<polygon class="st15" points="488.9,552.5 465.7,552.5 463.1,534.8 488.9,533 					"/>
					<path class="st16" d="M472,542.3c-0.2,0.8-0.3,1.5-0.5,2.3c1.7-0.1,3.4-0.3,5.1-0.4c0.8,0.3,1.7,0.7,2.5,1
						c0.5-1.2,1.7-2.1,2.9-2.2c0.5,0,1.1,0.8,0.6,0.8"/>
				</g>
				<g>
					<polygon class="st15" points="659.5,573.3 630.1,573.3 633.7,556.3 659.5,556.3 					"/>
					<path class="st16" d="M639.1,564.3c0-1-0.1-1.9-0.1-2.9c-1.7,0.5-2.8,2.4-2.5,4.1c0.9-0.5,1.8-1,2.7-1.6
						c3.1,0.2,6.3,0.4,9.4,0.7c2.9,0.2,6.7-0.2,7.4-3c-0.5,0.2-1.1,0.3-1.6,0.5"/>
				</g>
			</g>
			<g id="Text">
				<path class="st17" d="M578,570.4c0-0.5,0-1.1,0-1.6c-0.9-0.4-2,0.1-2.5,0.9c-0.6,0.8-0.7,1.8-0.7,2.8c-0.1,1.1,0.3,2.6,1.4,2.6
					c0.6,0,1.1-0.5,1.5-1c0.9-1.1,1.8-2.3,2.7-3.4c-0.2,1.6-0.2,3.3,0.2,4.9c0.7-1.3,1.5-2.5,2.5-3.6c0.6,0.7,1,1.5,1.3,2.3
					c0.6-0.3,1.1-0.7,1.5-1.2c0.8,1.4,2.8,2,4.2,1.2c1.4-0.8,1.9-2.9,1-4.2c-1.8,0-2.2,3.1-0.5,3.9s3.7-0.9,3.8-2.7
					c0.6,0.7,1.2,1.5,1.8,2.2c1.3-1.8,4.6-1.1,5.1,1c0.4-1.6,2-2.7,3.7-2.6c1.6,0.2,3,1.5,3.2,3.1c1-0.3,1.6-1.3,1.5-2.3
					c1.1,1.8,4.1,1.4,5.4-0.3c1.3-1.7,1.1-4.1,0.5-6.1c-3.3,1.6-5.2,5.6-4.3,9.2c1.9,0,3.3-1.5,4.7-2.8c1.4-1.3,3.5-2.4,5-1.3
					c0.6,0.4,1,1,1.2,1.7c0.6,1.7,0.4,3.8-0.6,5.3c-0.5-1.8-0.3-3.8,0.5-5.4c0.3-0.7,0.8-1.4,1.5-1.7c0.7-0.3,1.7,0,1.9,0.7"/>
				<path class="st17" d="M584.8,585.4c0.6-1.3-1.6-2.4-2.7-1.5c-1.1,0.9-1.2,2.5-1.2,4c0,0.6,0,1.2,0.3,1.6c0.6,1,2.2,1,3.2,0.2
					c0.9-0.8,1.4-2,1.7-3.1c0.6,1,1.2,1.9,1.9,2.9c1-0.8,1.9-1.6,2.9-2.3c1,0.8,1.9,1.8,2.6,2.9c0.6-0.8,1.2-1.5,1.8-2.3
					c2,0.5,3.8,1.6,5.8,1.9c2,0.3,4.4-0.5,5-2.5c0.7,1.6,3,2.2,4.4,1.2c1.4-1,1.6-3.3,0.4-4.6c-2.7,0.1-3.3,3.9-3.1,6.6
					c0.1,0.5,0.1,1.1,0.5,1.5c0.9,0.9,2.4,0,3.3-0.9c1.5-1.5,3-3,4.4-4.5c1.1,1.3,2.2,2.6,3.4,3.9c1.3-1.5,2.6-2.9,4-4.4
					c1.3,2,4.6,2.2,6.2,0.4c-0.7,1.2,1.2,2.5,2.6,2.2s2.7-1.2,4.1-1c0.7,0.1,1.3,0.5,1.9,0.5c1.3,0.1,2.4-1.2,2.6-2.5
					c0.2-1.3-0.3-2.6-0.7-3.9c-2.7-0.8-5.6,2.1-5,4.7c0.7,2.7,4.6,3.8,6.6,1.9c1.2-1.2,1.7-3.1,3.1-4c1.5-0.9,3.4-0.3,5,0.4
					s3.2,1.7,4.9,1.5c1.7-0.2,3.2-2.4,2.1-3.7"/>
				<path class="st17" d="M483,513.6c-0.6-0.6-1.5-0.7-2.2-0.3c-0.4,0.9-0.2,2.1,0.4,2.9c0.8-0.5,1.5-1.1,2.3-1.6c3,0.6,6,1,9.1,1.1
					c0.8,0,1.6,0,2.2-0.5c1.2-1,0.3-3-0.7-4.3c-1.1,1.3-2.2,2.8-2.3,4.5c-0.2,1.7,1.1,3.7,2.8,3.5c1.3-0.1,2.3-1.3,3.5-1.8
					c-0.3,1.3,0.1,2.7,1,3.6c0.9-1,2-1.9,3.2-2.6c0.2,0.9,1.4,1.3,2.3,1c0.9-0.3,1.5-1.1,2.1-1.9c3.3,1.4,7.5,2.5,9.9-0.1
					c-1,0.5-1.9,1-2.9,1.5"/>
				<path class="st17" d="M483.4,526.6c0.2-0.8,0.5-1.6,0.7-2.5c-0.9-0.6-2.1,0-2.6,0.9c-0.5,0.9-0.4,2-0.3,3.1
					c1.3,0.7,2.8-0.5,4-1.3c1.2-0.8,3.5-1,3.7,0.5c0.8-0.8,1.7-1.6,2.5-2.5c0.3,0.5,1,0.7,1.7,0.7c2.8,0.3,6.3,0.1,7.3-2.5
					c0.8,1.3,2.7,1.9,4.1,1.1c0.8-0.4,1.4-1.3,2.3-1.4c1.1-0.2,2.1,0.8,3.2,1.1c1.1,0.4,2.7-0.6,2.1-1.5c-0.3,0.5-0.7,0.9-1,1.4"/>
			</g>
		</g>
		<g id="Lady">
			<g id="Shaking_hands">
				<path class="st18" d="M562,523.3c0,0,24.3,5.8,28.1-3.1c3.7-9,12.9,20.8,12.9,20.8s-5.7-1.2-16.3,9.2c-10.6,10.4-36.6,0-36.6,0
					S539.6,539.6,562,523.3z"/>
				<path class="st18" d="M572.5,556.2c-1.2-0.1-4.8,1.4-6.2,1.2c-1.4-0.1-0.9,0-2,0.8c-0.5,0.4-1.3,0.5-2.3,0.1
					c-0.8-0.4-1.6-0.6-2.4-0.7c-4.8-0.3-19.7-1.4-21.8-1.3c-0.8,0-5.6,2.9-6.6,3c-3.4,0.6-3-4.3-3.5-7.7c-0.4-2.7-4.3-6.3-0.1-8.9
					c0,0,18.5-9.9,20.6-11.6c2.1-1.8,4.6-6.2,13.9-3.3s19.6,9,24.7,10.9c5.1,1.9,6.8,5,6.1,6.4c-0.7,1.4-4.6,0.8-7.9-0.7
					c-3.2-1.5-17.8-5.8-17.8-5.8s29.7,10.1,18.8,10.7c0,0-2.6,0.9-3.4,0.5c0,0-6.9,0.2-15.4-6.7c0,0,7,8,14,8.7c0,0,4.5,3.1-6.7,2.7
					c0,0-3.2,1-10.8-5.3C563.6,549.3,575.1,556.4,572.5,556.2z"/>
				<path class="st18" d="M535.7,555.4c0,0,4.2-10.4,5.7-7c1.5,3.4,0.6,6.2,0.6,6.2l1.7-5.2c0,0,4.4-8.5,3.7,0.3l-0.3,4.9
					c0,0,6.6-12.8,6.1-1.4l-0.3,2.7c0,0,3.8-9.2,4.4-2c0,0,1.5,2.5,2.3,4.8c0.8,2.4,0.2,4.2-4,3.1c-1-0.3-1.9-2.1-5.1-0.7
					c-0.4,0.2-0.8-0.1-1.2-0.1c-1-0.1-1-1-2.1-1.1c-0.9-0.1-2.7,0.5-3.5,0.4c-0.9-0.2-1.1-1.1-1.9-1.3c-1-0.2-2.6,0.3-3.4,0
					c-2.4-0.9-3.7-2.3-2.5-4.2"/>
				<path class="st18" d="M587.8,533c0,0-7.9,2.3-13.9-0.8s-12.3,0-12.3,0s-12.8,6.9-13.3,2.1c-0.6-4.8,13.3-10.9,13.3-10.9"/>
			</g>
			<g>
				<path id="R_hand_00000029739962288651880140000001107978724182205111_" class="st19" d="M420.1,477.3c0,0,19.4-5.4,28.9,2.7
					c13.2,11.4,10.3,162.8,14.5,177.4c4.2,14.6-30.2,16.9-30.2,16.9L420.1,477.3z"/>
				<g id="Neck_00000047018116861032362220000006913624345062571155_">
					<path id="neck" class="st20" d="M420.2,445c-0.4,1.5-10.7,19.6-6.4,24.9s35.5,13.5,35.1,15c-0.5,1.5-32.3,22-76.9,16.2
						c0,0-63.1,12.3,1.8-27.6c0,0,19.3-19.1,20.4-35.5S420.2,445,420.2,445z"/>
					<path class="st20" d="M404.6,464.9c0,0-5.2,8.2-2.7,9.9"/>
				</g>
				<path id="Dress" class="st19" d="M448.9,484.9c0,0-39.9-6.6-44.5-1.4c-4.6,5.1-71.7,6.8-64.5,38.6c4.8,21.1,15.7,38.3,22.3,56.5
					c4.7,12.9,7.3,26.4,3.9,42.1c-8.2,37.7-46.4,136.2-11.6,259.3c0,0-16.4,101.7,16.1,94.8c0,0,14.3,7,43.8,0.3
					c29.5-6.6,45.8,2.8,61.5-9.8c10.7-8.6,1.9-26.3,0.5-37.7c-2.9-23.4-2.8-47.3-2.1-70.8c0.5-15.2,6.3-27.2,7.8-42.1
					c1.5-16.2-0.4-32.6-3.2-48.6c-5.8-31.9-15.5-63-20.8-95c-3.3-19.8-4.8-40.2-2.5-60.2c1.2-10.1,4.4-19.4,6.5-29.2
					c1.6-7.6,1.6-15.2,5-22.6C479.7,532.2,482,538.6,448.9,484.9"/>
				<path id="L_hand_00000121989995557612185360000000932905132668600502_" class="st19" d="M346.9,534.1c0,0-16.6-24.9,1.6-41.2
					c18.2-16.3,75.6,62.8,104.5,59c28.9-3.8,69.5-18.4,72.4-12.1s10,27.6,2.9,30.1c-7.1,2.5-75.5,19.3-84.6,15.1
					C434.5,580.8,407.1,583.1,346.9,534.1z"/>
				<path id="Belt" class="st21" d="M367.6,610.4c0,0,66.8,18.4,87.6,6.2l-0.4,7.1c0,0-27.1,9.7-87.6-6.6L367.6,610.4z"/>
			</g>
			<g id="Lines_00000113321972192143872340000006409994759289369219_">
				<path class="st22" d="M445.9,578.6c0,0,1.2,3.3,7.4,1.7"/>
				<path class="st19" d="M372.6,584.4c0,0,3.8,0.5,5.8-0.8"/>
				<path class="st22" d="M476,826.6c0,0-25.9,80.6-24.3,103.6"/>
				<path class="st22" d="M356.7,900.5c0,0-3.9-11.7-2.1-20"/>
				<path class="st22" d="M427,766.5c0,0-2.5,10.5-10.9,20.5"/>
			</g>
			<g id="Expressions">
				<path id="Facecut_00000112612487837869442740000008744433664601950121_" class="st20" d="M370.8,409.2c2,3.9,6.5,28.4,48.4,47.3
					c1.5,0.7,3.2,0.9,4.9,0.5c6.3-1.5,20.4-9.4,18.7-49.3C440.7,356.4,389,360,389,360S354,375.3,370.8,409.2z"/>
				<g id="L_Eyebrow">
					<path d="M411.6,406.6c0.2-1.1,0.7-2,1.3-2.8c0.6-0.8,1.5-1.6,2.5-2.1c1-0.5,2.3-0.6,3.5-0.2c1.1,0.4,1.9,1.3,2.3,2.2
						c-1-0.3-1.9-0.7-2.7-0.7c-0.8,0-1.5,0.2-2.3,0.5c-0.7,0.3-1.5,0.8-2.2,1.3C413.3,405.4,412.5,406,411.6,406.6z"/>
				</g>
				<g id="E_Eyebrow_00000037658060951451732940000001644195547082230687_">
					<path d="M431.4,398.5c0-1,0.3-1.9,0.8-2.7c0.5-0.8,1.3-1.5,2.3-1.9c0.3-0.1,0.5-0.2,0.8-0.2c0.3,0,0.5,0,0.8-0.1
						c0.5,0.1,1.1,0.2,1.5,0.4c0.5,0.2,0.8,0.6,1.2,0.9c0.3,0.4,0.6,0.8,0.8,1.2c-0.5-0.1-0.9-0.2-1.3-0.3c-0.4-0.1-0.8-0.2-1.2-0.2
						c-0.7-0.1-1.3,0-1.9,0.2c-0.6,0.2-1.2,0.6-1.8,1.1C432.7,397.3,432.1,397.9,431.4,398.5z"/>
				</g>
				<ellipse id="L_Eye" class="st23" cx="418.2" cy="414.3" rx="1.9" ry="4.3"/>
				<ellipse id="R_Eye" class="st23" cx="436.8" cy="405.7" rx="1.9" ry="4.3"/>
				<path id="Nose" class="st22" d="M428.7,408.5c0,0-2.8,6.2,2.3,10c5.1,3.9,0.7,3.8-1.2,4.7"/>
				<path id="Mouth" class="st24" d="M431,432.2c0,0-5.1,4.9-12.2,2.2C418.8,434.4,426.3,452.5,431,432.2z"/>
			</g>
			<g id="Hair_00000133507199901029491000000014646332696153651600_">
				<path class="st25" d="M393.6,327.2c0,0,64.9,4.9,49.2,77.5c0,0-15.4-35.5-37.8-55.1S393.6,327.2,393.6,327.2z"/>
				<path class="st25" d="M368.5,466.1c0,0-79.1-87.1-12.7-126.2s57.5,0.6,61.9,14.5c4.4,13.8-4.9,78.8-18.3,92.4
					c-14.8,15-17.4,25.4-17.4,25.4L368.5,466.1z"/>
				<path class="st25" d="M365.8,474.8c0,0-20.6,19.5,5,50.9s36.6,33.9,36.6,33.9s3.9-26.3-9.7-41.1s5.7,1.6,3.5-3.8
					c-2.2-5.4,6.2-16.3-20.1-42.7C381.1,472,374.5,465.9,365.8,474.8z"/>
				<path id="Rubber_band_00000040564734042533678190000014833286394390517168_" class="st26" d="M366.3,466.1c0,0-2.8,0.7-0.8,4.4
					c2,3.6,15.2,3.3,15.2,3.3s4.4-1.3,0.7-5.4C377.8,464.1,367.7,464.3,366.3,466.1z"/>
				<path class="st25" d="M419.7,365.6c0,0,33.1,29.1,25.9,73.8c-0.2,1.2-0.4,2.4-0.5,3.6c-0.7,6.6-3.1,28.8-4.3,25.4
					c0,0,3.1-50.2-0.6-64.5C437.9,394.8,425.9,376.3,419.7,365.6z"/>
			</g>
		</g>
		<g id="Man">
			<g id="Pants">
				<path class="st27" d="M784.8,674.3c0,0,15.9,55-11,80.5l18.4,280.9l-36.9,7.5l-17.9-301.9L784.8,674.3z"/>
				<path class="st27" d="M784.8,687.4c0,0,0.6,50.6-30.1,67.6l15.1,286.9c0,0-45.9,32-57.5,7.5c-11.6-24.5-46.4-355.1-46.4-355.1
					L784.8,687.4z"/>
			</g>
			<g id="Body">
				<path id="L_hand" class="st28" d="M669.8,456c0,0-24.7,33.3-27.8,35.2c-3.1,1.9-38.9,18.8-43.9,17.6s9.4,46.5,14.4,49.9
					s66.3-31.7,67.6-39.2C681.4,511.9,691.9,483.7,669.8,456z"/>
				<g id="Shirt">
					<path class="st29" d="M598,508.8c0,0-12.1-1.6,11.8,50.6c0,0,11.9,5.2,2.7-17.6C612.5,541.8,602.9,508.8,598,508.8z"/>
					<path id="Sleeve" class="st20" d="M598.1,515.3c-1.2,1.3-11.2,2.5-11.2,5c0,2.5,8.8,27.3,12.6,29.5c3.8,2.2,13.6-5.3,13.6-5.3
						S605.5,507.5,598.1,515.3z"/>
					<ellipse id="Button" class="st30" cx="605.8" cy="545" rx="1.2" ry="1.8"/>
				</g>
				<path id="Neck" class="st18" d="M746.5,378.5c0,0-3.7,3,1.6,7.8c5.3,4.8-15.5,12.4-32.7,21.4c0,0-5.5-5.1-5.7-10.3
					c-0.1-5.2,23.2-30,32.3-26.7C751.2,374.1,746.5,378.5,746.5,378.5z"/>
				<path id="Blazer" class="st28" d="M684.8,423.2c19.4-11.8,51.4-31.1,63.3-36.9c0,0,11.3-7.1,11.1,0c0,0,0.2,3.6,4.6,9.6
					c4.4,6.1,40.6-21.2,25.4,156.1c0,0,11.2,73.2,36.3,132.2c0,0-13.8,25.1-65.3,22c0,0-23.9-10.7-81,5
					c-57.1,15.7-33.9,15.9-35.8-19c-1.8-33.5,24.1-106,25.7-241.4C669.3,439.5,675.2,429.1,684.8,423.2z"/>
				<path id="R_hand_00000093897741452118544690000010754286824135600313_" class="st20" d="M720.5,700.6c0,0,0.4,0.2,0,3.4
					c-0.7,5.6-2,16-0.4,20.1c2.6,6.4-27.2-2.7-28.2-5.2c-0.7-1.8,5.1-12.7,8.4-18.9c1.3-2.5,2-4,2-4L720.5,700.6z"/>
				<path id="Pocket" class="st29" d="M672.2,651c0,0,20.5-3.3,29.5,0C701.7,651,704.8,653.9,672.2,651z"/>
				<g id="Shirt_00000173847087905712747670000013624999303767326860_">
					<path id="Sleeve_00000092432301079884643900000000363750421179095431_" class="st20" d="M696.5,687.4c0,0-2.5,8,0,9.9
						s25.6,5.5,28,3.4c2.4-2.1,4.6-13.3,4.6-13.3H696.5z"/>
					
						<ellipse id="Button_00000137098230402839915230000002039268879113757347_" class="st30" cx="698.1" cy="693.9" rx="1.2" ry="1.8"/>
				</g>
				<path id="Pocket_00000122716839521418681840000012457651660348853635_" class="st18" d="M685,715c0,0,8.3,16.2,40.3,11.4"/>
				<g id="Watch">
					<polygon class="st31" points="700.3,700.1 720.5,703.7 719.8,709.1 698.1,705 					"/>
					<circle class="st32" cx="709.3" cy="704.6" r="4.5"/>
					<line class="st33" x1="705.2" y1="703.1" x2="706.3" y2="703.4"/>
					<line class="st33" x1="712.3" y1="705.5" x2="713.3" y2="705.9"/>
					<line class="st33" x1="711.4" y1="700.9" x2="710.8" y2="701.9"/>
					<line class="st33" x1="708.1" y1="707.5" x2="707.5" y2="708.5"/>
					<circle class="st34" cx="709.3" cy="704.9" r="0.3"/>
					<line class="st35" x1="709.2" y1="704.8" x2="707.5" y2="703.1"/>
					<line class="st35" x1="709.3" y1="704.7" x2="709.5" y2="701.2"/>
				</g>
				<path id="R_hand" class="st28" d="M674.7,453.6c0,0,9.1-40.5,42.6-26c31.6,13.6,17.3,40.4,44.5,111.7c3.4,8.8,4.2,18.3,2.4,27.5
					c-5.9,29.7-19.6,96.9-26.7,122.5c0,0-35.8,11.3-43.6,0c-7.7-11.3,22.3-104.5,19.5-130.9C710.6,532,670.2,479.6,674.7,453.6z"/>
				<g id="Lines">
					<path class="st28" d="M752.6,548.2c0,0,5.8,13.5,0,18.2"/>
					<path class="st22" d="M642,491.2c0,0,6.8-3.7,11-0.4"/>
					<path class="st36" d="M650.7,484.5c0,0,2.3,0.3,2.3,3.3"/>
					<path class="st29" d="M787.3,566.4c0,0-5.6,30.4-2.5,41.7"/>
					<path class="st28" d="M770.4,410c0,0,7.5,14,3.4,35.8"/>
				</g>
			</g>
			<g id="Face">
				<path id="Facecut" class="st18" d="M674.7,358.7c0,0,4.7,5.4,10.6,9.2c5.9,3.8-9.4,26.9-0.2,31.9c6.2,3.4,28.5-17.7,46.1-31.2
					c8.5-6.6,17.2-3.7,20-10c8.4-19.5-23-66.7-43.1-64.7c-20.1,2.1-42.4,11.6-42.4,11.6s-2.2,6.6-1.3,11.6s8.6,28.9,0.5,39.5
					c0,0-3.5,4.2,9.9,2"/>
				<g id="Hair">
					<path class="st25" d="M716.1,265.1c0,0,9-6.9,12.1-2.7c0,0,11.2-5.3,14.2-0.3c0,0,8.3-3.6,12.2,4.2c0,0,7.5,1.5,8.6,10.8
						c0,0,29,62.5-9.2,92.1c0,0-3.5,9-13.1,12c-9.6,3-14.1-29.6-14.1-29.6s2-31.3-9.5-16c0,0-5.7-3.3-6.5-12.6c0,0-26.7-9.9-23-30.9
						C691.5,271.1,716.1,265.1,716.1,265.1z"/>
					<path class="st25" d="M728.2,262.4c0,0,18.7,32.8-10.9,73.2"/>
					<path class="st22" d="M716.1,265.1c0,0,17.4,22.2-5.3,58"/>
					<path class="st22" d="M705.8,269.3c0,0,19.2,10-3.7,48.1"/>
					<path class="st22" d="M698.2,274.5c0,0,11,5.8-2.9,38"/>
					<g>
						<path class="st25" d="M714.8,265.1c6.4,5.9-11.9,43-20.9,46.3c0,0-33.1,11.3-46-13c0,0,2.2-7,7.7-8.3c0,0,3.3-6.9,8.7-5.5
							c0,0,4.7-7.9,9.2-5.1c0,0,5.3-9.5,11.2-5.6c0,0,6-10.3,14.9-6.2C699.6,267.8,708.1,258.9,714.8,265.1z"/>
						<path class="st22" d="M693.9,311.4c-23.2,0-38.3-21.3-38.3-21.3"/>
						<path class="st22" d="M664.3,284.7c0,0,23.5,24.1,31.8,25.5"/>
						<path class="st22" d="M673.5,279.5c0,0,6.4,18.4,28.7,23.6"/>
						<path class="st22" d="M684.7,274c0,0,1,19.3,21.2,23.4"/>
						<path class="st22" d="M699.6,267.8c0,0-8.3,18.7,10.1,22.4"/>
					</g>
					<path class="st22" d="M726.8,351.7c35.7-51.7,15.6-89.6,15.6-89.6"/>
					<path class="st22" d="M753.9,265.1c0,0,27.1,55.4-23.3,101.9"/>
				</g>
				<path id="E_Eyebrow" class="st23" d="M667.1,334.1c0,0-2.2-3.6-0.5-3.9s13.8-5.3,19.7-0.8C686.2,329.5,668.5,328.2,667.1,334.1z
					"/>
				<path id="Beard" class="st25" d="M715.1,333.7c0,0,9.3,24.7-3.1,33.3c-1.8,1.2-15.8-0.6-21.1-5.4c-7.7-7-18.5-2.5-18.5-2.5
					s-2.5,13.4,7.7,11.2c5.9-1.3-1.1,2.7-2.9,5.1c-1.7,2.4-0.6,26.3,11.3,31.5c11.9,5.2,43.7-12.7,42.6-36.4l-4.4-19.1
					c0,0-2.3,5.4-4.3,1.4c-2-3.9-3.7-17.2-4.8-17.6L715.1,333.7z"/>
				<path class="st25" d="M701.7,393.3c0,0-0.5,3.8-2.2,4.3"/>
				
					<ellipse id="Eye" transform="matrix(0.9927 -0.1204 0.1204 0.9927 -35.9984 83.835)" class="st23" cx="676" cy="339.9" rx="2.6" ry="4.6"/>
			</g>
		</g>
	</g>
</g>
</svg>
