<?xml version="1.0" encoding="utf-8"?>
<!-- Generator: Adobe Illustrator 16.0.0, SVG Export Plug-In . SVG Version: 6.00 Build 0)  -->
<!DOCTYPE svg PUBLIC "-//W3C//DTD SVG 1.1//EN" "http://www.w3.org/Graphics/SVG/1.1/DTD/svg11.dtd">
<svg version="1.1" id="Layer_1" xmlns="http://www.w3.org/2000/svg" xmlns:xlink="http://www.w3.org/1999/xlink" x="0px" y="0px"
	 width="720px" height="350.287px" viewBox="0 0 720 350.287" enable-background="new 0 0 720 350.287" xml:space="preserve">
<g>
	<g>
		<polygon fill="#F3F3F3" points="153.637,257.545 262.185,69.536 302.195,138.834 233.85,257.215 		"/>
		<polyline fill="#FFFFFF" points="248.93,257.545 330.31,257.215 438.861,69.202 398.906,0 247.69,257.545 		"/>
		<g>
			<g>
				<path fill="#8062AA" d="M458.237,191.592c32.157,0,58.236,26.07,58.236,58.228c0,2.381-0.185,4.713-0.465,7.018l54.834-0.223
					L458.508,62.041L345.631,257.545l54.906-0.232c-0.314-2.459-0.537-4.947-0.537-7.492
					C400,217.662,426.079,191.592,458.237,191.592z"/>
				<path fill="#8062AA" d="M458.237,308.057"/>
			</g>
		</g>
	</g>
	<g enable-background="new    ">
		<path fill="#F3F3F3" d="M51.424,318.263c0.941,1.072,1.581,2.111,1.921,3.116c0.339,1.007,0.509,2.634,0.509,4.881v12.778
			c0,1.07,0.202,1.835,0.607,2.293c0.405,0.456,1.157,0.73,2.254,0.823c1.098,0.091,1.999,0.516,2.705,1.273
			s1.059,1.686,1.059,2.783c0,1.149-0.399,2.116-1.196,2.9c-0.797,0.784-1.81,1.176-3.038,1.176c-1.751,0-3.437-0.464-5.057-1.392
			c-1.621-0.928-3.031-2.437-4.233-4.527c-0.758-1.358-1.137-2.939-1.137-4.742v-14.15c0-1.123-0.183-1.895-0.549-2.313
			c-0.366-0.418-1.15-0.699-2.352-0.843c-1.202-0.144-2.124-0.568-2.763-1.274c-0.641-0.705-0.96-1.633-0.96-2.783
			c0-1.176,0.32-2.116,0.96-2.822c0.64-0.705,1.568-1.13,2.783-1.273c1.215-0.144,1.953-0.385,2.215-0.726
			c0.444-0.522,0.667-1.332,0.667-2.43v-13.405c0-2.875,1.044-5.363,3.136-7.468c2.09-2.103,4.507-3.155,7.251-3.155
			c1.254,0,2.279,0.393,3.077,1.176c0.797,0.784,1.196,1.751,1.196,2.901c0,1.071-0.353,1.986-1.059,2.743
			c-0.706,0.759-1.621,1.189-2.744,1.294c-1.124,0.104-1.83,0.34-2.117,0.705c-0.47,0.549-0.706,1.359-0.706,2.431v12.778
			c0,1.803-0.176,3.194-0.529,4.175C52.973,316.166,52.339,317.192,51.424,318.263z"/>
		<path fill="#F3F3F3" d="M110.495,303.604c0.966-0.915,1.96-1.372,2.979-1.372c1.149,0,2.097,0.411,2.842,1.234
			s1.117,2.189,1.117,4.097v5.174c0,1.935-0.373,3.306-1.117,4.115c-0.745,0.811-1.719,1.216-2.92,1.216
			c-1.098,0-2.025-0.313-2.783-0.941c-0.549-0.47-0.98-1.431-1.293-2.881c-0.314-1.45-1.072-2.528-2.274-3.233
			c-2.116-1.255-4.821-1.882-8.114-1.882c-3.789,0-6.827,1.111-9.113,3.332c-2.287,2.222-3.43,5.03-3.43,8.428
			c0,3.136,1.098,5.611,3.292,7.428c2.195,1.816,5.84,2.724,10.936,2.724c3.345,0,6.076-0.339,8.192-1.019
			c1.254-0.418,2.443-1.13,3.567-2.137c1.123-1.005,2.143-1.509,3.058-1.509c1.097,0,2.044,0.405,2.842,1.215
			c0.796,0.811,1.195,1.764,1.195,2.861c0,1.777-1.215,3.463-3.646,5.057c-3.606,2.378-8.885,3.567-15.835,3.567
			c-6.246,0-11.106-1.294-14.582-3.881c-4.704-3.475-7.056-8.231-7.056-14.268c0-5.723,1.907-10.459,5.723-14.209
			c3.815-3.75,8.793-5.625,14.934-5.625c2.221,0,4.285,0.209,6.193,0.627C107.11,302.141,108.874,302.768,110.495,303.604z"/>
		<path fill="#F3F3F3" d="M153.376,337.744v-1.882c-2.013,1.072-4.233,1.876-6.664,2.411c-2.431,0.535-4.639,0.804-6.625,0.804
			c-4.312,0-7.814-1.144-10.505-3.43c-2.692-2.287-4.037-4.814-4.037-7.585c0-3.371,1.718-6.5,5.154-9.388
			c3.436-2.888,8.186-4.331,14.248-4.331c2.43,0,5.239,0.261,8.428,0.783v-1.92c0-1.202-0.517-2.182-1.548-2.94
			c-1.033-0.758-2.999-1.137-5.899-1.137c-2.378,0-5.462,0.471-9.25,1.411c-1.411,0.34-2.509,0.51-3.292,0.51
			c-1.072,0-1.979-0.385-2.724-1.156c-0.745-0.771-1.117-1.757-1.117-2.959c0-0.68,0.13-1.268,0.392-1.765
			c0.261-0.496,0.627-0.895,1.098-1.195c0.471-0.3,1.45-0.659,2.94-1.078c1.985-0.549,4.011-0.985,6.076-1.313
			c2.064-0.327,3.933-0.49,5.605-0.49c4.991,0,8.865,1.078,11.622,3.233c2.757,2.156,4.135,5.103,4.135,8.839v16.542h1.372
			c1.934,0,3.312,0.372,4.135,1.117c0.823,0.744,1.235,1.718,1.235,2.92c0,1.176-0.412,2.136-1.235,2.881s-2.202,1.117-4.135,1.117
			H153.376z M153.376,323.358c-3.214-0.627-6.181-0.94-8.898-0.94c-3.267,0-6.076,0.798-8.427,2.391
			c-1.464,1.02-2.195,2.052-2.195,3.097c0,0.759,0.353,1.372,1.059,1.843c1.306,0.862,3.096,1.293,5.37,1.293
			c1.934,0,4.122-0.378,6.566-1.137c2.443-0.757,4.618-1.789,6.526-3.097V323.358z"/>
		<path fill="#F3F3F3" d="M194.377,327.984l8.663-17.796c-2.143,0-3.515-0.183-4.116-0.549c-1.307-0.81-1.96-1.973-1.96-3.488
			c0-1.176,0.412-2.137,1.235-2.881c0.823-0.745,2.201-1.117,4.135-1.117h11.015c1.933,0,3.312,0.372,4.135,1.117
			c0.823,0.744,1.234,1.718,1.234,2.92c0,1.176-0.411,2.136-1.234,2.881s-2.202,1.117-4.135,1.117h-1.333l-13.444,27.556h-8.389
			l-13.444-27.556h-1.137c-1.934,0-3.313-0.372-4.135-1.117c-0.823-0.745-1.235-1.718-1.235-2.92c0-1.176,0.412-2.137,1.235-2.881
			c0.823-0.745,2.201-1.117,4.135-1.117h10.779c1.907,0,3.273,0.372,4.096,1.117c0.823,0.744,1.234,1.718,1.234,2.92
			c0,1.489-0.627,2.626-1.881,3.41c-0.627,0.392-2.025,0.588-4.194,0.588L194.377,327.984z"/>
		<path fill="#F3F3F3" d="M262.659,324.025h-32.965c0.836,2.091,2.319,3.776,4.449,5.057c2.129,1.28,5.01,1.92,8.643,1.92
			c2.979,0,6.938-0.64,11.876-1.92c2.039-0.522,3.45-0.784,4.233-0.784c1.071,0,1.973,0.379,2.705,1.137
			c0.731,0.758,1.098,1.712,1.098,2.861c0,1.045-0.392,1.934-1.176,2.665c-1.045,0.967-3.593,1.889-7.644,2.764
			c-4.051,0.875-7.944,1.313-11.681,1.313c-6.429,0-11.57-1.816-15.424-5.449c-3.855-3.632-5.782-8.1-5.782-13.405
			c0-5.645,2.083-10.236,6.252-13.777c4.168-3.541,8.97-5.312,14.405-5.312c3.266,0,6.265,0.575,8.996,1.725
			c2.73,1.15,4.763,2.391,6.095,3.724c1.881,1.935,3.436,4.325,4.665,7.173c0.836,1.986,1.254,4.286,1.254,6.899V324.025z
			 M253.761,315.989c-1.229-2.299-2.836-4.018-4.821-5.154c-1.986-1.137-4.351-1.705-7.095-1.705c-2.718,0-5.07,0.568-7.056,1.705
			s-3.606,2.855-4.86,5.154H253.761z"/>
		<path fill="#F3F3F3" d="M288.999,302.153v5.017c3.371-2.43,6.03-4.05,7.977-4.86c1.946-0.81,3.769-1.215,5.468-1.215
			c2.612,0,5.147,0.967,7.604,2.9c1.672,1.308,2.509,2.64,2.509,3.998c0,1.15-0.399,2.124-1.196,2.921
			c-0.797,0.797-1.758,1.195-2.881,1.195c-0.993,0-2.038-0.496-3.136-1.489s-2.078-1.49-2.94-1.49c-1.124,0-2.802,0.706-5.037,2.117
			s-5.024,3.527-8.369,6.35v12.112h11.445c1.934,0,3.313,0.372,4.136,1.117c0.823,0.744,1.234,1.718,1.234,2.92
			c0,1.176-0.412,2.136-1.234,2.881c-0.823,0.745-2.202,1.117-4.136,1.117h-24.263c-1.934,0-3.313-0.372-4.135-1.117
			c-0.823-0.745-1.235-1.718-1.235-2.92c0-1.176,0.412-2.137,1.235-2.881c0.823-0.745,2.201-1.117,4.135-1.117h4.782v-19.521h-2.9
			c-1.934,0-3.312-0.372-4.135-1.117s-1.235-1.718-1.235-2.92c0-1.176,0.412-2.137,1.235-2.881c0.823-0.745,2.201-1.117,4.135-1.117
			H288.999z"/>
		<path fill="#F3F3F3" d="M330.705,302.153v2.704c1.463-1.254,3.077-2.195,4.841-2.822c1.764-0.627,3.678-0.94,5.743-0.94
			c4.756,0,8.519,1.477,11.289,4.43c2.195,2.352,3.293,5.436,3.293,9.25v14.935c1.698,0,2.953,0.372,3.763,1.117
			c0.81,0.744,1.215,1.718,1.215,2.92c0,1.176-0.412,2.136-1.235,2.881s-2.202,1.117-4.135,1.117h-7.251
			c-1.934,0-3.313-0.372-4.135-1.117c-0.823-0.745-1.235-1.718-1.235-2.92c0-1.176,0.405-2.137,1.215-2.881
			c0.81-0.745,2.064-1.117,3.763-1.117v-15.17c0-1.75-0.47-3.03-1.411-3.841c-1.229-1.045-3.071-1.568-5.527-1.568
			c-1.855,0-3.482,0.359-4.88,1.078c-1.398,0.719-3.169,2.241-5.312,4.566v14.935c2.064,0,3.397,0.195,3.998,0.588
			c1.28,0.784,1.921,1.934,1.921,3.449c0,1.176-0.412,2.136-1.235,2.881c-0.823,0.745-2.202,1.117-4.135,1.117h-9.133
			c-1.934,0-3.312-0.372-4.135-1.117s-1.235-1.718-1.235-2.92c0-1.463,0.627-2.6,1.881-3.41c0.627-0.393,1.973-0.588,4.038-0.588
			v-19.521c-1.699,0-2.954-0.379-3.763-1.137c-0.81-0.758-1.215-1.725-1.215-2.9s0.412-2.137,1.234-2.881
			c0.823-0.745,2.201-1.117,4.136-1.117H330.705z"/>
		<path fill="#F3F3F3" d="M394.243,337.744v-1.882c-2.013,1.072-4.233,1.876-6.663,2.411c-2.431,0.535-4.639,0.804-6.625,0.804
			c-4.312,0-7.813-1.144-10.505-3.43c-2.691-2.287-4.036-4.814-4.036-7.585c0-3.371,1.718-6.5,5.153-9.388
			c3.437-2.888,8.186-4.331,14.249-4.331c2.43,0,5.238,0.261,8.427,0.783v-1.92c0-1.202-0.516-2.182-1.548-2.94
			c-1.033-0.758-2.999-1.137-5.899-1.137c-2.378,0-5.462,0.471-9.251,1.411c-1.41,0.34-2.508,0.51-3.292,0.51
			c-1.072,0-1.979-0.385-2.725-1.156c-0.744-0.771-1.117-1.757-1.117-2.959c0-0.68,0.131-1.268,0.393-1.765
			c0.261-0.496,0.627-0.895,1.098-1.195c0.47-0.3,1.45-0.659,2.939-1.078c1.985-0.549,4.011-0.985,6.075-1.313
			s3.933-0.49,5.605-0.49c4.991,0,8.865,1.078,11.622,3.233c2.757,2.156,4.136,5.103,4.136,8.839v16.542h1.371
			c1.934,0,3.313,0.372,4.136,1.117c0.823,0.744,1.234,1.718,1.234,2.92c0,1.176-0.411,2.136-1.234,2.881s-2.202,1.117-4.136,1.117
			H394.243z M394.243,323.358c-3.214-0.627-6.18-0.94-8.897-0.94c-3.267,0-6.075,0.798-8.428,2.391
			c-1.464,1.02-2.194,2.052-2.194,3.097c0,0.759,0.353,1.372,1.058,1.843c1.307,0.862,3.097,1.293,5.37,1.293
			c1.934,0,4.122-0.378,6.565-1.137c2.443-0.757,4.619-1.789,6.526-3.097V323.358z"/>
		<path fill="#F3F3F3" d="M441.241,307.523c0,1.516-0.536,2.782-1.607,3.802s-2.548,1.528-4.429,1.528
			c-1.882,0-3.358-0.509-4.43-1.528s-1.606-2.286-1.606-3.802s0.535-2.783,1.606-3.803c1.071-1.019,2.548-1.528,4.43-1.528
			c1.881,0,3.357,0.51,4.429,1.528C440.705,304.74,441.241,306.008,441.241,307.523z M441.319,333.824
			c0,1.516-0.535,2.783-1.606,3.803c-1.072,1.019-2.548,1.528-4.43,1.528c-1.881,0-3.358-0.51-4.429-1.528
			c-1.072-1.02-1.607-2.287-1.607-3.803c0-1.515,0.535-2.783,1.607-3.802c1.07-1.02,2.548-1.529,4.429-1.529
			c1.882,0,3.357,0.51,4.43,1.529C440.784,331.041,441.319,332.31,441.319,333.824z"/>
	</g>
	<g enable-background="new    ">
		<path fill="#8062AA" d="M481.361,310.188v16.11c0,1.725,0.353,2.861,1.059,3.41c1.097,0.862,3.057,1.293,5.879,1.293
			c4.103,0,7.892-0.875,11.367-2.626c1.333-0.679,2.378-1.02,3.136-1.02c1.045,0,1.953,0.393,2.725,1.177
			c0.771,0.783,1.156,1.737,1.156,2.861c0,1.045-0.418,1.946-1.254,2.704c-1.281,1.229-3.81,2.358-7.585,3.391
			c-3.776,1.032-6.958,1.549-9.545,1.549c-4.991,0-8.734-1.078-11.229-3.234c-2.496-2.155-3.743-4.802-3.743-7.938v-17.678h-2.901
			c-1.934,0-3.312-0.372-4.135-1.117s-1.235-1.718-1.235-2.92c0-1.176,0.412-2.137,1.235-2.881c0.823-0.745,2.201-1.117,4.135-1.117
			h2.901v-7.252c0-1.934,0.372-3.312,1.116-4.135c0.745-0.823,1.719-1.235,2.921-1.235c1.176,0,2.136,0.412,2.881,1.235
			s1.117,2.201,1.117,4.135v7.252h14.855c1.934,0,3.313,0.372,4.136,1.117c0.823,0.744,1.234,1.718,1.234,2.92
			c0,1.176-0.411,2.136-1.234,2.881s-2.202,1.117-4.136,1.117H481.361z"/>
		<path fill="#8062AA" d="M551.682,324.025h-32.965c0.836,2.091,2.318,3.776,4.448,5.057s5.011,1.92,8.644,1.92
			c2.979,0,6.938-0.64,11.877-1.92c2.038-0.522,3.449-0.784,4.233-0.784c1.07,0,1.973,0.379,2.704,1.137s1.098,1.712,1.098,2.861
			c0,1.045-0.392,1.934-1.176,2.665c-1.046,0.967-3.594,1.889-7.644,2.764c-4.051,0.875-7.944,1.313-11.681,1.313
			c-6.429,0-11.57-1.816-15.425-5.449c-3.854-3.632-5.781-8.1-5.781-13.405c0-5.645,2.084-10.236,6.252-13.777
			s8.97-5.312,14.405-5.312c3.266,0,6.265,0.575,8.996,1.725c2.729,1.15,4.762,2.391,6.095,3.724
			c1.882,1.935,3.436,4.325,4.664,7.173c0.836,1.986,1.255,4.286,1.255,6.899V324.025z M542.783,315.989
			c-1.229-2.299-2.835-4.018-4.82-5.154c-1.986-1.137-4.352-1.705-7.095-1.705c-2.719,0-5.07,0.568-7.056,1.705
			c-1.986,1.137-3.606,2.855-4.86,5.154H542.783z"/>
		<path fill="#8062AA" d="M592.211,303.604c0.967-0.915,1.96-1.372,2.979-1.372c1.15,0,2.098,0.411,2.842,1.234
			c0.745,0.823,1.117,2.189,1.117,4.097v5.174c0,1.935-0.372,3.306-1.117,4.115c-0.744,0.811-1.718,1.216-2.92,1.216
			c-1.098,0-2.025-0.313-2.783-0.941c-0.549-0.47-0.979-1.431-1.293-2.881s-1.072-2.528-2.273-3.233
			c-2.117-1.255-4.821-1.882-8.114-1.882c-3.789,0-6.827,1.111-9.113,3.332c-2.287,2.222-3.43,5.03-3.43,8.428
			c0,3.136,1.098,5.611,3.293,7.428c2.194,1.816,5.84,2.724,10.936,2.724c3.345,0,6.076-0.339,8.192-1.019
			c1.254-0.418,2.443-1.13,3.567-2.137c1.123-1.005,2.142-1.509,3.057-1.509c1.098,0,2.045,0.405,2.842,1.215
			c0.797,0.811,1.196,1.764,1.196,2.861c0,1.777-1.216,3.463-3.646,5.057c-3.606,2.378-8.885,3.567-15.836,3.567
			c-6.246,0-11.106-1.294-14.581-3.881c-4.704-3.475-7.056-8.231-7.056-14.268c0-5.723,1.907-10.459,5.723-14.209
			c3.814-3.75,8.793-5.625,14.934-5.625c2.222,0,4.286,0.209,6.193,0.627C588.826,302.141,590.59,302.768,592.211,303.604z"/>
		<path fill="#8062AA" d="M619.571,286.905v17.129c1.672-0.992,3.364-1.73,5.075-2.214c1.712-0.483,3.443-0.726,5.194-0.726
			c2.77,0,5.238,0.471,7.408,1.411c2.169,0.94,3.965,2.424,5.39,4.449c1.424,2.025,2.136,4.579,2.136,7.663v15.091
			c2.039,0,3.371,0.195,3.998,0.588c1.255,0.811,1.882,1.96,1.882,3.449c0,1.176-0.405,2.136-1.215,2.881
			c-0.811,0.745-2.183,1.117-4.116,1.117h-9.172c-1.908,0-3.273-0.372-4.096-1.117c-0.823-0.745-1.235-1.718-1.235-2.92
			c0-1.463,0.627-2.6,1.882-3.41c0.652-0.418,1.985-0.614,3.998-0.588v-14.542c0-2.064-0.471-3.515-1.411-4.352
			c-1.229-1.123-3.045-1.686-5.448-1.686c-1.777,0-3.352,0.347-4.724,1.039s-3.221,2.188-5.546,4.488v15.052
			c2.063,0,3.396,0.195,3.998,0.588c1.279,0.811,1.92,1.96,1.92,3.449c0,1.176-0.411,2.136-1.234,2.881s-2.202,1.117-4.135,1.117
			h-9.134c-1.934,0-3.312-0.372-4.135-1.117s-1.235-1.718-1.235-2.92c0-1.463,0.641-2.6,1.921-3.41
			c0.627-0.418,1.96-0.614,3.998-0.588V294.94h-1.372c-1.934,0-3.312-0.372-4.135-1.117c-0.823-0.744-1.234-1.718-1.234-2.92
			c0-1.176,0.411-2.136,1.234-2.881s2.201-1.117,4.135-1.117H619.571z"/>
	</g>
	<g enable-background="new    ">
		<path fill="#F3F3F3" d="M674.201,318.263c-0.915-1.07-1.548-2.109-1.9-3.116c-0.354-1.005-0.529-2.384-0.529-4.135v-12.778
			c0-1.071-0.203-1.836-0.607-2.293c-0.405-0.457-1.156-0.738-2.254-0.843s-1.999-0.535-2.705-1.294
			c-0.705-0.757-1.058-1.672-1.058-2.743c0-1.15,0.397-2.117,1.195-2.901c0.797-0.783,1.809-1.176,3.037-1.176
			c1.751,0,3.437,0.465,5.057,1.392c1.62,0.928,3.031,2.438,4.233,4.527c0.758,1.359,1.137,2.927,1.137,4.704v13.405
			c0,1.124,0.183,1.901,0.549,2.332c0.365,0.432,1.149,0.712,2.352,0.843s2.123,0.549,2.764,1.254c0.64,0.706,0.96,1.646,0.96,2.822
			c0,1.15-0.32,2.078-0.96,2.783c-0.641,0.706-1.567,1.131-2.783,1.274c-1.215,0.144-1.953,0.386-2.215,0.725
			c-0.444,0.523-0.666,1.333-0.666,2.431v14.15c0,2.9-1.045,5.402-3.136,7.506s-4.508,3.155-7.251,3.155
			c-1.255,0-2.28-0.392-3.077-1.176c-0.798-0.784-1.195-1.751-1.195-2.9c0-1.072,0.353-1.986,1.058-2.744
			c0.706-0.758,1.62-1.189,2.744-1.293c1.123-0.105,1.829-0.34,2.116-0.706c0.471-0.549,0.706-1.359,0.706-2.43V326.26
			c0-2.247,0.163-3.867,0.49-4.861C672.588,320.406,673.234,319.36,674.201,318.263z"/>
	</g>
</g>
</svg>
