<?xml version="1.0" standalone="no"?>
<!DOCTYPE svg PUBLIC "-//W3C//DTD SVG 20010904//EN"
 "http://www.w3.org/TR/2001/REC-SVG-20010904/DTD/svg10.dtd">
<svg version="1.0" xmlns="http://www.w3.org/2000/svg"
 width="1440.000000pt" height="1440.000000pt" viewBox="0 0 1440.000000 1440.000000"
 preserveAspectRatio="xMidYMid meet">
<metadata>
Created by potrace 1.14, written by Peter Selinger 2001-2017
</metadata>
<g transform="translate(0.000000,1440.000000) scale(0.100000,-0.100000)"
fill="#000000" stroke="none">
<path d="M7906 10577 c-39 -67 -73 -124 -76 -127 -3 -3 -12 -20 -19 -37 -8
-18 -17 -33 -20 -33 -4 0 -13 -16 -21 -35 -8 -19 -17 -35 -20 -35 -4 0 -17
-22 -30 -50 -13 -27 -27 -50 -31 -50 -3 0 -9 -8 -12 -17 -4 -10 -17 -36 -29
-58 -49 -84 -142 -241 -163 -275 -22 -34 -171 -288 -223 -380 -14 -25 -68
-117 -120 -205 -113 -191 -127 -214 -166 -283 -17 -30 -36 -61 -41 -70 -6 -9
-30 -51 -54 -92 -24 -41 -77 -130 -117 -198 -41 -68 -74 -125 -74 -127 0 -3
-16 -29 -35 -59 -19 -30 -35 -58 -35 -62 0 -4 -11 -22 -25 -40 -14 -18 -25
-35 -25 -38 0 -4 -39 -73 -87 -154 -93 -158 -175 -297 -292 -499 -41 -71 -93
-159 -117 -198 -23 -38 -52 -88 -65 -111 -13 -22 -58 -98 -99 -168 -41 -70
-84 -144 -95 -164 -11 -20 -23 -38 -27 -40 -5 -2 -8 -8 -8 -12 0 -8 -86 -157
-120 -210 -6 -8 -15 -24 -20 -35 -6 -11 -23 -41 -38 -66 -34 -57 -373 -633
-387 -656 -89 -157 -120 -209 -127 -211 -4 -2 -8 -8 -8 -13 0 -4 -20 -43 -45
-85 -25 -41 -45 -78 -45 -81 0 -2 -7 -11 -15 -20 -36 -36 -17 -38 331 -36 186
1 555 2 820 3 l481 2 84 146 c46 81 89 156 95 167 6 11 35 61 64 110 29 50 64
110 78 135 28 50 61 106 79 135 7 11 19 34 28 50 8 17 19 37 25 45 10 15 85
143 122 210 97 171 154 269 170 293 11 15 16 27 11 27 -4 0 -3 4 3 8 6 4 28
39 49 77 22 39 43 72 47 73 4 2 8 10 8 18 0 8 4 14 10 14 5 0 9 3 8 8 -2 7 37
83 65 127 18 28 50 84 79 135 14 25 49 86 78 135 29 50 64 110 78 135 14 25
43 73 64 108 21 34 34 62 30 62 -4 0 -2 4 3 8 6 4 16 18 23 31 34 59 54 94
121 208 39 68 71 127 71 133 0 5 5 10 10 10 6 0 10 4 10 9 0 4 55 102 121 217
67 115 132 227 144 249 13 22 46 80 74 128 28 49 51 92 51 97 0 5 4 10 8 12 4
2 37 55 72 118 35 63 68 117 72 118 4 2 8 7 8 12 0 5 23 48 51 97 29 48 52 93
52 98 0 9 -93 176 -131 235 -9 14 -17 27 -17 30 -1 4 -28 51 -62 105 -7 11
-21 36 -31 55 -10 19 -28 51 -39 70 -83 142 -210 363 -231 400 -13 25 -31 52
-38 61 -8 8 -14 19 -14 22 0 8 -218 387 -229 399 -3 3 -37 -48 -75 -115z"/>
<path d="M9100 9338 c-36 -62 -73 -129 -83 -148 -11 -19 -25 -42 -33 -51 -8
-8 -14 -18 -14 -21 0 -3 -32 -61 -71 -129 -40 -68 -81 -140 -92 -159 -10 -19
-40 -71 -66 -115 -26 -44 -50 -87 -54 -95 -4 -8 -15 -28 -26 -45 -10 -16 -27
-46 -38 -65 -11 -19 -36 -62 -55 -95 -19 -33 -111 -192 -204 -353 -93 -161
-177 -307 -187 -325 -11 -18 -29 -50 -40 -72 -12 -22 -24 -42 -27 -45 -3 -3
-15 -23 -28 -45 -12 -22 -68 -120 -125 -218 -56 -98 -110 -192 -121 -210 -10
-17 -94 -164 -187 -324 -93 -161 -169 -297 -169 -302 0 -5 -4 -11 -8 -13 -4
-1 -19 -23 -33 -48 -14 -25 -35 -61 -46 -80 -11 -19 -47 -82 -80 -140 -186
-324 -328 -568 -345 -592 -11 -16 -16 -28 -13 -28 3 0 -3 -13 -14 -29 -12 -16
-21 -33 -21 -38 0 -4 138 -7 307 -6 170 1 414 2 545 2 l236 1 -4 88 c-2 48 -4
89 -5 92 -1 3 -1 8 0 12 0 4 3 31 6 60 11 109 16 142 25 157 4 9 8 19 8 24 1
22 16 74 24 85 6 6 8 12 5 12 -8 0 38 108 71 170 26 47 90 145 119 181 26 32
156 161 184 183 133 102 311 188 464 223 163 37 378 36 520 -2 33 -9 68 -18
78 -20 22 -5 119 -41 144 -53 68 -34 97 -51 169 -98 71 -47 208 -171 255 -230
67 -86 179 -283 179 -316 0 -8 4 -18 9 -23 4 -6 16 -39 25 -74 33 -121 38
-157 40 -321 l2 -135 37 -6 c20 -3 37 -3 37 0 0 7 125 5 145 -3 8 -3 15 -2 15
2 0 9 47 8 56 0 3 -4 18 -3 32 0 15 4 192 7 395 7 202 0 367 3 367 6 0 9 -33
72 -40 79 -6 5 -36 56 -80 135 -12 22 -53 93 -91 157 -38 64 -69 121 -69 127
0 6 -4 11 -10 11 -5 0 -10 4 -10 9 0 5 -23 49 -51 98 -28 48 -59 102 -69 118
-10 17 -86 149 -170 295 -179 310 -244 422 -294 507 -20 34 -36 65 -36 69 0 4
-6 15 -14 23 -7 9 -25 36 -38 61 -14 25 -51 90 -83 145 -32 55 -110 190 -173
300 -63 110 -146 253 -183 318 -38 65 -69 120 -69 123 0 3 -13 24 -28 47 -16
23 -35 57 -43 75 -8 17 -16 32 -19 32 -3 0 -21 30 -40 68 -19 37 -38 69 -41
72 -5 5 -216 370 -277 480 -14 25 -33 57 -43 72 -11 14 -19 28 -19 31 0 3 -27
51 -60 107 -33 56 -60 104 -60 106 0 2 -11 23 -26 45 -14 22 -33 55 -43 72
-47 83 -56 97 -61 97 -3 0 -35 -51 -70 -112z"/>
<path d="M5233 9288 c-12 -15 -252 -433 -267 -465 -6 -13 -14 -23 -18 -23 -5
0 -8 -4 -8 -10 0 -5 -31 -62 -69 -127 -37 -65 -111 -192 -163 -283 -52 -91
-121 -210 -153 -265 -71 -122 -94 -162 -112 -195 -8 -14 -28 -47 -44 -75 -17
-27 -33 -58 -36 -67 -3 -10 -9 -18 -14 -18 -5 0 -9 -4 -9 -10 0 -5 -45 -86
-100 -181 -55 -94 -100 -175 -100 -180 0 -4 -3 -9 -7 -11 -7 -3 -16 -17 -62
-103 -9 -16 -19 -31 -23 -33 -5 -2 -8 -8 -8 -12 0 -5 -13 -31 -29 -58 -15 -26
-40 -68 -53 -93 -48 -85 -53 -94 -59 -99 -3 -3 -26 -43 -52 -90 -57 -102 -89
-159 -128 -223 -16 -26 -29 -50 -29 -52 0 -3 -11 -22 -23 -43 -23 -35 -55 -90
-275 -472 -122 -211 -131 -227 -155 -272 -12 -21 -24 -38 -29 -38 -4 0 -8 -9
-8 -19 0 -11 -5 -23 -11 -26 -5 -4 -15 -17 -20 -28 -5 -12 -19 -38 -30 -57
-12 -19 -32 -53 -45 -75 l-23 -40 332 2 c183 1 544 2 803 3 l470 0 88 153 c48
83 92 159 97 167 22 37 95 168 108 193 8 15 18 27 23 27 4 0 8 8 8 17 0 9 6
24 13 32 19 22 87 141 87 150 0 5 7 14 15 21 8 7 12 16 9 21 -3 5 -2 9 3 9 4
0 19 21 33 48 13 26 38 70 55 97 17 28 42 71 55 98 14 26 28 47 32 47 5 0 8 4
8 9 0 9 42 83 205 366 54 94 106 183 114 200 9 16 18 32 21 35 7 7 29 43 37
60 4 8 20 38 36 65 17 28 43 75 60 105 16 30 36 62 43 71 8 8 14 18 14 22 0 3
14 30 31 59 18 29 43 73 57 98 14 25 34 59 44 75 10 17 21 37 25 45 3 8 17 32
30 52 12 20 19 40 14 43 -8 4 -24 31 -94 155 -11 19 -29 49 -41 65 -11 17 -20
31 -18 33 1 1 -4 12 -12 25 -38 61 -86 149 -86 158 0 5 -4 9 -10 9 -5 0 -10 4
-10 9 0 8 -71 136 -100 181 -6 8 -14 24 -20 35 -5 11 -21 38 -35 60 -14 22
-32 54 -40 70 -9 17 -27 48 -40 70 -14 22 -30 49 -36 60 -5 11 -15 29 -22 40
-27 44 -111 191 -121 212 -6 13 -14 23 -18 23 -5 0 -8 4 -8 9 0 9 -79 151 -85
151 -1 0 -7 -6 -12 -12z"/>
<path d="M12300 4962 c0 -4 -36 -7 -80 -7 -102 -1 -126 -20 -121 -98 2 -34 40
-55 104 -59 l27 -1 0 -349 0 -348 -31 0 c-41 0 -64 -14 -77 -47 -15 -41 -12
-60 15 -85 23 -22 34 -23 173 -25 147 -1 149 -1 174 24 52 52 16 133 -58 133
l-35 0 0 153 c1 152 1 152 27 176 41 36 96 71 123 77 73 18 157 -5 180 -48 12
-21 21 -316 11 -345 -2 -7 -17 -13 -33 -13 -42 0 -82 -39 -81 -80 1 -57 30
-75 125 -77 45 -1 84 -3 87 -4 3 -1 9 -1 15 1 5 1 36 3 69 4 68 3 96 26 96 81
0 40 -27 66 -77 74 l-37 6 -2 185 c-1 169 -3 189 -23 231 -47 99 -142 152
-271 151 -69 0 -98 -7 -192 -47 -16 -6 -18 5 -17 151 0 88 0 164 0 171 -1 6
-9 10 -18 9 -10 -2 -30 0 -45 5 -16 4 -28 5 -28 1z"/>
<path d="M1068 4949 c-43 -11 -106 -67 -130 -113 -19 -37 -21 -59 -22 -216 -1
-96 -5 -180 -9 -186 -3 -6 -26 -17 -50 -23 -51 -12 -67 -28 -71 -68 -6 -52 25
-88 82 -96 44 -6 47 -18 48 -205 1 -202 10 -236 73 -295 57 -52 153 -74 187
-42 18 17 34 52 34 74 0 28 -40 70 -70 74 -14 1 -33 7 -42 13 -20 11 -30 70
-16 97 5 9 5 17 1 17 -4 0 -7 60 -7 132 1 121 -1 137 -22 176 l-23 43 22 37
c20 33 22 51 23 214 2 193 4 202 57 213 42 9 77 42 77 73 0 31 -30 82 -50 83
-8 1 -26 2 -40 3 -14 2 -37 -1 -52 -5z"/>
<path d="M13355 4950 c-30 -11 -45 -33 -50 -70 -3 -26 2 -38 24 -59 16 -15 41
-27 57 -29 15 -1 33 -10 38 -20 6 -9 11 -94 11 -187 1 -156 3 -174 23 -213 19
-36 20 -46 9 -65 -6 -12 -14 -24 -17 -27 -11 -11 -13 -41 -14 -210 -2 -164
-11 -222 -34 -219 -27 4 -53 -4 -73 -25 -29 -30 -33 -61 -12 -97 47 -79 204
-27 258 86 16 34 19 65 20 210 1 94 5 180 9 192 5 15 20 26 47 33 57 16 82 43
76 86 -7 47 -30 70 -77 78 -28 4 -41 12 -46 29 -4 12 -8 99 -9 192 -2 185 -4
192 -64 257 -44 48 -130 77 -176 58z"/>
<path d="M9494 4883 c-17 -17 -24 -36 -25 -66 -1 -23 -2 -68 -3 -101 l-1 -59
-55 -4 c-30 -2 -64 -10 -76 -18 -28 -18 -38 -61 -24 -96 15 -35 44 -46 126
-48 l31 -1 -1 -195 c-1 -107 3 -195 7 -195 5 0 6 -3 3 -8 -7 -11 19 -63 47
-94 26 -30 91 -62 147 -74 97 -20 279 7 387 58 75 35 96 94 52 143 -25 28 -60
29 -121 1 -103 -45 -204 -61 -283 -44 -75 17 -78 23 -78 222 0 97 2 178 4 180
3 3 79 6 169 6 204 2 231 12 230 88 -1 66 -42 78 -252 76 -144 -1 -148 0 -149
20 0 12 -2 58 -3 104 -2 74 -5 86 -27 105 -33 30 -75 30 -105 0z"/>
<path d="M1920 4672 c-47 -5 -135 -35 -172 -58 -84 -53 -155 -155 -172 -248
-41 -223 76 -398 295 -438 159 -30 375 -1 447 60 11 9 30 25 41 34 44 37 35
114 -16 137 -31 14 -56 7 -108 -30 -46 -33 -149 -56 -235 -53 -183 7 -256 58
-267 185 -9 97 35 180 119 225 59 31 166 35 245 8 56 -19 79 -43 93 -94 6 -21
17 -43 26 -51 25 -20 82 -15 107 10 20 20 22 31 22 137 0 110 -1 117 -24 135
-26 21 -62 24 -93 8 -15 -8 -35 -6 -87 10 -61 19 -163 30 -221 23z"/>
<path d="M2878 4674 c-2 -1 -32 -5 -66 -9 -35 -4 -81 -13 -103 -20 -22 -8 -42
-14 -45 -14 -2 1 -18 -4 -34 -11 -47 -20 -52 -88 -9 -124 30 -26 52 -26 159
-2 69 15 106 19 181 17 61 -1 112 -44 106 -88 -3 -25 -7 -27 -33 -23 -47 7
-216 5 -263 -4 -89 -15 -198 -93 -237 -168 -63 -121 18 -262 174 -302 82 -21
204 -11 295 25 58 23 67 23 67 3 0 -11 8 -15 33 -13 18 2 37 0 43 -3 5 -4 16
-3 24 2 8 5 21 5 31 -1 11 -5 20 -5 23 0 3 5 24 7 45 5 33 -3 45 1 69 25 28
29 31 43 17 88 -8 24 -51 43 -96 43 -21 0 -29 5 -29 18 0 9 -1 96 -1 192 -1
166 -2 179 -26 226 -40 82 -131 129 -265 137 -32 2 -59 3 -60 1z m144 -438
c44 -8 46 -9 46 -42 0 -39 -26 -58 -127 -93 -116 -40 -235 -29 -259 24 -10 21
-7 28 20 55 61 62 168 80 320 56z"/>
<path d="M4743 4664 c-149 -31 -269 -135 -310 -267 -6 -22 -10 -76 -9 -121 3
-97 31 -166 98 -237 38 -40 134 -98 178 -107 62 -12 95 -15 165 -15 44 1 98 4
120 8 22 3 49 8 60 10 88 15 186 52 201 76 14 23 5 72 -18 96 -19 21 -29 24
-63 20 -41 -6 -74 -12 -103 -21 -40 -12 -160 -29 -207 -29 -97 -1 -190 35
-230 87 -14 18 -25 37 -25 42 0 6 134 9 325 9 l325 0 1 25 c5 107 -12 180 -57
245 -13 20 -24 39 -24 43 0 12 -68 65 -119 93 -86 48 -204 64 -308 43z m218
-177 c54 -22 128 -105 97 -108 -7 -1 -113 -2 -234 -3 l-222 -1 13 25 c29 55
113 105 190 112 42 4 115 -8 156 -25z"/>
<path d="M5984 4665 c-43 -13 -149 -68 -175 -91 -24 -22 -28 -18 -31 34 l-3
47 -115 0 c-166 0 -203 -15 -203 -80 0 -60 36 -82 137 -84 23 -1 27 -5 23 -20
-2 -10 0 -26 5 -35 5 -9 5 -16 1 -16 -9 0 -9 -200 0 -224 4 -9 3 -16 -1 -16
-4 0 -6 -17 -4 -39 l4 -38 -67 -2 c-37 -1 -78 -4 -91 -7 -32 -8 -55 -59 -42
-95 16 -45 34 -54 122 -56 45 -1 83 -3 86 -4 3 -1 10 0 15 1 6 1 42 2 80 2 39
0 75 -1 80 -2 6 -1 15 -1 20 0 6 1 55 1 110 1 124 -1 160 10 174 50 13 38 -7
94 -37 103 -11 4 -81 7 -156 8 l-136 1 0 121 c0 120 0 122 27 141 14 11 31 25
37 30 19 18 110 82 135 95 56 29 75 29 120 -1 52 -36 78 -41 113 -21 47 27 51
83 9 128 -59 63 -159 92 -237 69z"/>
<path d="M6797 4674 c-1 -1 -18 -4 -37 -7 -44 -6 -68 -15 -102 -39 -27 -19
-49 -24 -47 -10 6 34 -1 37 -83 36 -106 -1 -145 -10 -160 -37 -33 -60 4 -121
77 -126 8 -1 12 -251 6 -373 -1 -12 -9 -18 -25 -18 -64 0 -106 -51 -87 -103
18 -48 34 -52 198 -52 151 0 155 1 174 24 27 33 25 82 -6 111 -14 13 -25 21
-25 18 0 -3 -15 -2 -32 1 l-33 7 -1 144 -1 145 36 38 c45 48 109 78 170 80 53
1 115 -24 127 -50 4 -10 8 -96 9 -190 2 -162 1 -173 -17 -173 -30 0 -32 -1
-52 -18 -27 -24 -35 -53 -24 -85 12 -33 41 -51 88 -54 19 -1 37 -2 40 -3 3 -1
10 -1 15 0 6 1 36 2 68 1 101 -3 136 18 142 84 3 32 -24 64 -61 71 -19 3 -34
11 -35 18 -4 65 -2 159 4 163 4 2 4 9 1 15 -4 6 -8 49 -9 97 -1 54 -9 102 -20
128 -24 59 -101 126 -165 142 -46 12 -126 21 -133 15z"/>
<path d="M7640 4668 c-104 -17 -191 -42 -210 -60 -50 -46 -1 -145 65 -131 11
2 38 6 60 9 21 3 42 7 46 9 3 3 31 8 60 11 145 18 218 -4 221 -67 2 -41 -1
-51 -14 -43 -19 12 -222 13 -270 2 -24 -5 -47 -11 -53 -12 -61 -15 -175 -110
-197 -164 -41 -104 -7 -198 95 -261 90 -55 236 -60 372 -12 69 24 76 25 73 9
-2 -8 8 -14 22 -15 14 0 30 -2 35 -3 6 -1 14 -2 19 -1 4 1 46 3 93 4 77 2 86
5 103 27 45 58 6 130 -70 130 -31 0 -40 4 -41 18 -1 9 -2 96 -3 192 -2 209
-13 246 -92 303 -70 51 -202 74 -314 55z m203 -432 c36 -6 42 -12 42 -44 0
-30 -21 -50 -80 -74 -130 -54 -263 -55 -301 -3 -27 37 34 101 119 123 31 8
163 7 220 -2z"/>
<path d="M10521 4664 c-146 -30 -276 -146 -310 -277 -12 -47 -8 -185 7 -212 5
-11 18 -36 28 -56 29 -60 86 -116 154 -151 36 -18 72 -35 80 -36 83 -20 244
-19 345 2 131 27 201 60 206 96 4 38 -3 61 -23 80 -19 18 -31 21 -68 16 -56
-8 -75 -11 -125 -24 -131 -35 -248 -33 -333 5 -40 17 -105 80 -99 96 3 9 89
12 318 13 173 1 319 2 325 3 17 2 6 134 -16 194 -25 66 -76 139 -121 173 -100
75 -238 104 -368 78z m169 -159 c59 -11 124 -56 149 -102 14 -28 40 -25 -231
-27 -148 -1 -218 2 -218 10 0 20 55 76 95 96 22 12 56 23 75 25 19 3 36 6 38
8 3 3 47 -2 92 -10z"/>
<path d="M11577 4674 c-1 -1 -20 -4 -42 -7 -38 -4 -50 -8 -92 -24 -10 -3 -20
-7 -23 -7 -32 -8 -125 -90 -157 -140 -67 -104 -79 -264 -29 -370 68 -144 190
-208 401 -209 165 -1 270 27 347 95 53 45 53 109 1 143 -31 21 -59 14 -121
-28 -52 -36 -61 -39 -113 -42 -20 -1 -41 -4 -45 -7 -13 -6 -112 -3 -157 5 -57
10 -107 34 -134 63 -73 79 -63 226 22 302 111 101 354 78 385 -36 17 -66 68
-93 121 -66 39 20 46 60 40 227 -2 55 -84 100 -119 65 -8 -8 -24 -7 -65 6 -29
9 -66 19 -82 22 -32 6 -133 12 -138 8z"/>
<path d="M3495 4652 c-40 -6 -74 -25 -80 -42 -25 -77 9 -115 107 -119 10 -1
20 -12 24 -26 3 -14 10 -25 15 -25 5 0 9 -5 9 -11 0 -6 39 -90 87 -187 48 -97
88 -179 88 -182 3 -15 51 -106 60 -112 10 -8 73 -11 141 -7 24 1 36 23 140
235 63 128 114 238 114 244 0 5 4 10 8 10 4 0 13 14 19 30 8 21 18 30 35 31
87 3 127 44 105 110 -14 44 -44 52 -194 52 -172 1 -206 -5 -221 -39 -15 -32
-15 -65 2 -86 15 -21 64 -41 83 -34 25 10 13 -23 -68 -191 l-81 -167 -85 173
c-46 95 -83 175 -81 176 2 2 19 7 38 10 42 7 66 28 72 60 7 34 -20 84 -49 91
-27 7 -255 12 -288 6z"/>
<path d="M8619 4622 c-27 -24 -32 -35 -32 -74 0 -62 31 -95 95 -104 26 -4 55
-3 65 1 10 5 21 8 25 7 4 -1 17 12 29 29 34 48 29 106 -13 142 -26 22 -42 27
-85 27 -44 0 -58 -5 -84 -28z"/>
<path d="M8635 4106 c-40 -23 -56 -62 -44 -114 4 -19 9 -35 11 -36 56 -41 64
-43 145 -38 25 2 72 45 74 67 5 52 2 68 -16 95 -31 47 -112 59 -170 26z"/>
</g>
</svg>
