<svg xmlns="http://www.w3.org/2000/svg" width="43" height="57" viewBox="0 0 43 57" fill="none">
    <path fill-rule="evenodd" clip-rule="evenodd" d="M22.167 20.2553C20.2406 20.2553 17.2394 18.0118 14.1208 18.0118C9.97439 18.0118 6.18035 20.546 4.04253 24.2637C-0.256599 31.7285 2.93545 42.7582 7.12886 48.8251C9.18739 51.7793 11.613 55.1035 14.8315 54.9978C17.9178 54.8657 19.0777 52.9921 22.8248 52.9921C26.5454 52.9921 27.5996 54.9978 30.871 54.9185C34.1952 54.8657 36.3066 51.9115 38.3357 48.9309C40.685 45.5009 41.6599 42.1768 41.7128 41.9918C41.6335 41.9653 35.2494 39.5133 35.1701 32.1249C35.1172 25.9522 40.2092 22.9981 40.4471 22.8659C37.5458 18.6196 33.0881 18.1439 31.5317 18.0382C27.4675 17.7211 24.067 20.2553 22.167 20.2553V20.2553Z" stroke="#666666" stroke-width="2.5" stroke-linecap="round" stroke-linejoin="round"></path>
    <path d="M28.2128 2.00845C30.7646 1.05841 32.4338 2.45915 31.9411 5.13711C31.4484 7.81506 28.9804 10.7561 26.4286 11.7062C23.8768 12.6562 22.2076 11.2555 22.7003 8.57751C23.193 5.89956 25.661 2.95848 28.2128 2.00845" stroke="#666666" stroke-width="2.5" stroke-linecap="round" stroke-linejoin="round"></path>
</svg>