<svg xmlns="http://www.w3.org/2000/svg" width="40" height="50" viewBox="0 0 40 50" fill="none">
    <path d="M24.4442 0C24.1496 5.68056e-05 23.867 0.117147 23.6586 0.325521L0.325307 23.6589C0.117012 23.8672 0 24.1498 0 24.4444C0 24.7391 0.117012 25.0217 0.325307 25.23L6.99197 31.8967C7.20036 32.105 7.48293 32.222 7.77756 32.222C8.0722 32.222 8.35477 32.105 8.56315 31.8967L38.5632 1.8967C38.7185 1.74129 38.8242 1.54333 38.867 1.32783C38.9099 1.11234 38.8878 0.888985 38.8038 0.685999C38.7197 0.483012 38.5773 0.309504 38.3947 0.187403C38.212 0.065301 37.9973 8.62537e-05 37.7776 0H24.4442ZM24.9043 2.22222H35.0953L7.77756 29.5399L2.68208 24.4444L24.9043 2.22222ZM25.5553 21.1111C25.2607 21.1112 24.9781 21.2283 24.7698 21.4366L11.4364 34.77C11.2281 34.9783 11.1111 35.2609 11.1111 35.5556C11.1111 35.8502 11.2281 36.1328 11.4364 36.3411L18.1031 43.0078L24.7698 49.6745C24.9781 49.8829 25.2607 49.9999 25.5553 50H38.8887C39.1084 49.9999 39.3231 49.9347 39.5058 49.8126C39.6884 49.6905 39.8308 49.517 39.9149 49.314C39.999 49.111 40.021 48.8877 39.9781 48.6722C39.9353 48.4567 39.8296 48.2587 39.6743 48.1033L27.1265 35.5556L39.6743 23.0078C39.8296 22.8524 39.9353 22.6544 39.9781 22.4389C40.021 22.2234 39.999 22.0001 39.9149 21.7971C39.8308 21.5941 39.6884 21.4206 39.5058 21.2985C39.3231 21.1764 39.1084 21.1112 38.8887 21.1111H25.5553ZM26.0154 23.3333H36.2064L18.8887 40.651L13.7932 35.5556L26.0154 23.3333ZM25.5553 37.1267L36.2064 47.7778H26.0154L20.4599 42.2222L25.5553 37.1267Z" fill="#666666"></path>
</svg>