<svg xmlns="http://www.w3.org/2000/svg" width="111" height="44" viewBox="0 0 111 44" fill="none">
    <path d="M71.1111 41.9996L87.3528 2H76.5857L65.476 27.8487L57.5749 2H49.2981L40.8157 27.8487L34.8333 16.0701L29.4198 32.6322L34.9162 42H45.5131L53.1786 18.8196L60.4871 42L71.1111 41.9996Z" stroke="#666666" stroke-width="2.5" stroke-linejoin="round"></path>
    <path d="M12.1955 28.2681H18.8107C20.8148 28.2681 22.5991 28.0458 24.1639 27.6004L30.6564 7.6883C30.289 7.10957 29.8714 6.56427 29.4085 6.05805C26.9544 3.35283 23.3619 2 18.6326 2H2V41.9996H12.1955V28.2681ZM20.9519 11.2023C21.911 12.1631 22.3905 13.4487 22.3905 15.0598C22.3905 16.6831 21.9686 17.97 21.1255 18.9216C20.2009 19.9788 18.4987 20.5072 16.0184 20.5072H12.1955V9.76139H16.0468C18.3582 9.76139 19.9932 10.2416 20.9519 11.2023ZM80.755 34.8356L83.8457 27.0742H92.7684L88.534 15.3012L93.8305 2L109 41.9996H97.8127L95.2207 34.8356H80.755Z" stroke="#666666" stroke-width="2.5" stroke-linejoin="round"></path>
</svg>