<?xml version="1.0" encoding="UTF-8" standalone="no"?>
<svg
   sodipodi:docname="CavernaTechBG.svg"
   inkscape:version="1.1.1 (3bf5ae0d25, 2021-09-20)"
   id="svg8"
   version="1.1"
   viewBox="0 0 507.99998 285.75002"
   height="1080"
   width="1920"
   xmlns:inkscape="http://www.inkscape.org/namespaces/inkscape"
   xmlns:sodipodi="http://sodipodi.sourceforge.net/DTD/sodipodi-0.dtd"
   xmlns:xlink="http://www.w3.org/1999/xlink"
   xmlns="http://www.w3.org/2000/svg"
   xmlns:svg="http://www.w3.org/2000/svg">
  <sodipodi:namedview
     id="namedview51"
     pagecolor="#fafafa"
     bordercolor="#666666"
     borderopacity="1.0"
     inkscape:pageshadow="2"
     inkscape:pageopacity="0"
     inkscape:pagecheckerboard="0"
     showgrid="false"
     fit-margin-top="0"
     fit-margin-left="0"
     fit-margin-right="0"
     fit-margin-bottom="0"
     inkscape:zoom="0.55"
     inkscape:cx="850"
     inkscape:cy="556.36364"
     inkscape:window-width="1920"
     inkscape:window-height="1018"
     inkscape:window-x="0"
     inkscape:window-y="33"
     inkscape:window-maximized="1"
     inkscape:current-layer="layer13"
     width="1920px"
     showguides="true"
     inkscape:guide-bbox="true"
     inkscape:snap-global="false">
    <inkscape:grid
       type="xygrid"
       id="grid10852" />
  </sodipodi:namedview>
  <defs
     id="defs2">
    <linearGradient
       id="linearGradient3394"
       inkscape:collect="always">
      <stop
         id="stop3384"
         offset="0"
         style="stop-color:#8afff4;stop-opacity:1;" />
      <stop
         style="stop-color:#55e2ff;stop-opacity:1"
         offset="0.25"
         id="stop3386" />
      <stop
         style="stop-color:#cc59fd;stop-opacity:1"
         offset="0.47311425"
         id="stop3388" />
      <stop
         id="stop3390"
         offset="0.75"
         style="stop-color:#fd5789;stop-opacity:1" />
      <stop
         id="stop3392"
         offset="1"
         style="stop-color:#fcc467;stop-opacity:1" />
    </linearGradient>
    <filter
       style="color-interpolation-filters:sRGB"
       inkscape:label="Feather"
       id="filter3311">
      <feGaussianBlur
         stdDeviation="5"
         result="blur"
         id="feGaussianBlur3303" />
      <feComposite
         in="SourceGraphic"
         in2="blur"
         operator="atop"
         result="composite1"
         id="feComposite3305" />
      <feComposite
         in2="composite1"
         operator="in"
         result="composite2"
         id="feComposite3307" />
      <feComposite
         in2="composite2"
         operator="in"
         result="composite3"
         id="feComposite3309" />
    </filter>
    <filter
       style="color-interpolation-filters:sRGB"
       inkscape:label="Feather"
       id="filter4206">
      <feGaussianBlur
         stdDeviation="0.5"
         result="blur"
         id="feGaussianBlur4198" />
      <feComposite
         in="SourceGraphic"
         in2="blur"
         operator="atop"
         result="composite1"
         id="feComposite4200" />
      <feComposite
         in2="composite1"
         operator="in"
         result="composite2"
         id="feComposite4202" />
      <feComposite
         in2="composite2"
         operator="in"
         result="composite3"
         id="feComposite4204" />
    </filter>
    <linearGradient
       gradientTransform="translate(1.4632452,-2.047832)"
       gradientUnits="userSpaceOnUse"
       y2="90.841576"
       x2="112.13186"
       y1="90.147133"
       x1="59.433567"
       id="linearGradient3181"
       xlink:href="#linearGradient3394"
       inkscape:collect="always" />
    <linearGradient
       gradientUnits="userSpaceOnUse"
       y2="566.92877"
       x2="1010.9542"
       y1="566.92877"
       x1="152.8898"
       id="linearGradient3432-3"
       xlink:href="#linearGradient3394"
       inkscape:collect="always" />
    <linearGradient
       gradientUnits="userSpaceOnUse"
       y2="96.225731"
       x2="238.97366"
       y1="96.225731"
       x1="-30.298441"
       id="linearGradient3511-7"
       xlink:href="#linearGradient3394"
       inkscape:collect="always" />
  </defs>
  <g
     inkscape:groupmode="layer"
     id="layer11"
     inkscape:label="Sky">
    <g
       inkscape:groupmode="layer"
       id="layer14"
       inkscape:label="Night"
       sodipodi:insensitive="true" />
    <g
       inkscape:groupmode="layer"
       id="layer13"
       inkscape:label="Day">
      <rect
         style="fill:#e6e6e6;fill-opacity:1;stroke:none;stroke-width:1.69751;stroke-miterlimit:4;stroke-dasharray:none;stroke-opacity:1"
         id="rect5594"
         width="508"
         height="284.42709"
         x="0"
         y="0"
         inkscape:label="Sky-Day" />
      <g
         id="g6028"
         inkscape:label="Sun"
         transform="matrix(0.72519903,0,0,0.72519903,-215.71814,-20.540033)">
        <path
           sodipodi:type="star"
           style="fill:#515151;fill-opacity:1;stroke:none;stroke-width:16.1846;stroke-miterlimit:4;stroke-dasharray:none;stroke-opacity:1"
           id="path5734"
           inkscape:flatsided="false"
           sodipodi:sides="9"
           sodipodi:cx="706.90906"
           sodipodi:cy="94.545456"
           sodipodi:r1="200.1864"
           sodipodi:r2="244.12976"
           sodipodi:arg1="1.0671701"
           sodipodi:arg2="1.416236"
           inkscape:rounded="0.31"
           inkscape:randomized="0"
           d="m 803.51995,269.87637 c -24.01848,13.23467 -31.93166,61.66693 -59.02817,65.88865 -27.09651,4.22172 -49.36872,-39.50757 -76.27502,-44.808 -26.90631,-5.30044 -64.09981,26.71433 -87.57061,12.53105 -23.4708,-14.18327 -12.42366,-61.99815 -29.62803,-83.35356 -17.20437,-21.35541 -66.27495,-20.7382 -75.13779,-46.68996 -8.86284,-25.95176 30.33457,-55.47912 30.88225,-82.897061 0.54768,-27.417951 -37.4393,-58.487095 -27.54716,-84.0642236 9.89214,-25.5771234 58.89892,-23.0007824 76.94239,-43.6521044 18.04346,-20.651326 8.91461,-68.869231 32.93309,-82.103901 24.01848,-13.23467 59.90381,20.239872 87.00032,16.01816 27.09651,-4.22172 51.09727,-47.02669 78.00358,-41.72626 26.9063,5.30044 32.87904,54.01007 56.34984,68.193347 23.4708,14.183281 69.37096,-3.179837 86.57533,18.175573 17.20437,21.355406 -9.5302,62.5083516 -0.66736,88.46011 8.86284,25.951763 55.1852,42.154897 54.63752,69.572847 -0.54768,27.417943 -47.48015,41.758283 -57.37229,67.335403 -9.89214,25.57713 15.17767,67.76489 -2.8658,88.41622 -18.04346,20.65132 -63.21361,1.46904 -87.23209,14.70371 z"
           transform="matrix(0.11271303,0,0,0.11271303,333.20557,187.48428)"
           inkscape:transform-center-x="-4.1269616e-06"
           inkscape:label="Sun-shine" />
        <circle
           style="fill:#e6e6e6;fill-opacity:1;stroke:none;stroke-width:1.82421;stroke-miterlimit:4;stroke-dasharray:none;stroke-opacity:1"
           id="path5362"
           cx="412.88342"
           cy="198.14079"
           inkscape:label="Sun-middle"
           r="16.17103" />
      </g>
      <path
         sodipodi:type="star"
         style="fill:#515151;fill-opacity:1;stroke:none;stroke-width:7.60899;stroke-miterlimit:4;stroke-dasharray:none;stroke-opacity:1"
         id="path16499"
         inkscape:flatsided="false"
         sodipodi:sides="9"
         sodipodi:cx="606.54547"
         sodipodi:cy="272.36362"
         sodipodi:r1="158.03474"
         sodipodi:r2="169.92984"
         sodipodi:arg1="0.27300892"
         sodipodi:arg2="0.62207477"
         inkscape:rounded="0.39"
         inkscape:randomized="0"
         d="m 758.72723,314.97455 c -6.11405,21.83586 -0.87105,37.98314 -14.08468,56.41101 -13.21363,18.42787 -30.18942,18.64327 -48.90887,31.44047 -18.71945,12.79721 -25.08236,28.53688 -47.04979,34.15989 -21.96743,5.62301 -35.11009,-5.12381 -57.67591,-7.35321 -22.56582,-2.2294 -37.55735,5.73788 -57.99979,-4.07503 -20.44243,-9.81292 -23.60237,-26.49341 -39.45575,-42.70625 -15.85339,-16.21285 -32.45885,-19.74593 -41.81104,-40.4032 -9.35219,-20.65727 -1.05083,-35.46644 -2.77381,-58.07656 -1.72298,-22.61012 -12.17248,-35.9904 -6.05844,-57.82626 6.11405,-21.83586 21.9924,-27.84433 35.20603,-46.2722 13.21363,-18.42787 13.80952,-35.39456 32.52897,-48.19177 18.71945,-12.7972 34.74515,-7.19355 56.71258,-12.81656 21.96743,-5.62301 33.3299,-18.23722 55.89571,-16.00782 22.56582,2.2294 31.24025,16.82317 51.68269,26.63609 20.44243,9.81291 37.25484,7.45352 53.10822,23.66637 15.85339,16.21285 13.1177,32.96814 22.46989,53.62541 9.35219,20.65727 23.74783,29.65668 25.47081,52.2668 1.72298,22.61013 -11.14278,33.68696 -17.25682,55.52282 z"
         transform="matrix(0.29054453,0,0,0.06341186,69.057636,122.99234)"
         inkscape:transform-center-x="-1.9948314e-06"
         inkscape:transform-center-y="-1.962252e-06" />
      <path
         sodipodi:type="star"
         style="fill:#515151;fill-opacity:1;stroke:none;stroke-width:8.21614;stroke-miterlimit:4;stroke-dasharray:none;stroke-opacity:1"
         id="path16729"
         inkscape:flatsided="false"
         sodipodi:sides="9"
         sodipodi:cx="606.54547"
         sodipodi:cy="272.36362"
         sodipodi:r1="142.74107"
         sodipodi:r2="169.92984"
         sodipodi:arg1="0.27300892"
         sodipodi:arg2="0.62207477"
         inkscape:rounded="0.39"
         inkscape:randomized="0.088"
         d="m 757.50658,318.41691 c -6.46688,23.25246 10.54197,23.61136 -5.92735,41.44815 -16.46932,17.83679 -51.82727,3.35542 -70.66023,17.78987 -18.83297,14.43445 -21.02555,55.09063 -42.39956,62.56285 -21.37402,7.47223 -26.81852,-32.69355 -50.98583,-33.16856 -24.16732,-0.47501 -27.03202,31.93442 -48.75247,20.85152 -21.72045,-11.0829 -2.93854,-26.61276 -20.14637,-43.0493 -17.20783,-16.43654 -49.07543,-22.10167 -56.24262,-44.63304 -7.16718,-22.53136 -0.84824,-28.93884 -3.25987,-51.83869 -2.41163,-22.89985 -20.49157,-26.49358 -17.27127,-50.02153 3.2203,-23.52796 43.50192,-29.49252 55.30494,-49.24588 11.80303,-19.75335 -4.64315,-49.63135 14.72821,-64.2895 19.37135,-14.65816 43.5064,8.38727 66.3641,1.39322 22.85769,-6.99406 28.23152,-22.68914 51.89901,-21.16072 23.6675,1.52843 22.32233,38.92222 44.53574,48.06355 22.21341,9.14134 26.18121,-7.31015 41.15344,10.86598 14.97223,18.17613 23.45294,26.93369 34.83759,48.04186 11.38466,21.10817 6.48781,9.43837 11.28063,32.47946 4.79281,23.04108 2.00879,50.6583 -4.45809,73.91076 z"
         transform="matrix(0.30668363,0,0,0.07804217,-54.168295,55.772466)"
         inkscape:transform-center-x="-7.4231388e-06" />
      <path
         sodipodi:type="star"
         style="fill:#4d4d4d;fill-opacity:1;stroke:none;stroke-width:10;stroke-miterlimit:4;stroke-dasharray:none;stroke-opacity:1"
         id="path16833"
         inkscape:flatsided="false"
         sodipodi:sides="7"
         sodipodi:cx="606.54547"
         sodipodi:cy="272.36362"
         sodipodi:r1="144.44035"
         sodipodi:r2="169.92984"
         sodipodi:arg1="0.27300892"
         sodipodi:arg2="0.72180787"
         inkscape:rounded="0.4"
         inkscape:randomized="0.113"
         d="m 757.52652,320.98941 c -6.16305,27.98895 -2.00582,26.11762 -22.8933,45.12084 -20.88749,19.00322 -32.66516,41.90474 -58.99871,57.81375 -26.33355,15.90902 -35.3957,8.56724 -66.40629,10.05005 -31.01059,1.48282 -56.28144,-22.62079 -82.17469,-35.43432 -25.89325,-12.81352 -30.56778,-4.82691 -50.04314,-25.63871 -19.47537,-20.8118 -20.32324,-45.33528 -25.45727,-73.97237 -5.13403,-28.63708 -12.89054,-27.4388 -9.98988,-57.21458 2.90066,-29.77577 36.26753,-43.82881 52.23702,-68.09528 15.9695,-24.26646 4.92797,-34.71426 33.3491,-46.43879 28.42112,-11.72453 48.00776,16.31373 76.66876,19.56253 28.661,3.2488 41.0365,-44.1636 65.71618,-26.55533 24.67969,17.60827 33.4236,54.90559 48.51763,79.44573 15.09403,24.54013 56.67974,7.62399 59.30073,36.17446 2.62099,28.55046 -13.66309,57.19307 -19.82614,85.18202 z"
         transform="matrix(0.35262077,0,0,0.07180882,161.21593,43.79451)"
         inkscape:transform-center-x="-5.3564263e-06"
         inkscape:transform-center-y="1.4915721e-06" />
      <path
         sodipodi:type="star"
         style="fill:#515151;fill-opacity:1;stroke:none;stroke-width:7.73218;stroke-miterlimit:4;stroke-dasharray:none;stroke-opacity:1"
         id="path16937"
         inkscape:flatsided="false"
         sodipodi:sides="7"
         sodipodi:cx="606.54547"
         sodipodi:cy="272.36362"
         sodipodi:r1="144.44035"
         sodipodi:r2="169.92984"
         sodipodi:arg1="0.27300892"
         sodipodi:arg2="0.72180787"
         inkscape:rounded="0.4"
         inkscape:randomized="0.113"
         d="m 757.52652,320.98941 c -6.16305,27.98895 -2.00582,26.11762 -22.8933,45.12084 -20.88749,19.00322 -32.66516,41.90474 -58.99871,57.81375 -26.33355,15.90902 -35.3957,8.56724 -66.40629,10.05005 -31.01059,1.48282 -56.28144,-22.62079 -82.17469,-35.43432 -25.89325,-12.81352 -30.56778,-4.82691 -50.04314,-25.63871 -19.47537,-20.8118 -20.32324,-45.33528 -25.45727,-73.97237 -5.13403,-28.63708 -12.89054,-27.4388 -9.98988,-57.21458 2.90066,-29.77577 36.26753,-43.82881 52.23702,-68.09528 15.9695,-24.26646 4.92797,-34.71426 33.3491,-46.43879 28.42112,-11.72453 48.00776,16.31373 76.66876,19.56253 28.661,3.2488 41.0365,-44.1636 65.71618,-26.55533 24.67969,17.60827 33.4236,54.90559 48.51763,79.44573 15.09403,24.54013 56.67974,7.62399 59.30073,36.17446 2.62099,28.55046 -13.66309,57.19307 -19.82614,85.18202 z"
         transform="matrix(0.25785266,0,0,0.07424606,-100.08165,146.90797)"
         inkscape:transform-center-x="-7.0403263e-06"
         inkscape:transform-center-y="2.1907025e-06" />
    </g>
  </g>
  <g
     inkscape:groupmode="layer"
     id="layer1"
     inkscape:label="Ground"
     style="display:inline">
    <rect
       style="fill:#515151;fill-opacity:1;stroke:none;stroke-width:1.32294;stroke-miterlimit:4;stroke-dasharray:none;stroke-opacity:1"
       id="rect6528"
       width="508"
       height="1.3229167"
       x="0"
       y="284.42709"
       inkscape:label="ground" />
  </g>
  <g
     inkscape:groupmode="layer"
     id="layer4"
     inkscape:label="Mountain"
     style="display:inline"
     transform="translate(-72.636138,-63.955856)">
    <g
       inkscape:groupmode="layer"
       id="layer8"
       inkscape:label="Underglow"
       style="display:inline">
      <path
         style="fill:none;stroke:#6600ff;stroke-width:0.932172;stroke-linecap:butt;stroke-linejoin:miter;stroke-miterlimit:4;stroke-dasharray:none;stroke-opacity:1"
         d="M 145.8352,348.33122 H 354.33906"
         id="path4883"
         inkscape:label="underglow" />
    </g>
    <g
       inkscape:groupmode="layer"
       id="layer5"
       inkscape:label="Mountains"
       style="display:inline">
      <path
         id="path7814"
         style="display:inline;fill:#515151;fill-opacity:1;stroke:none;stroke-width:1.91104;stroke-linecap:butt;stroke-linejoin:miter;stroke-miterlimit:4;stroke-dasharray:none;stroke-opacity:1"
         inkscape:label="left-mountain"
         d="m 221.15643,272.02756 -74.78818,75.82114 72.90419,-0.0187 c 6.20484,-10.73319 13.60763,-15.93088 20.52953,-17.42699 L 229.46865,298.0515 c -11.62885,5.65801 -24.35307,16.11951 -36.10971,23.8997 l 33.16395,-33.12201 z m -0.097,1.39139 c -0.79149,6.59521 -0.67519,22.35211 -6.13327,22.71724 -7.45118,-0.84852 -12.89736,-1.03227 -22.16447,6.01368 z" />
      <path
         id="path8014"
         style="display:inline;fill:#515151;fill-opacity:1;stroke:none;stroke-width:1.92235;stroke-linecap:butt;stroke-linejoin:miter;stroke-miterlimit:4;stroke-dasharray:none;stroke-opacity:1"
         inkscape:label="right-mountain"
         d="m 305.53246,280.27863 -117.38956,67.61574 29.58594,-0.005 c 7.35872,-12.72646 16.39183,-17.71552 24.33214,-17.98775 9.93622,0.49606 12.69815,13.24171 13.19484,17.98156 l 99.63846,-0.0161 z m -0.42004,1.53323 c 4.30316,9.79332 -3.61225,17.59572 -1.79867,28.09865 L 286.1256,292.72418 Z" />
      <path
         id="path8624"
         style="display:inline;fill:#515151;fill-opacity:1;stroke:none;stroke-width:1.86685;stroke-linecap:butt;stroke-linejoin:miter;stroke-miterlimit:4;stroke-dasharray:none;stroke-opacity:1"
         inkscape:label="main-mountain"
         d="m 254.78838,261.38734 5.1014,6.86942 c -2.77007,10.987 -4.28628,23.79331 -0.20929,34.78032 -14.68033,-22.95791 -41.95471,3.09422 -65.44079,18.69768 l -25.18426,25.18425 h 50.25257 c 7.00943,-12.0457 15.67027,-16.75271 23.27255,-17.00694 9.71027,0.47284 12.18518,12.99864 12.53343,17.00694 h 85.2057 z" />
    </g>
    <g
       inkscape:groupmode="layer"
       id="layer6"
       inkscape:label="Snow"
       style="display:inline" />
    <g
       inkscape:groupmode="layer"
       id="layer9"
       inkscape:label="Snowglow">
      <path
         style="display:inline;fill:none;stroke:#6600ff;stroke-width:0.933428;stroke-linecap:butt;stroke-linejoin:miter;stroke-miterlimit:4;stroke-dasharray:none;stroke-opacity:1"
         d="m 254.70242,261.26303 5.19167,6.99137 c -2.77007,10.98701 -4.28637,23.7933 -0.20939,34.78029 -14.73611,-23.04514 -42.16312,3.29613 -65.70931,18.87829 z"
         id="path12553-1"
         sodipodi:nodetypes="ccccc"
         inkscape:label="snowglow" />
    </g>
    <g
       inkscape:groupmode="layer"
       id="layer12"
       inkscape:label="Mountainglow">
      <path
         style="display:inline;fill:none;stroke:#6600ff;stroke-width:0.933428;stroke-linecap:butt;stroke-linejoin:miter;stroke-miterlimit:4;stroke-dasharray:none;stroke-opacity:1"
         d="m 227.11381,288.03284 27.57414,-27.46292 48.06577,48.78036"
         id="path1010"
         sodipodi:nodetypes="ccc"
         inkscape:label="mountainglow" />
    </g>
    <g
       inkscape:groupmode="layer"
       id="layer7"
       inkscape:label="Cave"
       style="display:inline" />
    <g
       inkscape:groupmode="layer"
       id="layer10"
       inkscape:label="Caveglow">
      <path
         style="display:inline;fill:none;stroke:#6600ff;stroke-width:0.933428;stroke-linecap:butt;stroke-linejoin:miter;stroke-miterlimit:4;stroke-dasharray:none;stroke-opacity:1"
         d="m 218.62916,347.99443 36.46178,0.0323 c 0.161,-1.44104 -1.52086,-17.5905 -12.57043,-18.12856 -7.82755,0.26176 -16.77744,5.24315 -23.89135,18.09626 z"
         id="path13653-3"
         sodipodi:nodetypes="cccc"
         inkscape:label="caveglow" />
    </g>
  </g>
  <g
     inkscape:groupmode="layer"
     id="layer15"
     inkscape:label="Mailbox">
    <path
       style="fill:#515151;fill-opacity:1;stroke:none;stroke-width:0.264583px;stroke-linecap:butt;stroke-linejoin:miter;stroke-opacity:1"
       d="m 336.81459,284.42709 c 0,-10.58333 0,-10.58333 0,-10.58333 h 1.32292 v 10.58333 z"
       id="path10854"
       inkscape:label="mailbox-base" />
    <path
       style="fill:none;fill-opacity:1;stroke:#515151;stroke-width:1.32292;stroke-linecap:butt;stroke-linejoin:miter;stroke-miterlimit:4;stroke-dasharray:none;stroke-opacity:1"
       d="m 332.05209,273.84376 h 9.26042 v -5.29167 h -5.29167 c -1.95021,0.35029 -4.1416,2.13201 -3.96875,5.29167 z"
       id="path11087"
       sodipodi:nodetypes="ccccc"
       inkscape:label="mailbox" />
    <path
       style="fill:#515151;fill-opacity:1;stroke:none;stroke-width:0.640549px;stroke-linecap:butt;stroke-linejoin:miter;stroke-opacity:1"
       d="m 340.17721,274.50048 h 3.10877 v -1.31984 h -3.10877 z"
       id="path12270"
       inkscape:label="entry-base" />
    <path
       style="fill:#515151;fill-opacity:1;stroke:none;stroke-width:0.279641px;stroke-linecap:butt;stroke-linejoin:miter;stroke-opacity:1"
       d="m 343.83242,268.92959 1.01253,0.75317 -3.15127,4.28624 -1.00803,-0.75569 z"
       id="path12426"
       inkscape:label="entry"
       sodipodi:nodetypes="ccccc" />
    <path
       style="fill:#515151;fill-opacity:1;stroke:none;stroke-width:1.32292;stroke-linecap:butt;stroke-linejoin:miter;stroke-miterlimit:4;stroke-dasharray:none;stroke-opacity:1"
       d="m 339.96408,265.96015 h -2.11666 v 1.05834 h 1.05833 v 3.43958 h 1.05833 z"
       id="path12831"
       inkscape:label="lever"
       sodipodi:nodetypes="ccccccc" />
  </g>
</svg>
